<svg width="172" height="26" viewBox="0 0 172 26" fill="none" xmlns="http://www.w3.org/2000/svg">
<rect width="172" height="26" fill="url(#paint0_linear_409_77)"/>
<mask id="mask0_409_77" style="mask-type:alpha" maskUnits="userSpaceOnUse" x="0" y="0" width="172" height="26">
<rect width="172" height="26" fill="url(#paint1_linear_409_77)"/>
</mask>
<g mask="url(#mask0_409_77)">
<path d="M67.4 0H42.5863L18 26H42.8184L67.4 0Z" fill="white"/>
<path d="M196.4 0H171.586L147 26H171.818L196.4 0Z" fill="white"/>
<path d="M24.4 0H-0.413692L-25 26H-0.181568L24.4 0Z" fill="white"/>
<path d="M153.4 0H128.586L104 26H128.818L153.4 0Z" fill="white"/>
<path d="M110.4 0H85.5863L61 26H85.8184L110.4 0Z" fill="white"/>
</g>
<mask id="mask1_409_77" style="mask-type:alpha" maskUnits="userSpaceOnUse" x="0" y="0" width="172" height="26">
<rect width="172" height="26" fill="url(#paint2_linear_409_77)"/>
</mask>
<g mask="url(#mask1_409_77)">
<path d="M67.4 0H42.5863L18 26H42.8184L67.4 0Z" fill="white"/>
<path d="M196.4 0H171.586L147 26H171.818L196.4 0Z" fill="white"/>
<path d="M24.4 0H-0.413692L-25 26H-0.181568L24.4 0Z" fill="white"/>
<path d="M153.4 0H128.586L104 26H128.818L153.4 0Z" fill="white"/>
<path d="M110.4 0H85.5863L61 26H85.8184L110.4 0Z" fill="white"/>
</g>
<defs>
<linearGradient id="paint0_linear_409_77" x1="86" y1="0" x2="86" y2="26" gradientUnits="userSpaceOnUse">
<stop stop-color="#FF267E"/>
<stop offset="1" stop-color="#B61959"/>
</linearGradient>
<linearGradient id="paint1_linear_409_77" x1="86" y1="0" x2="86" y2="26" gradientUnits="userSpaceOnUse">
<stop stop-color="#FF267E"/>
<stop offset="1" stop-color="#B61959"/>
</linearGradient>
<linearGradient id="paint2_linear_409_77" x1="86" y1="0" x2="86" y2="26" gradientUnits="userSpaceOnUse">
<stop stop-color="#FF267E"/>
<stop offset="1" stop-color="#B61959"/>
</linearGradient>
</defs>
</svg>
