<svg width="23" height="23" viewBox="0 0 23 23" fill="none" xmlns="http://www.w3.org/2000/svg">
<g clip-path="url(#clip0_148_4455)">
<path fill-rule="evenodd" clip-rule="evenodd" d="M11.5007 1.01025L15.2374 7.99515L23 8.39927V9.40957L17.5483 15.1414L18.6082 21.9897V23L11.5007 19.5577L4.39321 23V21.9897L5.45319 15.1414L0 9.40957V8.39927L7.76259 7.99515L11.5007 1.01025Z" fill="#4D4D4D"/>
<path fill-rule="evenodd" clip-rule="evenodd" d="M11.5007 0L15.2374 6.98344L23 8.39932L17.5483 14.1311L18.6082 21.9897L11.5007 18.5474L4.39321 21.9897L5.45319 14.1311L0 8.39932L7.76259 6.98344L11.5007 0Z" fill="#999999"/>
<path fill-rule="evenodd" clip-rule="evenodd" d="M11.5007 1.56714L8.24409 7.65076L1.48364 8.88347L6.23259 13.8768L5.30854 20.7207L11.5007 17.7233L17.6914 20.7207L16.7673 13.8768L21.5177 8.88347L14.7558 7.65076L11.5007 1.56714Z" fill="url(#paint0_radial_148_4455)"/>
<path fill-rule="evenodd" clip-rule="evenodd" d="M11.5007 18.5474V17.7231L5.30856 20.7206L4.39319 21.9897L11.5007 18.5474Z" fill="url(#paint1_radial_148_4455)"/>
<path fill-rule="evenodd" clip-rule="evenodd" d="M5.30856 20.7206L6.23261 13.8767L5.45317 14.1311L4.39319 21.9897L5.30856 20.7206Z" fill="url(#paint2_radial_148_4455)"/>
<path fill-rule="evenodd" clip-rule="evenodd" d="M0 8.39941L5.45319 14.1312L6.23263 13.8769L1.48368 8.88349L0 8.39941Z" fill="url(#paint3_radial_148_4455)"/>
<path fill-rule="evenodd" clip-rule="evenodd" d="M1.48368 8.88335L8.24414 7.65063L7.76259 6.9834L0 8.39927L1.48368 8.88335Z" fill="url(#paint4_radial_148_4455)"/>
<path fill-rule="evenodd" clip-rule="evenodd" d="M11.5007 0L7.76257 6.98344L8.24412 7.65068L11.5007 1.56706V0Z" fill="url(#paint5_radial_148_4455)"/>
<path fill-rule="evenodd" clip-rule="evenodd" d="M11.5007 18.5474V17.7231L17.6914 20.7206L18.6082 21.9897L11.5007 18.5474Z" fill="url(#paint6_radial_148_4455)"/>
<path fill-rule="evenodd" clip-rule="evenodd" d="M17.6914 20.7206L16.7673 13.8767L17.5482 14.1311L18.6082 21.9897L17.6914 20.7206Z" fill="url(#paint7_radial_148_4455)"/>
<path fill-rule="evenodd" clip-rule="evenodd" d="M23 8.39941L17.5482 14.1312L16.7673 13.8769L21.5177 8.88349L23 8.39941Z" fill="url(#paint8_radial_148_4455)"/>
<path fill-rule="evenodd" clip-rule="evenodd" d="M21.5178 8.88335L14.7559 7.65063L15.2374 6.9834L23 8.39927L21.5178 8.88335Z" fill="url(#paint9_radial_148_4455)"/>
<path fill-rule="evenodd" clip-rule="evenodd" d="M11.5007 0L15.2374 6.98344L14.7559 7.65068L11.5007 1.56706V0Z" fill="url(#paint10_radial_148_4455)"/>
<path opacity="0.5" fill-rule="evenodd" clip-rule="evenodd" d="M5.44445 19.7206L17.0377 8.06648L14.7558 7.65073L13.113 4.58203L5.07715 12.6615L6.23257 13.8768L5.44445 19.7206Z" fill="url(#paint11_radial_148_4455)"/>
<path opacity="0.5" fill-rule="evenodd" clip-rule="evenodd" d="M16.8469 14.4626L12.9193 18.4108L15.0161 19.4255L17.2185 17.2115L16.8469 14.4626Z" fill="url(#paint12_radial_148_4455)"/>
<path fill-rule="evenodd" clip-rule="evenodd" d="M4.39319 23L11.5007 19.5577V18.5474L4.39319 21.9897V23Z" fill="url(#paint13_radial_148_4455)"/>
<path fill-rule="evenodd" clip-rule="evenodd" d="M11.5007 19.5577L18.6082 23V21.9897L11.5007 18.5474V19.5577Z" fill="url(#paint14_radial_148_4455)"/>
<path fill-rule="evenodd" clip-rule="evenodd" d="M5.33317 15.0165L5.45319 14.1312L0 8.39941V9.40972L5.33317 15.0165Z" fill="url(#paint15_radial_148_4455)"/>
<path fill-rule="evenodd" clip-rule="evenodd" d="M23 8.39941L17.5482 14.1312L17.6668 15.0165L23 9.40972V8.39941Z" fill="url(#paint16_radial_148_4455)"/>
<path fill-rule="evenodd" clip-rule="evenodd" d="M10.0634 2.68359L8.70837 5.21589C8.98024 5.27549 9.26801 5.54006 9.18992 5.88313L10.5449 3.35083C10.3511 3.34211 10.072 2.98305 10.0634 2.68359Z" fill="url(#paint17_radial_148_4455)"/>
<path fill-rule="evenodd" clip-rule="evenodd" d="M2.95005 8.61599L6.59853 7.95166C6.36571 7.91386 6.03889 7.48939 6.11698 7.28442L2.46851 7.94875C2.76495 8.03888 3.10045 8.34706 2.95005 8.61599Z" fill="url(#paint18_radial_148_4455)"/>
<path fill-rule="evenodd" clip-rule="evenodd" d="M2.84012 10.3095L1.45187 8.94742L0.36731 8.51859L1.50104 8.80933C3.61811 8.4619 6.86168 7.94003 8.11978 7.60423L7.84502 7.09835L8.23402 7.52283L11.1103 2.29688L8.29331 7.7714C6.71852 8.02434 3.55882 8.58837 1.58202 8.91399L2.84012 10.3095Z" fill="white"/>
<path fill-rule="evenodd" clip-rule="evenodd" d="M15.0162 20.2495C14.9091 19.9966 14.9135 19.5416 15.0162 19.4253C14.3177 19.0866 13.6192 18.7494 12.9208 18.4106C13.061 18.6505 13.0654 18.9994 12.9208 19.2349C13.6178 19.5736 14.3177 19.9123 15.0162 20.2495Z" fill="url(#paint19_radial_148_4455)"/>
</g>
<defs>
<radialGradient id="paint0_radial_148_4455" cx="0" cy="0" r="1" gradientUnits="userSpaceOnUse" gradientTransform="translate(9.0488 3.32341) scale(21.4436 21.5561)">
<stop stop-color="#FCF800"/>
<stop offset="1" stop-color="#FC9700"/>
</radialGradient>
<radialGradient id="paint1_radial_148_4455" cx="0" cy="0" r="1" gradientUnits="userSpaceOnUse" gradientTransform="translate(9.8401 21.0197) scale(14.1388 14.213)">
<stop stop-color="#BD5F00"/>
<stop offset="1" stop-color="#EBA82C"/>
</radialGradient>
<radialGradient id="paint2_radial_148_4455" cx="0" cy="0" r="1" gradientUnits="userSpaceOnUse" gradientTransform="translate(4.26051 22.5332) scale(10.1961 10.2496)">
<stop stop-color="#F9C433"/>
<stop offset="1" stop-color="#FF9F33"/>
</radialGradient>
<radialGradient id="paint3_radial_148_4455" cx="0" cy="0" r="1" gradientUnits="userSpaceOnUse" gradientTransform="translate(6.85111 14.2792) scale(7.44094 7.47997)">
<stop stop-color="#CF8100"/>
<stop offset="1" stop-color="#DE9000"/>
</radialGradient>
<radialGradient id="paint4_radial_148_4455" cx="0" cy="0" r="1" gradientUnits="userSpaceOnUse" gradientTransform="translate(0.370054 8.13665) scale(6.51187 6.54603)">
<stop stop-color="#FFF8C9"/>
<stop offset="1" stop-color="#FFD23B"/>
</radialGradient>
<radialGradient id="paint5_radial_148_4455" cx="0" cy="0" r="1" gradientUnits="userSpaceOnUse" gradientTransform="translate(9.67177 1.43261) scale(5.91845 5.9495)">
<stop stop-color="#FFF8C9"/>
<stop offset="1" stop-color="#FFE89C"/>
</radialGradient>
<radialGradient id="paint6_radial_148_4455" cx="0" cy="0" r="1" gradientUnits="userSpaceOnUse" gradientTransform="translate(13.1077 12.4005) scale(14.0432 14.1169)">
<stop stop-color="#BD5F00"/>
<stop offset="1" stop-color="#EBA82C"/>
</radialGradient>
<radialGradient id="paint7_radial_148_4455" cx="0" cy="0" r="1" gradientUnits="userSpaceOnUse" gradientTransform="translate(17.3721 14.4427) scale(18.9363 19.0357)">
<stop stop-color="#BD5F00"/>
<stop offset="1" stop-color="#EBA82C"/>
</radialGradient>
<radialGradient id="paint8_radial_148_4455" cx="0" cy="0" r="1" gradientUnits="userSpaceOnUse" gradientTransform="translate(18.1482 14.6494) scale(10.1032 10.1562)">
<stop stop-color="#CF8100"/>
<stop offset="1" stop-color="#DE9000"/>
</radialGradient>
<radialGradient id="paint9_radial_148_4455" cx="0" cy="0" r="1" gradientUnits="userSpaceOnUse" gradientTransform="translate(15.5641 6.71765) scale(8.23137 8.27455)">
<stop stop-color="#CF8100"/>
<stop offset="1" stop-color="#EBA82C"/>
</radialGradient>
<radialGradient id="paint10_radial_148_4455" cx="0" cy="0" r="1" gradientUnits="userSpaceOnUse" gradientTransform="translate(11.8436 0.0711136) scale(9.40618 9.45553)">
<stop stop-color="#F9C433"/>
<stop offset="1" stop-color="#FF9F33"/>
</radialGradient>
<radialGradient id="paint11_radial_148_4455" cx="0" cy="0" r="1" gradientUnits="userSpaceOnUse" gradientTransform="translate(9.24516 3.3663) scale(16.4175 16.5037)">
<stop stop-color="#FFF261"/>
<stop offset="1" stop-color="white"/>
</radialGradient>
<radialGradient id="paint12_radial_148_4455" cx="0" cy="0" r="1" gradientUnits="userSpaceOnUse" gradientTransform="translate(14.4175 14.0641) scale(5.90127 5.41036)">
<stop stop-color="#FFF261"/>
<stop offset="1" stop-color="white"/>
</radialGradient>
<radialGradient id="paint13_radial_148_4455" cx="0" cy="0" r="1" gradientUnits="userSpaceOnUse" gradientTransform="translate(8.28157 29.4079) scale(11.0381 11.096)">
<stop stop-color="#DE8128"/>
<stop offset="1" stop-color="#994115"/>
</radialGradient>
<radialGradient id="paint14_radial_148_4455" cx="0" cy="0" r="1" gradientUnits="userSpaceOnUse" gradientTransform="translate(17.6097 23.1745) scale(11.2023 11.2611)">
<stop stop-color="#DE8128"/>
<stop offset="1" stop-color="#994115"/>
</radialGradient>
<radialGradient id="paint15_radial_148_4455" cx="0" cy="0" r="1" gradientUnits="userSpaceOnUse" gradientTransform="translate(-0.0410248 8.35351) scale(11.4386 11.4986)">
<stop stop-color="#DE8128"/>
<stop offset="1" stop-color="#994115"/>
</radialGradient>
<radialGradient id="paint16_radial_148_4455" cx="0" cy="0" r="1" gradientUnits="userSpaceOnUse" gradientTransform="translate(24.3013 8.2091) scale(10.2591 10.3129)">
<stop stop-color="#DE8128"/>
<stop offset="1" stop-color="#994115"/>
</radialGradient>
<radialGradient id="paint17_radial_148_4455" cx="0" cy="0" r="1" gradientUnits="userSpaceOnUse" gradientTransform="translate(9.34837 2.42665) scale(2.52089 3.48805)">
<stop stop-color="#FFF261"/>
<stop offset="1" stop-color="white"/>
</radialGradient>
<radialGradient id="paint18_radial_148_4455" cx="0" cy="0" r="1" gradientUnits="userSpaceOnUse" gradientTransform="translate(3.90773 7.17749) scale(5.66903 1.45164)">
<stop stop-color="#FFF261"/>
<stop offset="1" stop-color="white"/>
</radialGradient>
<radialGradient id="paint19_radial_148_4455" cx="0" cy="0" r="1" gradientUnits="userSpaceOnUse" gradientTransform="translate(13.651 18.263) scale(2.8762 2.00472)">
<stop stop-color="#FFF261"/>
<stop offset="1" stop-color="white"/>
</radialGradient>
<clipPath id="clip0_148_4455">
<rect width="23" height="23" fill="white"/>
</clipPath>
</defs>
</svg>
