<svg width="1920" height="7303" viewBox="0 0 1920 7303" fill="none" xmlns="http://www.w3.org/2000/svg">
<g opacity="0.64" filter="url(#filter0_f_148_1819)">
<path d="M1858.45 3518.59C1520.09 3768.56 1206.99 3036.32 1164.38 2968.48C1276.83 3049.75 1882.17 3393.74 1954.39 3315.64C1966.88 3338.86 1974.75 3432.66 1858.45 3518.59Z" fill="#00008E"/>
</g>
<g opacity="0.64" filter="url(#filter1_f_148_1819)">
<path d="M-160.242 2768.4C-162.332 2410.92 497.145 2562.81 565.058 2567.54C452.935 2604.02 -86.4307 2847.22 -68.9974 2935.92C-91.1989 2932.86 -159.524 2891.27 -160.242 2768.4Z" fill="#00008E"/>
</g>
<g opacity="0.64" filter="url(#filter2_f_148_1819)">
<path d="M2017.31 955.682C1577.44 1280.65 1170.4 328.721 1115 240.532C1261.2 346.188 2048.15 793.382 2142.04 691.85C2158.28 722.04 2168.5 843.982 2017.31 955.682Z" fill="#00008E"/>
</g>
<g opacity="0.64" filter="url(#filter3_f_148_1819)">
<path d="M-348.401 993.266C-351.598 446.38 657.289 678.753 761.184 685.989C589.657 741.797 -235.482 1113.86 -208.812 1249.55C-242.776 1244.87 -347.302 1181.24 -348.401 993.266Z" fill="#00008E"/>
</g>
<g opacity="0.5">
<g opacity="0.11">
<path d="M63.0005 562L75.2591 583H91.0005L78.719 562H63.0005Z" fill="white"/>
<path d="M103.269 562L91.0005 583H106.732L119 562H103.269Z" fill="white"/>
<path d="M91.0117 540L79.0005 562H103L91.0117 540Z" fill="white"/>
</g>
<g opacity="0.11">
<path d="M229 526L241.259 547H257L244.719 526H229Z" fill="white"/>
<path d="M269.269 526L257 547H272.732L285 526H269.269Z" fill="white"/>
<path d="M257.012 504L245 526H269L257.012 504Z" fill="white"/>
</g>
<g opacity="0.11">
<path d="M264 487L276.259 508H292L279.719 487H264Z" fill="white"/>
<path d="M304.269 487L292 508H307.732L320 487H304.269Z" fill="white"/>
<path d="M292.012 465L280 487H304L292.012 465Z" fill="white"/>
</g>
<g opacity="0.11">
<path d="M458 410L470.259 431H486L473.719 410H458Z" fill="white"/>
<path d="M498.269 410L486 431H501.732L514 410H498.269Z" fill="white"/>
<path d="M486.012 388L474 410H498L486.012 388Z" fill="white"/>
</g>
<g opacity="0.11">
<path d="M493 449L505.259 470H521L508.719 449H493Z" fill="white"/>
<path d="M533.269 449L521 470H536.732L549 449H533.269Z" fill="white"/>
<path d="M521.012 427L509 449H533L521.012 427Z" fill="white"/>
</g>
<g opacity="0.11">
<path d="M493 526L505.259 547H521L508.719 526H493Z" fill="white"/>
<path d="M533.269 526L521 547H536.732L549 526H533.269Z" fill="white"/>
<path d="M521.012 504L509 526H533L521.012 504Z" fill="white"/>
</g>
<g opacity="0.12">
<path d="M726 562L738.259 583H754L741.719 562H726Z" fill="white"/>
<path d="M766.269 562L754 583H769.732L782 562H766.269Z" fill="white"/>
<path d="M754.012 540L742 562H766L754.012 540Z" fill="white"/>
</g>
<g opacity="0.2">
<path d="M1054 487L1066.26 508H1082L1069.72 487H1054Z" fill="white"/>
<path d="M1094.27 487L1082 508H1097.73L1110 487H1094.27Z" fill="white"/>
<path d="M1082.01 465L1070 487H1094L1082.01 465Z" fill="white"/>
</g>
<g opacity="0.2">
<path d="M1516 487L1528.26 508H1544L1531.72 487H1516Z" fill="white"/>
<path d="M1556.27 487L1544 508H1559.73L1572 487H1556.27Z" fill="white"/>
<path d="M1544.01 465L1532 487H1556L1544.01 465Z" fill="white"/>
</g>
<g opacity="0.2">
<path d="M1681 449L1693.26 470H1709L1696.72 449H1681Z" fill="white"/>
<path d="M1721.27 449L1709 470H1724.73L1737 449H1721.27Z" fill="white"/>
<path d="M1709.01 427L1697 449H1721L1709.01 427Z" fill="white"/>
</g>
<g opacity="0.11">
<path d="M1681 367L1693.26 388H1709L1696.72 367H1681Z" fill="white"/>
<path d="M1721.27 367L1709 388H1724.73L1737 367H1721.27Z" fill="white"/>
<path d="M1709.01 345L1697 367H1721L1709.01 345Z" fill="white"/>
</g>
<g opacity="0.11">
<path d="M1681 600L1693.26 621H1709L1696.72 600H1681Z" fill="white"/>
<path d="M1721.27 600L1709 621H1724.73L1737 600H1721.27Z" fill="white"/>
<path d="M1709.01 578L1697 600H1721L1709.01 578Z" fill="white"/>
</g>
<g opacity="0.2">
<path d="M1681 682L1693.26 703H1709L1696.72 682H1681Z" fill="white"/>
<path d="M1721.27 682L1709 703H1724.73L1737 682H1721.27Z" fill="white"/>
<path d="M1709.01 660L1697 682H1721L1709.01 660Z" fill="white"/>
</g>
<g opacity="0.2">
<path d="M1681 758L1693.26 779H1709L1696.72 758H1681Z" fill="white"/>
<path d="M1721.27 758L1709 779H1724.73L1737 758H1721.27Z" fill="white"/>
<path d="M1709.01 736L1697 758H1721L1709.01 736Z" fill="white"/>
</g>
<g opacity="0.11">
<path d="M1615 758L1627.26 779H1643L1630.72 758H1615Z" fill="white"/>
<path d="M1655.27 758L1643 779H1658.73L1671 758H1655.27Z" fill="white"/>
<path d="M1643.01 736L1631 758H1655L1643.01 736Z" fill="white"/>
</g>
<g opacity="0.2">
<path d="M1875 758L1887.26 779H1903L1890.72 758H1875Z" fill="white"/>
<path d="M1915.27 758L1903 779H1918.73L1931 758H1915.27Z" fill="white"/>
<path d="M1903.01 736L1891 758H1915L1903.01 736Z" fill="white"/>
</g>
<g opacity="0.11">
<path d="M1284 677L1296.26 698H1312L1299.72 677H1284Z" fill="white"/>
<path d="M1324.27 677L1312 698H1327.73L1340 677H1324.27Z" fill="white"/>
<path d="M1312.01 655L1300 677H1324L1312.01 655Z" fill="white"/>
</g>
<g opacity="0.11">
<path d="M1447 639L1459.26 660H1475L1462.72 639H1447Z" fill="white"/>
<path d="M1487.27 639L1475 660H1490.73L1503 639H1487.27Z" fill="white"/>
<path d="M1475.01 617L1463 639H1487L1475.01 617Z" fill="white"/>
</g>
<g opacity="0.11">
<path d="M1054 562L1066.26 583H1082L1069.72 562H1054Z" fill="white"/>
<path d="M1094.27 562L1082 583H1097.73L1110 562H1094.27Z" fill="white"/>
<path d="M1082.01 540L1070 562H1094L1082.01 540Z" fill="white"/>
</g>
<g opacity="0.12">
<path d="M792 639L804.259 660H820L807.719 639H792Z" fill="white"/>
<path d="M832.269 639L820 660H835.732L848 639H832.269Z" fill="white"/>
<path d="M820.012 617L808 639H832L820.012 617Z" fill="white"/>
</g>
<g opacity="0.11">
<path d="M887 755L899.259 776H915L902.719 755H887Z" fill="white"/>
<path d="M927.269 755L915 776H930.732L943 755H927.269Z" fill="white"/>
<path d="M915.012 733L903 755H927L915.012 733Z" fill="white"/>
</g>
<g opacity="0.11">
<path d="M1020 832L1032.26 853H1048L1035.72 832H1020Z" fill="white"/>
<path d="M1060.27 832L1048 853H1063.73L1076 832H1060.27Z" fill="white"/>
<path d="M1048.01 810L1036 832H1060L1048.01 810Z" fill="white"/>
</g>
<g opacity="0.11">
<path d="M1020 913L1032.26 934H1048L1035.72 913H1020Z" fill="white"/>
<path d="M1060.27 913L1048 934H1063.73L1076 913H1060.27Z" fill="white"/>
<path d="M1048.01 891L1036 913H1060L1048.01 891Z" fill="white"/>
</g>
<g opacity="0.11">
<path d="M1284 986L1296.26 1007H1312L1299.72 986H1284Z" fill="white"/>
<path d="M1324.27 986L1312 1007H1327.73L1340 986H1324.27Z" fill="white"/>
<path d="M1312.01 964L1300 986H1324L1312.01 964Z" fill="white"/>
</g>
<g opacity="0.2">
<path d="M1516 946L1528.26 967H1544L1531.72 946H1516Z" fill="white"/>
<path d="M1556.27 946L1544 967H1559.73L1572 946H1556.27Z" fill="white"/>
<path d="M1544.01 924L1532 946H1556L1544.01 924Z" fill="white"/>
</g>
<g opacity="0.2">
<path d="M1544 1065L1556.26 1086H1572L1559.72 1065H1544Z" fill="white"/>
<path d="M1584.27 1065L1572 1086H1587.73L1600 1065H1584.27Z" fill="white"/>
<path d="M1572.01 1043L1560 1065H1584L1572.01 1043Z" fill="white"/>
</g>
<g opacity="0.11">
<path d="M1776 1098L1788.26 1119H1804L1791.72 1098H1776Z" fill="white"/>
<path d="M1816.27 1098L1804 1119H1819.73L1832 1098H1816.27Z" fill="white"/>
<path d="M1804.01 1076L1792 1098H1816L1804.01 1076Z" fill="white"/>
</g>
<g opacity="0.2">
<path d="M1381 1333L1393.26 1354H1409L1396.72 1333H1381Z" fill="white"/>
<path d="M1421.27 1333L1409 1354H1424.73L1437 1333H1421.27Z" fill="white"/>
<path d="M1409.01 1311L1397 1333H1421L1409.01 1311Z" fill="white"/>
</g>
<g opacity="0.11">
<path d="M1480 1295L1492.26 1316H1508L1495.72 1295H1480Z" fill="white"/>
<path d="M1520.27 1295L1508 1316H1523.73L1536 1295H1520.27Z" fill="white"/>
<path d="M1508.01 1273L1496 1295H1520L1508.01 1273Z" fill="white"/>
</g>
<g opacity="0.11">
<path d="M1284 1061L1296.26 1082H1312L1299.72 1061H1284Z" fill="white"/>
<path d="M1324.27 1061L1312 1082H1327.73L1340 1061H1324.27Z" fill="white"/>
<path d="M1312.01 1039L1300 1061H1324L1312.01 1039Z" fill="white"/>
</g>
<g opacity="0.11">
<path d="M1151 1376L1163.26 1397H1179L1166.72 1376H1151Z" fill="white"/>
<path d="M1191.27 1376L1179 1397H1194.73L1207 1376H1191.27Z" fill="white"/>
<path d="M1179.01 1354L1167 1376H1191L1179.01 1354Z" fill="white"/>
</g>
<g opacity="0.11">
<path d="M887 1376L899.259 1397H915L902.719 1376H887Z" fill="white"/>
<path d="M927.269 1376L915 1397H930.732L943 1376H927.269Z" fill="white"/>
<path d="M915.012 1354L903 1376H927L915.012 1354Z" fill="white"/>
</g>
<g opacity="0.2">
<path d="M887 1143L899.259 1164H915L902.719 1143H887Z" fill="white"/>
<path d="M927.269 1143L915 1164H930.732L943 1143H927.269Z" fill="white"/>
<path d="M915.012 1121L903 1143H927L915.012 1121Z" fill="white"/>
</g>
<g opacity="0.11">
<path d="M760 986L772.259 1007H788L775.719 986H760Z" fill="white"/>
<path d="M800.269 986L788 1007H803.732L816 986H800.269Z" fill="white"/>
<path d="M788.012 964L776 986H800L788.012 964Z" fill="white"/>
</g>
<g opacity="0.15">
<path d="M626 1061L638.259 1082H654L641.719 1061H626Z" fill="white"/>
<path d="M666.269 1061L654 1082H669.732L682 1061H666.269Z" fill="white"/>
<path d="M654.012 1039L642 1061H666L654.012 1039Z" fill="white"/>
</g>
<g opacity="0.11">
<path d="M694 1143L706.259 1164H722L709.719 1143H694Z" fill="white"/>
<path d="M734.269 1143L722 1164H737.732L750 1143H734.269Z" fill="white"/>
<path d="M722.012 1121L710 1143H734L722.012 1121Z" fill="white"/>
</g>
<g opacity="0.2">
<path d="M591 946L603.259 967H619L606.719 946H591Z" fill="white"/>
<path d="M631.269 946L619 967H634.732L647 946H631.269Z" fill="white"/>
<path d="M619.012 924L607 946H631L619.012 924Z" fill="white"/>
</g>
<g opacity="0.12">
<path d="M558 682L570.259 703H586L573.719 682H558Z" fill="white"/>
<path d="M598.269 682L586 703H601.732L614 682H598.269Z" fill="white"/>
<path d="M586.012 660L574 682H598L586.012 660Z" fill="white"/>
</g>
<g opacity="0.2">
<path d="M313 798L325.259 819H341L328.719 798H313Z" fill="white"/>
<path d="M353.269 798L341 819H356.732L369 798H353.269Z" fill="white"/>
<path d="M341.012 776L329 798H353L341.012 776Z" fill="white"/>
</g>
<g opacity="0.11">
<path d="M365 832L377.259 853H393L380.719 832H365Z" fill="white"/>
<path d="M405.269 832L393 853H408.732L421 832H405.269Z" fill="white"/>
<path d="M393.012 810L381 832H405L393.012 810Z" fill="white"/>
</g>
<g opacity="0.11">
<path d="M493 986L505.259 1007H521L508.719 986H493Z" fill="white"/>
<path d="M533.269 986L521 1007H536.732L549 986H533.269Z" fill="white"/>
<path d="M521.012 964L509 986H533L521.012 964Z" fill="white"/>
</g>
<g opacity="0.11">
<path d="M393 1259L405.259 1280H421L408.719 1259H393Z" fill="white"/>
<path d="M433.269 1259L421 1280H436.732L449 1259H433.269Z" fill="white"/>
<path d="M421.012 1237L409 1259H433L421.012 1237Z" fill="white"/>
</g>
<g opacity="0.11">
<path d="M633 1296L645.259 1317H661L648.719 1296H633Z" fill="white"/>
<path d="M673.269 1296L661 1317H676.732L689 1296H673.269Z" fill="white"/>
<path d="M661.012 1274L649 1296H673L661.012 1274Z" fill="white"/>
</g>
<g opacity="0.2">
<path d="M264 1339L276.259 1360H292L279.719 1339H264Z" fill="white"/>
<path d="M304.269 1339L292 1360H307.732L320 1339H304.269Z" fill="white"/>
<path d="M292.012 1317L280 1339H304L292.012 1317Z" fill="white"/>
</g>
<g opacity="0.11">
<path d="M264 1176L276.259 1197H292L279.719 1176H264Z" fill="white"/>
<path d="M304.269 1176L292 1197H307.732L320 1176H304.269Z" fill="white"/>
<path d="M292.012 1154L280 1176H304L292.012 1154Z" fill="white"/>
</g>
<g opacity="0.11">
<path d="M127 1176L139.259 1197H155L142.719 1176H127Z" fill="white"/>
<path d="M167.269 1176L155 1197H170.732L183 1176H167.269Z" fill="white"/>
<path d="M155.012 1154L143 1176H167L155.012 1154Z" fill="white"/>
</g>
<g opacity="0.11">
<path d="M0.000488281 1344L12.2591 1365H28.0005L15.719 1344H0.000488281Z" fill="white"/>
<path d="M40.2691 1344L28.0005 1365H43.7318L56.0005 1344H40.2691Z" fill="white"/>
<path d="M28.0117 1322L16.0005 1344H40.0005L28.0117 1322Z" fill="white"/>
</g>
<g opacity="0.2">
<path d="M67.0005 870L79.2591 891H95.0005L82.719 870H67.0005Z" fill="white"/>
<path d="M107.269 870L95.0005 891H110.732L123 870H107.269Z" fill="white"/>
<path d="M95.0117 848L83.0005 870H107L95.0117 848Z" fill="white"/>
</g>
</g>
<mask id="mask0_148_1819" style="mask-type:alpha" maskUnits="userSpaceOnUse" x="1" y="1353" width="1920" height="874">
<rect x="1920" y="2227" width="1919" height="873" transform="rotate(-180 1920 2227)" fill="url(#paint0_linear_148_1819)"/>
</mask>
<g mask="url(#mask0_148_1819)">
<g opacity="0.5">
<g opacity="0.11">
<path d="M63.0005 1618L75.2591 1639H91.0005L78.719 1618H63.0005Z" fill="white"/>
<path d="M103.269 1618L91.0005 1639H106.732L119 1618H103.269Z" fill="white"/>
<path d="M91.0117 1596L79.0005 1618H103L91.0117 1596Z" fill="white"/>
</g>
<g opacity="0.11">
<path d="M229 1582L241.259 1603H257L244.719 1582H229Z" fill="white"/>
<path d="M269.269 1582L257 1603H272.732L285 1582H269.269Z" fill="white"/>
<path d="M257.012 1560L245 1582H269L257.012 1560Z" fill="white"/>
</g>
<g opacity="0.11">
<path d="M264 1543L276.259 1564H292L279.719 1543H264Z" fill="white"/>
<path d="M304.269 1543L292 1564H307.732L320 1543H304.269Z" fill="white"/>
<path d="M292.012 1521L280 1543H304L292.012 1521Z" fill="white"/>
</g>
<g opacity="0.11">
<path d="M458 1466L470.259 1487H486L473.719 1466H458Z" fill="white"/>
<path d="M498.269 1466L486 1487H501.732L514 1466H498.269Z" fill="white"/>
<path d="M486.012 1444L474 1466H498L486.012 1444Z" fill="white"/>
</g>
<g opacity="0.11">
<path d="M493 1505L505.259 1526H521L508.719 1505H493Z" fill="white"/>
<path d="M533.269 1505L521 1526H536.732L549 1505H533.269Z" fill="white"/>
<path d="M521.012 1483L509 1505H533L521.012 1483Z" fill="white"/>
</g>
<g opacity="0.11">
<path d="M493 1582L505.259 1603H521L508.719 1582H493Z" fill="white"/>
<path d="M533.269 1582L521 1603H536.732L549 1582H533.269Z" fill="white"/>
<path d="M521.012 1560L509 1582H533L521.012 1560Z" fill="white"/>
</g>
<g opacity="0.12">
<path d="M726 1618L738.259 1639H754L741.719 1618H726Z" fill="white"/>
<path d="M766.269 1618L754 1639H769.732L782 1618H766.269Z" fill="white"/>
<path d="M754.012 1596L742 1618H766L754.012 1596Z" fill="white"/>
</g>
<g opacity="0.2">
<path d="M1054 1543L1066.26 1564H1082L1069.72 1543H1054Z" fill="white"/>
<path d="M1094.27 1543L1082 1564H1097.73L1110 1543H1094.27Z" fill="white"/>
<path d="M1082.01 1521L1070 1543H1094L1082.01 1521Z" fill="white"/>
</g>
<g opacity="0.2">
<path d="M1516 1543L1528.26 1564H1544L1531.72 1543H1516Z" fill="white"/>
<path d="M1556.27 1543L1544 1564H1559.73L1572 1543H1556.27Z" fill="white"/>
<path d="M1544.01 1521L1532 1543H1556L1544.01 1521Z" fill="white"/>
</g>
<g opacity="0.2">
<path d="M1681 1505L1693.26 1526H1709L1696.72 1505H1681Z" fill="white"/>
<path d="M1721.27 1505L1709 1526H1724.73L1737 1505H1721.27Z" fill="white"/>
<path d="M1709.01 1483L1697 1505H1721L1709.01 1483Z" fill="white"/>
</g>
<g opacity="0.11">
<path d="M1681 1423L1693.26 1444H1709L1696.72 1423H1681Z" fill="white"/>
<path d="M1721.27 1423L1709 1444H1724.73L1737 1423H1721.27Z" fill="white"/>
<path d="M1709.01 1401L1697 1423H1721L1709.01 1401Z" fill="white"/>
</g>
<g opacity="0.11">
<path d="M1681 1656L1693.26 1677H1709L1696.72 1656H1681Z" fill="white"/>
<path d="M1721.27 1656L1709 1677H1724.73L1737 1656H1721.27Z" fill="white"/>
<path d="M1709.01 1634L1697 1656H1721L1709.01 1634Z" fill="white"/>
</g>
<g opacity="0.2">
<path d="M1681 1738L1693.26 1759H1709L1696.72 1738H1681Z" fill="white"/>
<path d="M1721.27 1738L1709 1759H1724.73L1737 1738H1721.27Z" fill="white"/>
<path d="M1709.01 1716L1697 1738H1721L1709.01 1716Z" fill="white"/>
</g>
<g opacity="0.2">
<path d="M1681 1814L1693.26 1835H1709L1696.72 1814H1681Z" fill="white"/>
<path d="M1721.27 1814L1709 1835H1724.73L1737 1814H1721.27Z" fill="white"/>
<path d="M1709.01 1792L1697 1814H1721L1709.01 1792Z" fill="white"/>
</g>
<g opacity="0.11">
<path d="M1615 1814L1627.26 1835H1643L1630.72 1814H1615Z" fill="white"/>
<path d="M1655.27 1814L1643 1835H1658.73L1671 1814H1655.27Z" fill="white"/>
<path d="M1643.01 1792L1631 1814H1655L1643.01 1792Z" fill="white"/>
</g>
<g opacity="0.2">
<path d="M1875 1814L1887.26 1835H1903L1890.72 1814H1875Z" fill="white"/>
<path d="M1915.27 1814L1903 1835H1918.73L1931 1814H1915.27Z" fill="white"/>
<path d="M1903.01 1792L1891 1814H1915L1903.01 1792Z" fill="white"/>
</g>
<g opacity="0.11">
<path d="M1284 1733L1296.26 1754H1312L1299.72 1733H1284Z" fill="white"/>
<path d="M1324.27 1733L1312 1754H1327.73L1340 1733H1324.27Z" fill="white"/>
<path d="M1312.01 1711L1300 1733H1324L1312.01 1711Z" fill="white"/>
</g>
<g opacity="0.11">
<path d="M1447 1695L1459.26 1716H1475L1462.72 1695H1447Z" fill="white"/>
<path d="M1487.27 1695L1475 1716H1490.73L1503 1695H1487.27Z" fill="white"/>
<path d="M1475.01 1673L1463 1695H1487L1475.01 1673Z" fill="white"/>
</g>
<g opacity="0.11">
<path d="M1054 1618L1066.26 1639H1082L1069.72 1618H1054Z" fill="white"/>
<path d="M1094.27 1618L1082 1639H1097.73L1110 1618H1094.27Z" fill="white"/>
<path d="M1082.01 1596L1070 1618H1094L1082.01 1596Z" fill="white"/>
</g>
<g opacity="0.12">
<path d="M792 1695L804.259 1716H820L807.719 1695H792Z" fill="white"/>
<path d="M832.269 1695L820 1716H835.732L848 1695H832.269Z" fill="white"/>
<path d="M820.012 1673L808 1695H832L820.012 1673Z" fill="white"/>
</g>
<g opacity="0.11">
<path d="M887 1811L899.259 1832H915L902.719 1811H887Z" fill="white"/>
<path d="M927.269 1811L915 1832H930.732L943 1811H927.269Z" fill="white"/>
<path d="M915.012 1789L903 1811H927L915.012 1789Z" fill="white"/>
</g>
<g opacity="0.11">
<path d="M1020 1888L1032.26 1909H1048L1035.72 1888H1020Z" fill="white"/>
<path d="M1060.27 1888L1048 1909H1063.73L1076 1888H1060.27Z" fill="white"/>
<path d="M1048.01 1866L1036 1888H1060L1048.01 1866Z" fill="white"/>
</g>
<g opacity="0.11">
<path d="M1020 1969L1032.26 1990H1048L1035.72 1969H1020Z" fill="white"/>
<path d="M1060.27 1969L1048 1990H1063.73L1076 1969H1060.27Z" fill="white"/>
<path d="M1048.01 1947L1036 1969H1060L1048.01 1947Z" fill="white"/>
</g>
<g opacity="0.11">
<path d="M1284 2042L1296.26 2063H1312L1299.72 2042H1284Z" fill="white"/>
<path d="M1324.27 2042L1312 2063H1327.73L1340 2042H1324.27Z" fill="white"/>
<path d="M1312.01 2020L1300 2042H1324L1312.01 2020Z" fill="white"/>
</g>
<g opacity="0.2">
<path d="M1516 2002L1528.26 2023H1544L1531.72 2002H1516Z" fill="white"/>
<path d="M1556.27 2002L1544 2023H1559.73L1572 2002H1556.27Z" fill="white"/>
<path d="M1544.01 1980L1532 2002H1556L1544.01 1980Z" fill="white"/>
</g>
<g opacity="0.2">
<path d="M1544 2121L1556.26 2142H1572L1559.72 2121H1544Z" fill="white"/>
<path d="M1584.27 2121L1572 2142H1587.73L1600 2121H1584.27Z" fill="white"/>
<path d="M1572.01 2099L1560 2121H1584L1572.01 2099Z" fill="white"/>
</g>
<g opacity="0.11">
<path d="M1776 2154L1788.26 2175H1804L1791.72 2154H1776Z" fill="white"/>
<path d="M1816.27 2154L1804 2175H1819.73L1832 2154H1816.27Z" fill="white"/>
<path d="M1804.01 2132L1792 2154H1816L1804.01 2132Z" fill="white"/>
</g>
<g opacity="0.11">
<path d="M1284 2117L1296.26 2138H1312L1299.72 2117H1284Z" fill="white"/>
<path d="M1324.27 2117L1312 2138H1327.73L1340 2117H1324.27Z" fill="white"/>
<path d="M1312.01 2095L1300 2117H1324L1312.01 2095Z" fill="white"/>
</g>
<g opacity="0.2">
<path d="M887 2199L899.259 2220H915L902.719 2199H887Z" fill="white"/>
<path d="M927.269 2199L915 2220H930.732L943 2199H927.269Z" fill="white"/>
<path d="M915.012 2177L903 2199H927L915.012 2177Z" fill="white"/>
</g>
<g opacity="0.11">
<path d="M760 2042L772.259 2063H788L775.719 2042H760Z" fill="white"/>
<path d="M800.269 2042L788 2063H803.732L816 2042H800.269Z" fill="white"/>
<path d="M788.012 2020L776 2042H800L788.012 2020Z" fill="white"/>
</g>
<g opacity="0.15">
<path d="M626 2117L638.259 2138H654L641.719 2117H626Z" fill="white"/>
<path d="M666.269 2117L654 2138H669.732L682 2117H666.269Z" fill="white"/>
<path d="M654.012 2095L642 2117H666L654.012 2095Z" fill="white"/>
</g>
<g opacity="0.11">
<path d="M694 2199L706.259 2220H722L709.719 2199H694Z" fill="white"/>
<path d="M734.269 2199L722 2220H737.732L750 2199H734.269Z" fill="white"/>
<path d="M722.012 2177L710 2199H734L722.012 2177Z" fill="white"/>
</g>
<g opacity="0.2">
<path d="M591 2002L603.259 2023H619L606.719 2002H591Z" fill="white"/>
<path d="M631.269 2002L619 2023H634.732L647 2002H631.269Z" fill="white"/>
<path d="M619.012 1980L607 2002H631L619.012 1980Z" fill="white"/>
</g>
<g opacity="0.12">
<path d="M558 1738L570.259 1759H586L573.719 1738H558Z" fill="white"/>
<path d="M598.269 1738L586 1759H601.732L614 1738H598.269Z" fill="white"/>
<path d="M586.012 1716L574 1738H598L586.012 1716Z" fill="white"/>
</g>
<g opacity="0.2">
<path d="M313 1854L325.259 1875H341L328.719 1854H313Z" fill="white"/>
<path d="M353.269 1854L341 1875H356.732L369 1854H353.269Z" fill="white"/>
<path d="M341.012 1832L329 1854H353L341.012 1832Z" fill="white"/>
</g>
<g opacity="0.11">
<path d="M365 1888L377.259 1909H393L380.719 1888H365Z" fill="white"/>
<path d="M405.269 1888L393 1909H408.732L421 1888H405.269Z" fill="white"/>
<path d="M393.012 1866L381 1888H405L393.012 1866Z" fill="white"/>
</g>
<g opacity="0.11">
<path d="M493 2042L505.259 2063H521L508.719 2042H493Z" fill="white"/>
<path d="M533.269 2042L521 2063H536.732L549 2042H533.269Z" fill="white"/>
<path d="M521.012 2020L509 2042H533L521.012 2020Z" fill="white"/>
</g>
<g opacity="0.11">
<path d="M292.012 2210L280 2232H304L292.012 2210Z" fill="white"/>
</g>
<g opacity="0.11">
<path d="M155.012 2210L143 2232H167L155.012 2210Z" fill="white"/>
</g>
<g opacity="0.2">
<path d="M67.0005 1926L79.2591 1947H95.0005L82.719 1926H67.0005Z" fill="white"/>
<path d="M107.269 1926L95.0005 1947H110.732L123 1926H107.269Z" fill="white"/>
<path d="M95.0117 1904L83.0005 1926H107L95.0117 1904Z" fill="white"/>
</g>
</g>
</g>
<mask id="mask1_148_1819" style="mask-type:alpha" maskUnits="userSpaceOnUse" x="1" y="3297" width="1920" height="874">
<rect x="1920" y="4171" width="1919" height="873" transform="rotate(-180 1920 4171)" fill="url(#paint1_linear_148_1819)"/>
</mask>
<g mask="url(#mask1_148_1819)">
<g opacity="0.5">
<g opacity="0.11">
<path d="M63.0005 3562L75.2591 3583H91.0005L78.719 3562H63.0005Z" fill="white"/>
<path d="M103.269 3562L91.0005 3583H106.732L119 3562H103.269Z" fill="white"/>
<path d="M91.0117 3540L79.0005 3562H103L91.0117 3540Z" fill="white"/>
</g>
<g opacity="0.11">
<path d="M229 3526L241.259 3547H257L244.719 3526H229Z" fill="white"/>
<path d="M269.269 3526L257 3547H272.732L285 3526H269.269Z" fill="white"/>
<path d="M257.012 3504L245 3526H269L257.012 3504Z" fill="white"/>
</g>
<g opacity="0.11">
<path d="M264 3487L276.259 3508H292L279.719 3487H264Z" fill="white"/>
<path d="M304.269 3487L292 3508H307.732L320 3487H304.269Z" fill="white"/>
<path d="M292.012 3465L280 3487H304L292.012 3465Z" fill="white"/>
</g>
<g opacity="0.11">
<path d="M458 3410L470.259 3431H486L473.719 3410H458Z" fill="white"/>
<path d="M498.269 3410L486 3431H501.732L514 3410H498.269Z" fill="white"/>
<path d="M486.012 3388L474 3410H498L486.012 3388Z" fill="white"/>
</g>
<g opacity="0.11">
<path d="M493 3449L505.259 3470H521L508.719 3449H493Z" fill="white"/>
<path d="M533.269 3449L521 3470H536.732L549 3449H533.269Z" fill="white"/>
<path d="M521.012 3427L509 3449H533L521.012 3427Z" fill="white"/>
</g>
<g opacity="0.11">
<path d="M493 3526L505.259 3547H521L508.719 3526H493Z" fill="white"/>
<path d="M533.269 3526L521 3547H536.732L549 3526H533.269Z" fill="white"/>
<path d="M521.012 3504L509 3526H533L521.012 3504Z" fill="white"/>
</g>
<g opacity="0.12">
<path d="M726 3562L738.259 3583H754L741.719 3562H726Z" fill="white"/>
<path d="M766.269 3562L754 3583H769.732L782 3562H766.269Z" fill="white"/>
<path d="M754.012 3540L742 3562H766L754.012 3540Z" fill="white"/>
</g>
<g opacity="0.2">
<path d="M1054 3487L1066.26 3508H1082L1069.72 3487H1054Z" fill="white"/>
<path d="M1094.27 3487L1082 3508H1097.73L1110 3487H1094.27Z" fill="white"/>
<path d="M1082.01 3465L1070 3487H1094L1082.01 3465Z" fill="white"/>
</g>
<g opacity="0.2">
<path d="M1516 3487L1528.26 3508H1544L1531.72 3487H1516Z" fill="white"/>
<path d="M1556.27 3487L1544 3508H1559.73L1572 3487H1556.27Z" fill="white"/>
<path d="M1544.01 3465L1532 3487H1556L1544.01 3465Z" fill="white"/>
</g>
<g opacity="0.2">
<path d="M1681 3449L1693.26 3470H1709L1696.72 3449H1681Z" fill="white"/>
<path d="M1721.27 3449L1709 3470H1724.73L1737 3449H1721.27Z" fill="white"/>
<path d="M1709.01 3427L1697 3449H1721L1709.01 3427Z" fill="white"/>
</g>
<g opacity="0.11">
<path d="M1681 3367L1693.26 3388H1709L1696.72 3367H1681Z" fill="white"/>
<path d="M1721.27 3367L1709 3388H1724.73L1737 3367H1721.27Z" fill="white"/>
<path d="M1709.01 3345L1697 3367H1721L1709.01 3345Z" fill="white"/>
</g>
<g opacity="0.11">
<path d="M1681 3600L1693.26 3621H1709L1696.72 3600H1681Z" fill="white"/>
<path d="M1721.27 3600L1709 3621H1724.73L1737 3600H1721.27Z" fill="white"/>
<path d="M1709.01 3578L1697 3600H1721L1709.01 3578Z" fill="white"/>
</g>
<g opacity="0.2">
<path d="M1681 3682L1693.26 3703H1709L1696.72 3682H1681Z" fill="white"/>
<path d="M1721.27 3682L1709 3703H1724.73L1737 3682H1721.27Z" fill="white"/>
<path d="M1709.01 3660L1697 3682H1721L1709.01 3660Z" fill="white"/>
</g>
<g opacity="0.2">
<path d="M1681 3758L1693.26 3779H1709L1696.72 3758H1681Z" fill="white"/>
<path d="M1721.27 3758L1709 3779H1724.73L1737 3758H1721.27Z" fill="white"/>
<path d="M1709.01 3736L1697 3758H1721L1709.01 3736Z" fill="white"/>
</g>
<g opacity="0.11">
<path d="M1615 3758L1627.26 3779H1643L1630.72 3758H1615Z" fill="white"/>
<path d="M1655.27 3758L1643 3779H1658.73L1671 3758H1655.27Z" fill="white"/>
<path d="M1643.01 3736L1631 3758H1655L1643.01 3736Z" fill="white"/>
</g>
<g opacity="0.2">
<path d="M1875 3758L1887.26 3779H1903L1890.72 3758H1875Z" fill="white"/>
<path d="M1915.27 3758L1903 3779H1918.73L1931 3758H1915.27Z" fill="white"/>
<path d="M1903.01 3736L1891 3758H1915L1903.01 3736Z" fill="white"/>
</g>
<g opacity="0.11">
<path d="M1284 3677L1296.26 3698H1312L1299.72 3677H1284Z" fill="white"/>
<path d="M1324.27 3677L1312 3698H1327.73L1340 3677H1324.27Z" fill="white"/>
<path d="M1312.01 3655L1300 3677H1324L1312.01 3655Z" fill="white"/>
</g>
<g opacity="0.11">
<path d="M1447 3639L1459.26 3660H1475L1462.72 3639H1447Z" fill="white"/>
<path d="M1487.27 3639L1475 3660H1490.73L1503 3639H1487.27Z" fill="white"/>
<path d="M1475.01 3617L1463 3639H1487L1475.01 3617Z" fill="white"/>
</g>
<g opacity="0.11">
<path d="M1054 3562L1066.26 3583H1082L1069.72 3562H1054Z" fill="white"/>
<path d="M1094.27 3562L1082 3583H1097.73L1110 3562H1094.27Z" fill="white"/>
<path d="M1082.01 3540L1070 3562H1094L1082.01 3540Z" fill="white"/>
</g>
<g opacity="0.12">
<path d="M792 3639L804.259 3660H820L807.719 3639H792Z" fill="white"/>
<path d="M832.269 3639L820 3660H835.732L848 3639H832.269Z" fill="white"/>
<path d="M820.012 3617L808 3639H832L820.012 3617Z" fill="white"/>
</g>
<g opacity="0.11">
<path d="M887 3755L899.259 3776H915L902.719 3755H887Z" fill="white"/>
<path d="M927.269 3755L915 3776H930.732L943 3755H927.269Z" fill="white"/>
<path d="M915.012 3733L903 3755H927L915.012 3733Z" fill="white"/>
</g>
<g opacity="0.11">
<path d="M1020 3832L1032.26 3853H1048L1035.72 3832H1020Z" fill="white"/>
<path d="M1060.27 3832L1048 3853H1063.73L1076 3832H1060.27Z" fill="white"/>
<path d="M1048.01 3810L1036 3832H1060L1048.01 3810Z" fill="white"/>
</g>
<g opacity="0.11">
<path d="M1020 3913L1032.26 3934H1048L1035.72 3913H1020Z" fill="white"/>
<path d="M1060.27 3913L1048 3934H1063.73L1076 3913H1060.27Z" fill="white"/>
<path d="M1048.01 3891L1036 3913H1060L1048.01 3891Z" fill="white"/>
</g>
<g opacity="0.11">
<path d="M1284 3986L1296.26 4007H1312L1299.72 3986H1284Z" fill="white"/>
<path d="M1324.27 3986L1312 4007H1327.73L1340 3986H1324.27Z" fill="white"/>
<path d="M1312.01 3964L1300 3986H1324L1312.01 3964Z" fill="white"/>
</g>
<g opacity="0.2">
<path d="M1516 3946L1528.26 3967H1544L1531.72 3946H1516Z" fill="white"/>
<path d="M1556.27 3946L1544 3967H1559.73L1572 3946H1556.27Z" fill="white"/>
<path d="M1544.01 3924L1532 3946H1556L1544.01 3924Z" fill="white"/>
</g>
<g opacity="0.2">
<path d="M1544 4065L1556.26 4086H1572L1559.72 4065H1544Z" fill="white"/>
<path d="M1584.27 4065L1572 4086H1587.73L1600 4065H1584.27Z" fill="white"/>
<path d="M1572.01 4043L1560 4065H1584L1572.01 4043Z" fill="white"/>
</g>
<g opacity="0.11">
<path d="M1776 4098L1788.26 4119H1804L1791.72 4098H1776Z" fill="white"/>
<path d="M1816.27 4098L1804 4119H1819.73L1832 4098H1816.27Z" fill="white"/>
<path d="M1804.01 4076L1792 4098H1816L1804.01 4076Z" fill="white"/>
</g>
<g opacity="0.11">
<path d="M1284 4061L1296.26 4082H1312L1299.72 4061H1284Z" fill="white"/>
<path d="M1324.27 4061L1312 4082H1327.73L1340 4061H1324.27Z" fill="white"/>
<path d="M1312.01 4039L1300 4061H1324L1312.01 4039Z" fill="white"/>
</g>
<g opacity="0.2">
<path d="M887 4143L899.259 4164H915L902.719 4143H887Z" fill="white"/>
<path d="M927.269 4143L915 4164H930.732L943 4143H927.269Z" fill="white"/>
<path d="M915.012 4121L903 4143H927L915.012 4121Z" fill="white"/>
</g>
<g opacity="0.11">
<path d="M760 3986L772.259 4007H788L775.719 3986H760Z" fill="white"/>
<path d="M800.269 3986L788 4007H803.732L816 3986H800.269Z" fill="white"/>
<path d="M788.012 3964L776 3986H800L788.012 3964Z" fill="white"/>
</g>
<g opacity="0.15">
<path d="M626 4061L638.259 4082H654L641.719 4061H626Z" fill="white"/>
<path d="M666.269 4061L654 4082H669.732L682 4061H666.269Z" fill="white"/>
<path d="M654.012 4039L642 4061H666L654.012 4039Z" fill="white"/>
</g>
<g opacity="0.11">
<path d="M694 4143L706.259 4164H722L709.719 4143H694Z" fill="white"/>
<path d="M734.269 4143L722 4164H737.732L750 4143H734.269Z" fill="white"/>
<path d="M722.012 4121L710 4143H734L722.012 4121Z" fill="white"/>
</g>
<g opacity="0.2">
<path d="M591 3946L603.259 3967H619L606.719 3946H591Z" fill="white"/>
<path d="M631.269 3946L619 3967H634.732L647 3946H631.269Z" fill="white"/>
<path d="M619.012 3924L607 3946H631L619.012 3924Z" fill="white"/>
</g>
<g opacity="0.12">
<path d="M558 3682L570.259 3703H586L573.719 3682H558Z" fill="white"/>
<path d="M598.269 3682L586 3703H601.732L614 3682H598.269Z" fill="white"/>
<path d="M586.012 3660L574 3682H598L586.012 3660Z" fill="white"/>
</g>
<g opacity="0.2">
<path d="M313 3798L325.259 3819H341L328.719 3798H313Z" fill="white"/>
<path d="M353.269 3798L341 3819H356.732L369 3798H353.269Z" fill="white"/>
<path d="M341.012 3776L329 3798H353L341.012 3776Z" fill="white"/>
</g>
<g opacity="0.11">
<path d="M365 3832L377.259 3853H393L380.719 3832H365Z" fill="white"/>
<path d="M405.269 3832L393 3853H408.732L421 3832H405.269Z" fill="white"/>
<path d="M393.012 3810L381 3832H405L393.012 3810Z" fill="white"/>
</g>
<g opacity="0.11">
<path d="M493 3986L505.259 4007H521L508.719 3986H493Z" fill="white"/>
<path d="M533.269 3986L521 4007H536.732L549 3986H533.269Z" fill="white"/>
<path d="M521.012 3964L509 3986H533L521.012 3964Z" fill="white"/>
</g>
<g opacity="0.11">
<path d="M292.012 4154L280 4176H304L292.012 4154Z" fill="white"/>
</g>
<g opacity="0.11">
<path d="M155.012 4154L143 4176H167L155.012 4154Z" fill="white"/>
</g>
<g opacity="0.2">
<path d="M67.0005 3870L79.2591 3891H95.0005L82.719 3870H67.0005Z" fill="white"/>
<path d="M107.269 3870L95.0005 3891H110.732L123 3870H107.269Z" fill="white"/>
<path d="M95.0117 3848L83.0005 3870H107L95.0117 3848Z" fill="white"/>
</g>
</g>
</g>
<mask id="mask2_148_1819" style="mask-type:alpha" maskUnits="userSpaceOnUse" x="1" y="4886" width="1920" height="873">
<rect x="1920" y="5759" width="1919" height="873" transform="rotate(-180 1920 5759)" fill="url(#paint2_linear_148_1819)"/>
</mask>
<g mask="url(#mask2_148_1819)">
<g opacity="0.5">
<g opacity="0.11">
<path d="M63.0005 5150L75.2591 5171H91.0005L78.719 5150H63.0005Z" fill="white"/>
<path d="M103.269 5150L91.0005 5171H106.732L119 5150H103.269Z" fill="white"/>
<path d="M91.0117 5128L79.0005 5150H103L91.0117 5128Z" fill="white"/>
</g>
<g opacity="0.11">
<path d="M229 5114L241.259 5135H257L244.719 5114H229Z" fill="white"/>
<path d="M269.269 5114L257 5135H272.732L285 5114H269.269Z" fill="white"/>
<path d="M257.012 5092L245 5114H269L257.012 5092Z" fill="white"/>
</g>
<g opacity="0.11">
<path d="M264 5075L276.259 5096H292L279.719 5075H264Z" fill="white"/>
<path d="M304.269 5075L292 5096H307.732L320 5075H304.269Z" fill="white"/>
<path d="M292.012 5053L280 5075H304L292.012 5053Z" fill="white"/>
</g>
<g opacity="0.11">
<path d="M458 4998L470.259 5019H486L473.719 4998H458Z" fill="white"/>
<path d="M498.269 4998L486 5019H501.732L514 4998H498.269Z" fill="white"/>
<path d="M486.012 4976L474 4998H498L486.012 4976Z" fill="white"/>
</g>
<g opacity="0.11">
<path d="M493 5037L505.259 5058H521L508.719 5037H493Z" fill="white"/>
<path d="M533.269 5037L521 5058H536.732L549 5037H533.269Z" fill="white"/>
<path d="M521.012 5015L509 5037H533L521.012 5015Z" fill="white"/>
</g>
<g opacity="0.11">
<path d="M493 5114L505.259 5135H521L508.719 5114H493Z" fill="white"/>
<path d="M533.269 5114L521 5135H536.732L549 5114H533.269Z" fill="white"/>
<path d="M521.012 5092L509 5114H533L521.012 5092Z" fill="white"/>
</g>
<g opacity="0.12">
<path d="M726 5150L738.259 5171H754L741.719 5150H726Z" fill="white"/>
<path d="M766.269 5150L754 5171H769.732L782 5150H766.269Z" fill="white"/>
<path d="M754.012 5128L742 5150H766L754.012 5128Z" fill="white"/>
</g>
<g opacity="0.2">
<path d="M1054 5075L1066.26 5096H1082L1069.72 5075H1054Z" fill="white"/>
<path d="M1094.27 5075L1082 5096H1097.73L1110 5075H1094.27Z" fill="white"/>
<path d="M1082.01 5053L1070 5075H1094L1082.01 5053Z" fill="white"/>
</g>
<g opacity="0.2">
<path d="M1516 5075L1528.26 5096H1544L1531.72 5075H1516Z" fill="white"/>
<path d="M1556.27 5075L1544 5096H1559.73L1572 5075H1556.27Z" fill="white"/>
<path d="M1544.01 5053L1532 5075H1556L1544.01 5053Z" fill="white"/>
</g>
<g opacity="0.2">
<path d="M1681 5037L1693.26 5058H1709L1696.72 5037H1681Z" fill="white"/>
<path d="M1721.27 5037L1709 5058H1724.73L1737 5037H1721.27Z" fill="white"/>
<path d="M1709.01 5015L1697 5037H1721L1709.01 5015Z" fill="white"/>
</g>
<g opacity="0.11">
<path d="M1681 4955L1693.26 4976H1709L1696.72 4955H1681Z" fill="white"/>
<path d="M1721.27 4955L1709 4976H1724.73L1737 4955H1721.27Z" fill="white"/>
<path d="M1709.01 4933L1697 4955H1721L1709.01 4933Z" fill="white"/>
</g>
<g opacity="0.11">
<path d="M1681 5188L1693.26 5209H1709L1696.72 5188H1681Z" fill="white"/>
<path d="M1721.27 5188L1709 5209H1724.73L1737 5188H1721.27Z" fill="white"/>
<path d="M1709.01 5166L1697 5188H1721L1709.01 5166Z" fill="white"/>
</g>
<g opacity="0.2">
<path d="M1681 5270L1693.26 5291H1709L1696.72 5270H1681Z" fill="white"/>
<path d="M1721.27 5270L1709 5291H1724.73L1737 5270H1721.27Z" fill="white"/>
<path d="M1709.01 5248L1697 5270H1721L1709.01 5248Z" fill="white"/>
</g>
<g opacity="0.2">
<path d="M1681 5346L1693.26 5367H1709L1696.72 5346H1681Z" fill="white"/>
<path d="M1721.27 5346L1709 5367H1724.73L1737 5346H1721.27Z" fill="white"/>
<path d="M1709.01 5324L1697 5346H1721L1709.01 5324Z" fill="white"/>
</g>
<g opacity="0.11">
<path d="M1615 5346L1627.26 5367H1643L1630.72 5346H1615Z" fill="white"/>
<path d="M1655.27 5346L1643 5367H1658.73L1671 5346H1655.27Z" fill="white"/>
<path d="M1643.01 5324L1631 5346H1655L1643.01 5324Z" fill="white"/>
</g>
<g opacity="0.2">
<path d="M1875 5346L1887.26 5367H1903L1890.72 5346H1875Z" fill="white"/>
<path d="M1915.27 5346L1903 5367H1918.73L1931 5346H1915.27Z" fill="white"/>
<path d="M1903.01 5324L1891 5346H1915L1903.01 5324Z" fill="white"/>
</g>
<g opacity="0.11">
<path d="M1284 5265L1296.26 5286H1312L1299.72 5265H1284Z" fill="white"/>
<path d="M1324.27 5265L1312 5286H1327.73L1340 5265H1324.27Z" fill="white"/>
<path d="M1312.01 5243L1300 5265H1324L1312.01 5243Z" fill="white"/>
</g>
<g opacity="0.11">
<path d="M1447 5227L1459.26 5248H1475L1462.72 5227H1447Z" fill="white"/>
<path d="M1487.27 5227L1475 5248H1490.73L1503 5227H1487.27Z" fill="white"/>
<path d="M1475.01 5205L1463 5227H1487L1475.01 5205Z" fill="white"/>
</g>
<g opacity="0.11">
<path d="M1054 5150L1066.26 5171H1082L1069.72 5150H1054Z" fill="white"/>
<path d="M1094.27 5150L1082 5171H1097.73L1110 5150H1094.27Z" fill="white"/>
<path d="M1082.01 5128L1070 5150H1094L1082.01 5128Z" fill="white"/>
</g>
<g opacity="0.12">
<path d="M792 5227L804.259 5248H820L807.719 5227H792Z" fill="white"/>
<path d="M832.269 5227L820 5248H835.732L848 5227H832.269Z" fill="white"/>
<path d="M820.012 5205L808 5227H832L820.012 5205Z" fill="white"/>
</g>
<g opacity="0.11">
<path d="M887 5343L899.259 5364H915L902.719 5343H887Z" fill="white"/>
<path d="M927.269 5343L915 5364H930.732L943 5343H927.269Z" fill="white"/>
<path d="M915.012 5321L903 5343H927L915.012 5321Z" fill="white"/>
</g>
<g opacity="0.11">
<path d="M1020 5420L1032.26 5441H1048L1035.72 5420H1020Z" fill="white"/>
<path d="M1060.27 5420L1048 5441H1063.73L1076 5420H1060.27Z" fill="white"/>
<path d="M1048.01 5398L1036 5420H1060L1048.01 5398Z" fill="white"/>
</g>
<g opacity="0.11">
<path d="M1020 5501L1032.26 5522H1048L1035.72 5501H1020Z" fill="white"/>
<path d="M1060.27 5501L1048 5522H1063.73L1076 5501H1060.27Z" fill="white"/>
<path d="M1048.01 5479L1036 5501H1060L1048.01 5479Z" fill="white"/>
</g>
<g opacity="0.11">
<path d="M1284 5574L1296.26 5595H1312L1299.72 5574H1284Z" fill="white"/>
<path d="M1324.27 5574L1312 5595H1327.73L1340 5574H1324.27Z" fill="white"/>
<path d="M1312.01 5552L1300 5574H1324L1312.01 5552Z" fill="white"/>
</g>
<g opacity="0.2">
<path d="M1516 5534L1528.26 5555H1544L1531.72 5534H1516Z" fill="white"/>
<path d="M1556.27 5534L1544 5555H1559.73L1572 5534H1556.27Z" fill="white"/>
<path d="M1544.01 5512L1532 5534H1556L1544.01 5512Z" fill="white"/>
</g>
<g opacity="0.2">
<path d="M1544 5653L1556.26 5674H1572L1559.72 5653H1544Z" fill="white"/>
<path d="M1584.27 5653L1572 5674H1587.73L1600 5653H1584.27Z" fill="white"/>
<path d="M1572.01 5631L1560 5653H1584L1572.01 5631Z" fill="white"/>
</g>
<g opacity="0.11">
<path d="M1776 5686L1788.26 5707H1804L1791.72 5686H1776Z" fill="white"/>
<path d="M1816.27 5686L1804 5707H1819.73L1832 5686H1816.27Z" fill="white"/>
<path d="M1804.01 5664L1792 5686H1816L1804.01 5664Z" fill="white"/>
</g>
<g opacity="0.11">
<path d="M1284 5649L1296.26 5670H1312L1299.72 5649H1284Z" fill="white"/>
<path d="M1324.27 5649L1312 5670H1327.73L1340 5649H1324.27Z" fill="white"/>
<path d="M1312.01 5627L1300 5649H1324L1312.01 5627Z" fill="white"/>
</g>
<g opacity="0.2">
<path d="M887 5731L899.259 5752H915L902.719 5731H887Z" fill="white"/>
<path d="M927.269 5731L915 5752H930.732L943 5731H927.269Z" fill="white"/>
<path d="M915.012 5709L903 5731H927L915.012 5709Z" fill="white"/>
</g>
<g opacity="0.11">
<path d="M760 5574L772.259 5595H788L775.719 5574H760Z" fill="white"/>
<path d="M800.269 5574L788 5595H803.732L816 5574H800.269Z" fill="white"/>
<path d="M788.012 5552L776 5574H800L788.012 5552Z" fill="white"/>
</g>
<g opacity="0.15">
<path d="M626 5649L638.259 5670H654L641.719 5649H626Z" fill="white"/>
<path d="M666.269 5649L654 5670H669.732L682 5649H666.269Z" fill="white"/>
<path d="M654.012 5627L642 5649H666L654.012 5627Z" fill="white"/>
</g>
<g opacity="0.11">
<path d="M694 5731L706.259 5752H722L709.719 5731H694Z" fill="white"/>
<path d="M734.269 5731L722 5752H737.732L750 5731H734.269Z" fill="white"/>
<path d="M722.012 5709L710 5731H734L722.012 5709Z" fill="white"/>
</g>
<g opacity="0.2">
<path d="M591 5534L603.259 5555H619L606.719 5534H591Z" fill="white"/>
<path d="M631.269 5534L619 5555H634.732L647 5534H631.269Z" fill="white"/>
<path d="M619.012 5512L607 5534H631L619.012 5512Z" fill="white"/>
</g>
<g opacity="0.12">
<path d="M558 5270L570.259 5291H586L573.719 5270H558Z" fill="white"/>
<path d="M598.269 5270L586 5291H601.732L614 5270H598.269Z" fill="white"/>
<path d="M586.012 5248L574 5270H598L586.012 5248Z" fill="white"/>
</g>
<g opacity="0.2">
<path d="M313 5386L325.259 5407H341L328.719 5386H313Z" fill="white"/>
<path d="M353.269 5386L341 5407H356.732L369 5386H353.269Z" fill="white"/>
<path d="M341.012 5364L329 5386H353L341.012 5364Z" fill="white"/>
</g>
<g opacity="0.11">
<path d="M365 5420L377.259 5441H393L380.719 5420H365Z" fill="white"/>
<path d="M405.269 5420L393 5441H408.732L421 5420H405.269Z" fill="white"/>
<path d="M393.012 5398L381 5420H405L393.012 5398Z" fill="white"/>
</g>
<g opacity="0.11">
<path d="M493 5574L505.259 5595H521L508.719 5574H493Z" fill="white"/>
<path d="M533.269 5574L521 5595H536.732L549 5574H533.269Z" fill="white"/>
<path d="M521.012 5552L509 5574H533L521.012 5552Z" fill="white"/>
</g>
<g opacity="0.11">
<path d="M292.012 5742L280 5764H304L292.012 5742Z" fill="white"/>
</g>
<g opacity="0.11">
<path d="M155.012 5742L143 5764H167L155.012 5742Z" fill="white"/>
</g>
<g opacity="0.2">
<path d="M67.0005 5458L79.2591 5479H95.0005L82.719 5458H67.0005Z" fill="white"/>
<path d="M107.269 5458L95.0005 5479H110.732L123 5458H107.269Z" fill="white"/>
<path d="M95.0117 5436L83.0005 5458H107L95.0117 5436Z" fill="white"/>
</g>
</g>
</g>
<mask id="mask3_148_1819" style="mask-type:alpha" maskUnits="userSpaceOnUse" x="1" y="6447" width="1920" height="873">
<rect x="1920" y="7320" width="1919" height="873" transform="rotate(-180 1920 7320)" fill="url(#paint3_linear_148_1819)"/>
</mask>
<g mask="url(#mask3_148_1819)">
<g opacity="0.5">
<g opacity="0.11">
<path d="M63.001 6711L75.2596 6732H91.001L78.7195 6711H63.001Z" fill="white"/>
<path d="M103.27 6711L91.001 6732H106.732L119.001 6711H103.27Z" fill="white"/>
<path d="M91.0122 6689L79.001 6711H103.001L91.0122 6689Z" fill="white"/>
</g>
<g opacity="0.11">
<path d="M229.001 6675L241.26 6696H257.001L244.719 6675H229.001Z" fill="white"/>
<path d="M269.27 6675L257.001 6696H272.732L285.001 6675H269.27Z" fill="white"/>
<path d="M257.012 6653L245.001 6675H269.001L257.012 6653Z" fill="white"/>
</g>
<g opacity="0.11">
<path d="M264.001 6636L276.26 6657H292.001L279.719 6636H264.001Z" fill="white"/>
<path d="M304.27 6636L292.001 6657H307.732L320.001 6636H304.27Z" fill="white"/>
<path d="M292.012 6614L280.001 6636H304.001L292.012 6614Z" fill="white"/>
</g>
<g opacity="0.11">
<path d="M458.001 6559L470.26 6580H486.001L473.719 6559H458.001Z" fill="white"/>
<path d="M498.27 6559L486.001 6580H501.732L514.001 6559H498.27Z" fill="white"/>
<path d="M486.012 6537L474.001 6559H498.001L486.012 6537Z" fill="white"/>
</g>
<g opacity="0.11">
<path d="M493.001 6598L505.26 6619H521.001L508.719 6598H493.001Z" fill="white"/>
<path d="M533.27 6598L521.001 6619H536.732L549.001 6598H533.27Z" fill="white"/>
<path d="M521.012 6576L509.001 6598H533.001L521.012 6576Z" fill="white"/>
</g>
<g opacity="0.11">
<path d="M493.001 6675L505.26 6696H521.001L508.719 6675H493.001Z" fill="white"/>
<path d="M533.27 6675L521.001 6696H536.732L549.001 6675H533.27Z" fill="white"/>
<path d="M521.012 6653L509.001 6675H533.001L521.012 6653Z" fill="white"/>
</g>
<g opacity="0.12">
<path d="M726.001 6711L738.26 6732H754.001L741.719 6711H726.001Z" fill="white"/>
<path d="M766.27 6711L754.001 6732H769.732L782.001 6711H766.27Z" fill="white"/>
<path d="M754.012 6689L742.001 6711H766.001L754.012 6689Z" fill="white"/>
</g>
<g opacity="0.2">
<path d="M1054 6636L1066.26 6657H1082L1069.72 6636H1054Z" fill="white"/>
<path d="M1094.27 6636L1082 6657H1097.73L1110 6636H1094.27Z" fill="white"/>
<path d="M1082.01 6614L1070 6636H1094L1082.01 6614Z" fill="white"/>
</g>
<g opacity="0.2">
<path d="M1516 6636L1528.26 6657H1544L1531.72 6636H1516Z" fill="white"/>
<path d="M1556.27 6636L1544 6657H1559.73L1572 6636H1556.27Z" fill="white"/>
<path d="M1544.01 6614L1532 6636H1556L1544.01 6614Z" fill="white"/>
</g>
<g opacity="0.2">
<path d="M1681 6598L1693.26 6619H1709L1696.72 6598H1681Z" fill="white"/>
<path d="M1721.27 6598L1709 6619H1724.73L1737 6598H1721.27Z" fill="white"/>
<path d="M1709.01 6576L1697 6598H1721L1709.01 6576Z" fill="white"/>
</g>
<g opacity="0.11">
<path d="M1681 6516L1693.26 6537H1709L1696.72 6516H1681Z" fill="white"/>
<path d="M1721.27 6516L1709 6537H1724.73L1737 6516H1721.27Z" fill="white"/>
<path d="M1709.01 6494L1697 6516H1721L1709.01 6494Z" fill="white"/>
</g>
<g opacity="0.11">
<path d="M1681 6749L1693.26 6770H1709L1696.72 6749H1681Z" fill="white"/>
<path d="M1721.27 6749L1709 6770H1724.73L1737 6749H1721.27Z" fill="white"/>
<path d="M1709.01 6727L1697 6749H1721L1709.01 6727Z" fill="white"/>
</g>
<g opacity="0.2">
<path d="M1681 6831L1693.26 6852H1709L1696.72 6831H1681Z" fill="white"/>
<path d="M1721.27 6831L1709 6852H1724.73L1737 6831H1721.27Z" fill="white"/>
<path d="M1709.01 6809L1697 6831H1721L1709.01 6809Z" fill="white"/>
</g>
<g opacity="0.2">
<path d="M1681 6907L1693.26 6928H1709L1696.72 6907H1681Z" fill="white"/>
<path d="M1721.27 6907L1709 6928H1724.73L1737 6907H1721.27Z" fill="white"/>
<path d="M1709.01 6885L1697 6907H1721L1709.01 6885Z" fill="white"/>
</g>
<g opacity="0.11">
<path d="M1615 6907L1627.26 6928H1643L1630.72 6907H1615Z" fill="white"/>
<path d="M1655.27 6907L1643 6928H1658.73L1671 6907H1655.27Z" fill="white"/>
<path d="M1643.01 6885L1631 6907H1655L1643.01 6885Z" fill="white"/>
</g>
<g opacity="0.2">
<path d="M1875 6907L1887.26 6928H1903L1890.72 6907H1875Z" fill="white"/>
<path d="M1915.27 6907L1903 6928H1918.73L1931 6907H1915.27Z" fill="white"/>
<path d="M1903.01 6885L1891 6907H1915L1903.01 6885Z" fill="white"/>
</g>
<g opacity="0.11">
<path d="M1284 6826L1296.26 6847H1312L1299.72 6826H1284Z" fill="white"/>
<path d="M1324.27 6826L1312 6847H1327.73L1340 6826H1324.27Z" fill="white"/>
<path d="M1312.01 6804L1300 6826H1324L1312.01 6804Z" fill="white"/>
</g>
<g opacity="0.11">
<path d="M1447 6788L1459.26 6809H1475L1462.72 6788H1447Z" fill="white"/>
<path d="M1487.27 6788L1475 6809H1490.73L1503 6788H1487.27Z" fill="white"/>
<path d="M1475.01 6766L1463 6788H1487L1475.01 6766Z" fill="white"/>
</g>
<g opacity="0.11">
<path d="M1054 6711L1066.26 6732H1082L1069.72 6711H1054Z" fill="white"/>
<path d="M1094.27 6711L1082 6732H1097.73L1110 6711H1094.27Z" fill="white"/>
<path d="M1082.01 6689L1070 6711H1094L1082.01 6689Z" fill="white"/>
</g>
<g opacity="0.12">
<path d="M792.001 6788L804.26 6809H820.001L807.719 6788H792.001Z" fill="white"/>
<path d="M832.27 6788L820.001 6809H835.732L848.001 6788H832.27Z" fill="white"/>
<path d="M820.012 6766L808.001 6788H832.001L820.012 6766Z" fill="white"/>
</g>
<g opacity="0.11">
<path d="M887.001 6904L899.26 6925H915.001L902.719 6904H887.001Z" fill="white"/>
<path d="M927.27 6904L915.001 6925H930.732L943.001 6904H927.27Z" fill="white"/>
<path d="M915.012 6882L903.001 6904H927.001L915.012 6882Z" fill="white"/>
</g>
<g opacity="0.11">
<path d="M1020 6981L1032.26 7002H1048L1035.72 6981H1020Z" fill="white"/>
<path d="M1060.27 6981L1048 7002H1063.73L1076 6981H1060.27Z" fill="white"/>
<path d="M1048.01 6959L1036 6981H1060L1048.01 6959Z" fill="white"/>
</g>
<g opacity="0.11">
<path d="M1020 7062L1032.26 7083H1048L1035.72 7062H1020Z" fill="white"/>
<path d="M1060.27 7062L1048 7083H1063.73L1076 7062H1060.27Z" fill="white"/>
<path d="M1048.01 7040L1036 7062H1060L1048.01 7040Z" fill="white"/>
</g>
<g opacity="0.11">
<path d="M1284 7135L1296.26 7156H1312L1299.72 7135H1284Z" fill="white"/>
<path d="M1324.27 7135L1312 7156H1327.73L1340 7135H1324.27Z" fill="white"/>
<path d="M1312.01 7113L1300 7135H1324L1312.01 7113Z" fill="white"/>
</g>
<g opacity="0.2">
<path d="M1516 7095L1528.26 7116H1544L1531.72 7095H1516Z" fill="white"/>
<path d="M1556.27 7095L1544 7116H1559.73L1572 7095H1556.27Z" fill="white"/>
<path d="M1544.01 7073L1532 7095H1556L1544.01 7073Z" fill="white"/>
</g>
<g opacity="0.2">
<path d="M1544 7214L1556.26 7235H1572L1559.72 7214H1544Z" fill="white"/>
<path d="M1584.27 7214L1572 7235H1587.73L1600 7214H1584.27Z" fill="white"/>
<path d="M1572.01 7192L1560 7214H1584L1572.01 7192Z" fill="white"/>
</g>
<g opacity="0.11">
<path d="M1776 7247L1788.26 7268H1804L1791.72 7247H1776Z" fill="white"/>
<path d="M1816.27 7247L1804 7268H1819.73L1832 7247H1816.27Z" fill="white"/>
<path d="M1804.01 7225L1792 7247H1816L1804.01 7225Z" fill="white"/>
</g>
<g opacity="0.11">
<path d="M1284 7210L1296.26 7231H1312L1299.72 7210H1284Z" fill="white"/>
<path d="M1324.27 7210L1312 7231H1327.73L1340 7210H1324.27Z" fill="white"/>
<path d="M1312.01 7188L1300 7210H1324L1312.01 7188Z" fill="white"/>
</g>
<g opacity="0.2">
<path d="M887 7292L899.259 7313H915L902.719 7292H887Z" fill="white"/>
<path d="M927.269 7292L915 7313H930.732L943 7292H927.269Z" fill="white"/>
<path d="M915.012 7270L903 7292H927L915.012 7270Z" fill="white"/>
</g>
<g opacity="0.11">
<path d="M760 7135L772.259 7156H788L775.719 7135H760Z" fill="white"/>
<path d="M800.269 7135L788 7156H803.732L816 7135H800.269Z" fill="white"/>
<path d="M788.012 7113L776 7135H800L788.012 7113Z" fill="white"/>
</g>
<g opacity="0.15">
<path d="M626 7210L638.259 7231H654L641.719 7210H626Z" fill="white"/>
<path d="M666.269 7210L654 7231H669.732L682 7210H666.269Z" fill="white"/>
<path d="M654.012 7188L642 7210H666L654.012 7188Z" fill="white"/>
</g>
<g opacity="0.11">
<path d="M694 7292L706.259 7313H722L709.719 7292H694Z" fill="white"/>
<path d="M734.269 7292L722 7313H737.732L750 7292H734.269Z" fill="white"/>
<path d="M722.012 7270L710 7292H734L722.012 7270Z" fill="white"/>
</g>
<g opacity="0.2">
<path d="M591.001 7095L603.26 7116H619.001L606.719 7095H591.001Z" fill="white"/>
<path d="M631.27 7095L619.001 7116H634.732L647.001 7095H631.27Z" fill="white"/>
<path d="M619.012 7073L607.001 7095H631.001L619.012 7073Z" fill="white"/>
</g>
<g opacity="0.12">
<path d="M558.001 6831L570.26 6852H586.001L573.719 6831H558.001Z" fill="white"/>
<path d="M598.27 6831L586.001 6852H601.732L614.001 6831H598.27Z" fill="white"/>
<path d="M586.012 6809L574.001 6831H598.001L586.012 6809Z" fill="white"/>
</g>
<g opacity="0.2">
<path d="M313.001 6947L325.26 6968H341.001L328.719 6947H313.001Z" fill="white"/>
<path d="M353.27 6947L341.001 6968H356.732L369.001 6947H353.27Z" fill="white"/>
<path d="M341.012 6925L329.001 6947H353.001L341.012 6925Z" fill="white"/>
</g>
<g opacity="0.11">
<path d="M365.001 6981L377.26 7002H393.001L380.719 6981H365.001Z" fill="white"/>
<path d="M405.27 6981L393.001 7002H408.732L421.001 6981H405.27Z" fill="white"/>
<path d="M393.012 6959L381.001 6981H405.001L393.012 6959Z" fill="white"/>
</g>
<g opacity="0.11">
<path d="M493.001 7135L505.26 7156H521.001L508.719 7135H493.001Z" fill="white"/>
<path d="M533.27 7135L521.001 7156H536.732L549.001 7135H533.27Z" fill="white"/>
<path d="M521.012 7113L509.001 7135H533.001L521.012 7113Z" fill="white"/>
</g>
<g opacity="0.11">
<path d="M292.012 7303L280.001 7325H304.001L292.012 7303Z" fill="white"/>
</g>
<g opacity="0.11">
<path d="M155.012 7303L143.001 7325H167.001L155.012 7303Z" fill="white"/>
</g>
<g opacity="0.2">
<path d="M67.001 7019L79.2596 7040H95.001L82.7195 7019H67.001Z" fill="white"/>
<path d="M107.27 7019L95.001 7040H110.732L123.001 7019H107.27Z" fill="white"/>
<path d="M95.0122 6997L83.001 7019H107.001L95.0122 6997Z" fill="white"/>
</g>
</g>
</g>
<defs>
<filter id="filter0_f_148_1819" x="924.377" y="2728.48" width="1276.8" height="1081.91" filterUnits="userSpaceOnUse" color-interpolation-filters="sRGB">
<feFlood flood-opacity="0" result="BackgroundImageFix"/>
<feBlend mode="normal" in="SourceGraphic" in2="BackgroundImageFix" result="shape"/>
<feGaussianBlur stdDeviation="120" result="effect1_foregroundBlur_148_1819"/>
</filter>
<filter id="filter1_f_148_1819" x="-400.247" y="2291.49" width="1205.3" height="884.428" filterUnits="userSpaceOnUse" color-interpolation-filters="sRGB">
<feFlood flood-opacity="0" result="BackgroundImageFix"/>
<feBlend mode="normal" in="SourceGraphic" in2="BackgroundImageFix" result="shape"/>
<feGaussianBlur stdDeviation="120" result="effect1_foregroundBlur_148_1819"/>
</filter>
<filter id="filter2_f_148_1819" x="875" y="0.531982" width="1515.86" height="1262.5" filterUnits="userSpaceOnUse" color-interpolation-filters="sRGB">
<feFlood flood-opacity="0" result="BackgroundImageFix"/>
<feBlend mode="normal" in="SourceGraphic" in2="BackgroundImageFix" result="shape"/>
<feGaussianBlur stdDeviation="120" result="effect1_foregroundBlur_148_1819"/>
</filter>
<filter id="filter3_f_148_1819" x="-588.408" y="390.84" width="1589.59" height="1098.71" filterUnits="userSpaceOnUse" color-interpolation-filters="sRGB">
<feFlood flood-opacity="0" result="BackgroundImageFix"/>
<feBlend mode="normal" in="SourceGraphic" in2="BackgroundImageFix" result="shape"/>
<feGaussianBlur stdDeviation="120" result="effect1_foregroundBlur_148_1819"/>
</filter>
<linearGradient id="paint0_linear_148_1819" x1="2879.5" y1="2227" x2="2879.5" y2="3100" gradientUnits="userSpaceOnUse">
<stop stop-color="#000055" stop-opacity="0"/>
<stop offset="1" stop-color="#000055"/>
</linearGradient>
<linearGradient id="paint1_linear_148_1819" x1="2879.5" y1="4171" x2="2879.5" y2="5044" gradientUnits="userSpaceOnUse">
<stop stop-color="#000055" stop-opacity="0"/>
<stop offset="1" stop-color="#000055"/>
</linearGradient>
<linearGradient id="paint2_linear_148_1819" x1="2879.5" y1="5759" x2="2879.5" y2="6632" gradientUnits="userSpaceOnUse">
<stop stop-color="#000055" stop-opacity="0"/>
<stop offset="1" stop-color="#000055"/>
</linearGradient>
<linearGradient id="paint3_linear_148_1819" x1="2879.5" y1="7320" x2="2879.5" y2="8193" gradientUnits="userSpaceOnUse">
<stop stop-color="#000055" stop-opacity="0"/>
<stop offset="1" stop-color="#000055"/>
</linearGradient>
</defs>
</svg>
