<svg width="17" height="17" viewBox="0 0 17 17" fill="none" xmlns="http://www.w3.org/2000/svg">
<g filter="url(#filter0_d_148_4511)">
<path fill-rule="evenodd" clip-rule="evenodd" d="M8.37468 0C12.4483 0 15.7494 3.34217 15.7494 7.46641C15.7494 11.5906 12.4483 14.9328 8.37468 14.9328C4.30111 14.9328 1 11.5906 1 7.46641C1 3.34217 4.30111 0 8.37468 0Z" fill="url(#paint0_radial_148_4511)"/>
</g>
<path fill-rule="evenodd" clip-rule="evenodd" d="M8.37466 1.25562C11.7629 1.25562 14.5092 4.03613 14.5092 7.46647C14.5092 10.8968 11.7629 13.6773 8.37466 13.6773C4.98647 13.6773 2.24011 10.8968 2.24011 7.46647C2.24011 4.03613 4.98647 1.25562 8.37466 1.25562Z" fill="url(#paint1_radial_148_4511)"/>
<path fill-rule="evenodd" clip-rule="evenodd" d="M8.37468 6.12427C9.10682 6.12427 9.70028 6.72511 9.70028 7.46636C9.70028 8.20761 9.10682 8.80845 8.37468 8.80845C7.64253 8.80845 7.04907 8.20761 7.04907 7.46636C7.04907 6.72511 7.64253 6.12427 8.37468 6.12427Z" fill="#8647DC"/>
<path fill-rule="evenodd" clip-rule="evenodd" d="M8.84243 4.08675C9.42298 2.48995 10.2164 1.88095 10.3857 1.94299C10.5551 2.00667 10.7679 2.9912 10.1858 4.58799C9.60521 6.18479 8.85533 6.81175 8.64084 6.73175C8.42797 6.65174 8.26026 5.68191 8.84243 4.08675Z" fill="#8647DC"/>
<path fill-rule="evenodd" clip-rule="evenodd" d="M3.12712 7.00597H3.47384C3.7238 7.00597 3.92699 7.21333 3.92699 7.46476C3.92699 7.71784 3.72219 7.92356 3.47384 7.92356H3.12712C2.87715 7.92356 2.67396 7.7162 2.67396 7.46476C2.67235 7.21333 2.87715 7.00597 3.12712 7.00597ZM13.2756 7.00597H13.6223C13.8723 7.00597 14.0754 7.21333 14.0754 7.46476C14.0754 7.71784 13.8706 7.92356 13.6223 7.92356H13.2756C13.0256 7.92356 12.8224 7.7162 12.8224 7.46476C12.8224 7.21333 13.0272 7.00597 13.2756 7.00597ZM12.4063 4.0328L12.1612 4.28097C11.9838 4.45894 11.6952 4.45894 11.5194 4.28097C11.342 4.10137 11.342 3.80911 11.5194 3.63115L11.7645 3.38298C11.9403 3.20501 12.229 3.20501 12.4063 3.38298C12.5821 3.56257 12.5821 3.85483 12.4063 4.0328ZM5.23002 11.3L4.9849 11.5482C4.80912 11.7262 4.51884 11.7262 4.34306 11.5482C4.16728 11.3702 4.16728 11.078 4.34306 10.8984L4.58818 10.6502C4.76396 10.4722 5.05263 10.4722 5.23002 10.6502C5.4058 10.8282 5.4058 11.1204 5.23002 11.3ZM7.92155 12.7793V12.4282C7.92155 12.1751 8.12636 11.9694 8.3747 11.9694C8.62467 11.9694 8.82786 12.1768 8.82786 12.4282V12.7793C8.82786 13.0323 8.62305 13.238 8.3747 13.238C8.12474 13.238 7.92155 13.0307 7.92155 12.7793ZM7.92155 2.50294V2.15191C7.92155 1.89884 8.12636 1.69312 8.3747 1.69312C8.62467 1.69312 8.82786 1.90047 8.82786 2.15191V2.50294C8.82786 2.75601 8.62305 2.96174 8.3747 2.96174C8.12474 2.96337 7.92155 2.75601 7.92155 2.50294ZM11.7645 11.5482L11.5194 11.3C11.342 11.122 11.342 10.8298 11.5194 10.6502C11.6952 10.4722 11.9838 10.4722 12.1612 10.6502L12.4063 10.8984C12.5837 11.0763 12.5837 11.3686 12.4063 11.5482C12.229 11.7262 11.9419 11.7262 11.7645 11.5482ZM4.58818 4.28097L4.34306 4.0328C4.16728 3.85483 4.16728 3.56257 4.34306 3.38298C4.51884 3.20501 4.80912 3.20501 4.9849 3.38298L5.23002 3.63115C5.4058 3.80911 5.4058 4.10137 5.23002 4.28097C5.05263 4.46057 4.76396 4.46057 4.58818 4.28097Z" fill="#8647DC"/>
<defs>
<filter id="filter0_d_148_4511" x="0" y="0" width="16.7494" height="16.9329" filterUnits="userSpaceOnUse" color-interpolation-filters="sRGB">
<feFlood flood-opacity="0" result="BackgroundImageFix"/>
<feColorMatrix in="SourceAlpha" type="matrix" values="0 0 0 0 0 0 0 0 0 0 0 0 0 0 0 0 0 0 127 0" result="hardAlpha"/>
<feOffset dy="1"/>
<feGaussianBlur stdDeviation="0.5"/>
<feComposite in2="hardAlpha" operator="out"/>
<feColorMatrix type="matrix" values="0 0 0 0 0 0 0 0 0 0 0 0 0 0 0 0 0 0 0.4 0"/>
<feBlend mode="normal" in2="BackgroundImageFix" result="effect1_dropShadow_148_4511"/>
<feBlend mode="normal" in="SourceGraphic" in2="effect1_dropShadow_148_4511" result="shape"/>
</filter>
<radialGradient id="paint0_radial_148_4511" cx="0" cy="0" r="1" gradientUnits="userSpaceOnUse" gradientTransform="translate(8.37457 7.46564) scale(7.37452 7.46625)">
<stop offset="0.760417" stop-color="#A963F0"/>
<stop offset="1" stop-color="#652EC9"/>
</radialGradient>
<radialGradient id="paint1_radial_148_4511" cx="0" cy="0" r="1" gradientUnits="userSpaceOnUse" gradientTransform="translate(8.40764 8.13312) scale(6.89832 6.98412)">
<stop offset="0.6967" stop-color="white"/>
<stop offset="1" stop-color="#A6CCFF"/>
</radialGradient>
</defs>
</svg>
