<svg width="130" height="133" viewBox="0 0 130 133" fill="none" xmlns="http://www.w3.org/2000/svg">
<g opacity="0.8">
<g clip-path="url(#clip0_148_3728)">
<g style="mix-blend-mode:screen">
<path opacity="0.5" d="M70.6869 64.9473C71.4866 64.708 72.3389 64.708 73.1387 64.9473C72.5315 65.4513 71.8659 65.8806 71.1564 66.2259C69.8783 67.0087 68.9393 66.7739 68.7828 66.4347C68.6263 66.0954 69.0175 65.2083 70.6869 64.9473Z" fill="#7D7A7C"/>
<path d="M69.6432 65.5475C70.0606 65.3649 70.4779 65.5475 70.5822 65.7041C70.6866 65.8606 70.4257 66.3042 70.0084 66.4869C69.591 66.6696 69.1737 66.4869 69.0694 66.3303C68.965 66.1738 69.1998 65.7041 69.6432 65.5475Z" fill="#F9E6CF"/>
<path opacity="0.5" d="M72.3821 71.3143C72.6391 70.5682 72.702 69.769 72.5647 68.9919C72.5647 68.3657 72.1212 68.0525 72.1995 68.0004C72.2777 67.9482 72.7212 68.0003 73.1385 68.7049C73.6271 69.5403 73.8457 70.5063 73.7645 71.4708C73.608 74.0802 72.3821 75.0457 72.0691 74.9152C71.7561 74.7847 71.6517 73.5844 72.3821 71.3143Z" fill="#7D7A7C"/>
<path d="M72.1735 73.0626C72.3561 72.4103 72.7474 71.9145 72.9821 71.9667C73.2169 72.0188 73.3473 72.6451 73.1386 73.3496C72.9299 74.0542 72.4865 74.5238 72.2518 74.4456C72.017 74.3673 72.017 73.741 72.1735 73.0626Z" fill="#F9E6CF"/>
<path opacity="0.5" d="M67.0348 58.3457C67.6647 58.9138 68.087 59.676 68.2347 60.5114C68.3651 61.0855 68.3651 61.4769 68.2347 61.4769C68.1043 61.4769 67.3478 60.0939 66.1741 59.5199C65.0003 58.9458 63.957 59.7025 63.7222 59.285C63.4875 58.8675 63.7222 58.7632 64.0613 58.3457C64.3829 58.0973 64.758 57.9275 65.1568 57.8499C65.4868 57.7784 65.8289 57.786 66.1553 57.8722C66.4817 57.9584 66.7831 58.1206 67.0348 58.3457Z" fill="#7D7A7C"/>
<path d="M65.1568 58.1368C65.9133 58.1368 66.461 58.4761 66.3306 58.7109C66.2002 58.9457 65.7828 59.0501 65.3394 59.1284C64.896 59.2067 64.3743 59.1284 64.2439 59.1284C64.1135 59.1284 64.3482 58.3456 65.1568 58.1368Z" fill="#F9E6CF"/>
<path opacity="0.5" d="M60.5923 61.9988C61.2198 61.859 61.8699 61.8542 62.4994 61.9846C63.1289 62.1151 63.7236 62.3779 64.244 62.7555C63.1469 62.8179 62.0612 63.0106 61.0096 63.3296C59.3663 64.2429 58.4012 65.0257 58.1143 64.7909C57.8274 64.556 57.8796 64.2951 58.1143 63.721C58.3711 63.2658 58.7273 62.8745 59.1563 62.5763C59.5854 62.2781 60.0763 62.0807 60.5923 61.9988Z" fill="#7D7A7C"/>
<path d="M58.9227 63.0948C59.5487 62.6512 60.1747 62.5729 60.3051 62.8599C60.4355 63.147 60.0443 63.5384 59.5487 63.9037C59.0531 64.269 58.5836 64.5299 58.401 64.3734C58.2184 64.2168 58.3749 63.6167 58.9227 63.0948Z" fill="#F9E6CF"/>
<path opacity="0.5" d="M56.7577 70.6358C58.2419 69.7386 59.8771 69.1196 61.5832 68.8092C61.5832 68.8092 59.6269 70.14 57.5402 71.81C54.9318 73.8192 53.9928 74.9151 53.6537 74.8108C53.3146 74.7064 53.3668 74.2367 53.7841 73.4278C54.4784 72.2241 55.5129 71.2527 56.7577 70.6358Z" fill="#7D7A7C"/>
<path d="M54.7237 72.4623C55.4801 71.7578 56.2626 71.4447 56.4452 71.6795C56.6278 71.9144 56.1061 72.5406 55.428 73.193C54.7498 73.8453 54.176 74.3411 53.9151 74.1845C53.6543 74.028 54.0195 73.193 54.7237 72.4623Z" fill="#F9E6CF"/>
<path opacity="0.5" d="M75.5903 59.5199C74.8816 60.3374 73.9871 60.9728 72.9819 61.3725C73.3825 60.4622 73.8625 59.589 74.4165 58.7631C74.86 57.9281 75.0165 57.4324 75.1469 57.4324C75.2773 57.4324 75.1469 57.2497 75.1469 57.0931C75.102 56.9845 75.102 56.8625 75.1469 56.7539C75.1469 56.7539 75.486 56.2059 76.2424 56.7539C76.4035 56.9622 76.5076 57.209 76.5442 57.4699C76.5808 57.7307 76.5487 57.9966 76.4511 58.2413C76.2576 58.7235 75.9642 59.1592 75.5903 59.5199Z" fill="#7D7A7C"/>
<path d="M76.2943 57.902C76.0595 58.6066 75.5639 58.8675 75.3553 58.7109C75.1466 58.5544 75.1727 58.0586 75.3553 57.6411C75.3291 57.5561 75.3291 57.4652 75.3553 57.3802C75.335 57.3299 75.335 57.2738 75.3553 57.2236C75.3553 57.0931 75.3553 56.9627 75.3553 56.8322C75.3871 56.7939 75.4269 56.763 75.472 56.7419C75.5171 56.7207 75.5663 56.7097 75.6161 56.7097C75.6659 56.7097 75.7151 56.7207 75.7602 56.7419C75.8052 56.763 75.8451 56.7939 75.8769 56.8322C75.9991 56.9709 76.0962 57.1298 76.1638 57.3019C76.2346 57.495 76.2785 57.6969 76.2943 57.902Z" fill="#F9E6CF"/>
<path opacity="0.5" d="M69.7217 53.727C69.5898 55.1786 69.1257 56.5804 68.3653 57.8237C68.2088 57.8237 68.3653 55.8406 68.3653 53.7009C68.3497 52.8068 68.173 51.9229 67.8437 51.0916C67.7024 50.9184 67.588 50.7248 67.5046 50.5175C67.3742 50.387 67.322 50.2826 67.3481 50.1783C67.3742 50.0739 67.7915 49.7347 68.6262 50.1783C69.1186 50.6108 69.4817 51.1714 69.6751 51.7978C69.8684 52.4242 69.8846 53.092 69.7217 53.727Z" fill="#7D7A7C"/>
<path d="M69.1995 51.4308C69.5647 52.3441 69.1995 53.0486 69.017 53.0747C68.8344 53.1008 68.5214 52.4224 68.2605 51.8222C67.9997 51.2221 67.9736 51.2742 67.9475 51.0133C67.8778 50.9528 67.8245 50.8756 67.7926 50.7889C67.7606 50.7022 67.7511 50.6089 67.7649 50.5175C67.7649 50.3871 68.0519 50.3871 68.391 50.5175C68.7486 50.7308 69.0311 51.0499 69.1995 51.4308Z" fill="#F9E6CF"/>
<path opacity="0.5" d="M70.8694 52.7094C71.2607 50.5436 71.6259 48.5605 71.8867 47.0732C71.9794 46.2768 72.1453 45.4906 72.3823 44.7247C72.5245 45.5165 72.5683 46.3228 72.5127 47.1254C72.5127 48.6127 72.5127 50.6741 72.2779 52.8921C71.8345 58.2413 70.7129 60.8768 70.3478 60.7202C69.9826 60.5636 69.8 58.2674 70.8694 52.7094Z" fill="#7D7A7C"/>
<path d="M70.3736 56.8061C70.6084 55.2405 71.0257 54.0141 71.2865 54.0402C71.5474 54.0663 71.6256 55.371 71.2865 56.9627C70.9475 58.5544 70.5823 59.7547 70.3214 59.5721C70.0606 59.3894 70.3736 58.3457 70.3736 56.8061Z" fill="#F9E6CF"/>
<path opacity="0.5" d="M76.8162 47.6994C76.1641 49.5782 75.4859 51.2482 74.9382 52.4746C74.6937 53.1589 74.3605 53.8081 73.947 54.4055C73.8166 54.4055 74.6252 51.1438 75.4599 47.308C75.8443 44.9916 76.429 42.7128 77.2075 40.4976C77.364 40.4976 77.8074 40.9933 77.8856 42.2458C77.8489 44.1121 77.487 45.9576 76.8162 47.6994Z" fill="#7D7A7C"/>
<path d="M77.4942 44.0201C77.2334 45.4292 76.7117 46.6295 76.4248 46.4207C76.1378 46.212 76.2422 45.1943 76.4248 43.8114C76.6074 42.4284 76.9464 41.3846 77.2334 41.3846C77.5203 41.3846 77.7811 42.611 77.4942 44.0201Z" fill="#F9E6CF"/>
<path opacity="0.5" d="M56.3144 67.087C57.8816 66.4758 59.5687 66.2347 61.2443 66.3825C61.2443 66.539 59.1054 67.1392 56.8622 68.3656C54.2538 69.8529 52.9757 70.714 52.6367 70.4792C52.2976 70.2443 52.5062 69.8529 53.054 69.2006C53.902 68.1823 55.0389 67.4453 56.3144 67.087Z" fill="#7D7A7C"/>
<path d="M54.1498 68.496C54.9584 67.8959 55.7931 67.8176 55.8974 68.0524C56.0017 68.2873 55.4279 68.8092 54.6976 69.331C53.9672 69.8529 53.289 70.1921 53.0804 69.9573C52.8717 69.7224 53.3151 69.044 54.1498 68.496Z" fill="#F9E6CF"/>
<path opacity="0.5" d="M44.8379 59.7809C46.8935 59.9251 48.9295 60.2747 50.9154 60.8246C51.7669 60.9767 52.5924 61.249 53.3673 61.6335C53.3673 61.8162 49.4287 61.0594 44.8119 61.1638C42.723 61.209 40.6399 61.4008 38.5779 61.7379C37.1954 61.9466 36.4651 62.1032 36.3869 61.9205C36.3086 61.7379 36.7259 61.1638 38.1084 60.6158C40.2496 59.7914 42.5603 59.5046 44.8379 59.7809Z" fill="#7D7A7C"/>
<path d="M40.3513 60.2245C42.0729 59.9374 43.4814 60.2245 43.4814 60.4332C43.4814 60.642 42.125 60.9551 40.5078 61.216C38.8907 61.477 37.5865 61.764 37.4561 61.4509C37.3256 61.1377 38.6037 60.4332 40.3513 60.2245Z" fill="#F9E6CF"/>
<path opacity="0.5" d="M86.0237 54.3794L80.9896 57.1975C80.3143 57.6467 79.5982 58.0311 78.8507 58.3457C79.383 57.7279 79.9872 57.176 80.6505 56.7017C81.7982 55.7363 83.4153 54.4577 85.2412 53.1791C86.92 51.9467 88.7875 50.995 90.7709 50.361C92.1794 49.9435 93.0402 50.361 92.988 50.361C92.9359 50.361 90.9796 51.5613 86.0237 54.3794Z" fill="#7D7A7C"/>
<path d="M89.4665 52.1874C88.058 52.892 86.8582 53.3617 86.7017 53.1268C86.5452 52.892 87.5624 52.0048 88.997 51.2742C90.4316 50.5435 91.8141 50.3348 91.8923 50.6218C91.9706 50.9088 90.849 51.4568 89.4665 52.1874Z" fill="#F9E6CF"/>
<path opacity="0.5" d="M86.2585 61.9466C83.6501 61.9466 81.4069 62.3119 81.3809 62.1554C82.8634 61.3209 84.493 60.7805 86.1803 60.5636C86.8651 60.377 87.5855 60.3627 88.2773 60.522C88.969 60.6814 89.6107 61.0094 90.145 61.4769C90.8753 62.3641 90.5362 62.9904 90.3797 62.9904C90.2232 62.9904 89.9363 62.6772 89.4146 62.4424C88.405 62.0728 87.3328 61.9044 86.2585 61.9466Z" fill="#7D7A7C"/>
<path d="M88.6324 61.9204C87.8238 61.7117 87.0413 61.5029 87.0413 61.242C87.0413 60.981 87.8498 60.6679 88.8932 60.9288C89.9365 61.1898 90.4843 62.2596 90.1974 62.364C89.9105 62.4684 89.3888 62.1031 88.6324 61.9204Z" fill="#F9E6CF"/>
<path opacity="0.5" d="M82.7894 45.5076C81.5374 47.3863 80.1811 49.0563 79.4246 50.2566C78.9731 50.9382 78.4483 51.5682 77.8596 52.1354C78.1147 51.3603 78.4559 50.6163 78.8769 49.9174C79.5811 48.5605 80.5462 46.7601 81.4852 44.6987C84.1458 40.0279 85.7108 37.8882 86.0238 37.8882C86.3368 37.8882 86.0238 40.7063 82.7894 45.5076Z" fill="#7D7A7C"/>
<path d="M84.7195 41.7762C83.937 43.1852 83.0763 44.2029 82.8415 44.0463C82.6068 43.8898 83.0502 42.6894 83.8327 41.2804C84.6152 39.8713 85.3455 38.8537 85.6064 38.958C85.8672 39.0624 85.502 40.4976 84.7195 41.7762Z" fill="#F9E6CF"/>
<path opacity="0.5" d="M68.2348 38.6971C68.5738 41.3064 68.7303 43.9158 68.8086 45.638C68.8836 46.6107 68.8836 47.5878 68.8086 48.5605C68.5194 47.632 68.31 46.6805 68.1826 45.7163C67.8435 43.9419 67.4262 41.5413 66.8523 38.958C66.1742 35.8268 65.6003 33.5044 65.1569 31.9649C64.7135 30.4254 64.4005 29.7208 64.557 29.5904C64.7135 29.4599 65.4699 29.8774 66.2263 31.3647C67.3269 33.6697 68.0071 36.1528 68.2348 38.6971Z" fill="#7D7A7C"/>
<path d="M66.9566 33.8176C67.4783 35.6963 67.5305 37.288 67.2696 37.3402C67.0088 37.3924 66.4871 35.9051 65.9915 34.1046C65.4959 32.3041 65.1569 30.869 65.1569 30.7124C65.1569 30.5558 66.461 31.9388 66.9566 33.8176Z" fill="#F9E6CF"/>
<path opacity="0.5" d="M61.8706 74.054C62.5883 73.0886 63.4714 72.2581 64.479 71.6012C64.0771 72.7248 63.5706 73.8081 62.9661 74.8368C62.5876 75.6 62.1238 76.3178 61.5837 76.9765C61.2707 77.394 60.9316 77.6028 60.749 77.5767C60.5664 77.5506 60.3838 77.1853 60.4621 76.5329C60.6925 75.5918 61.1802 74.7335 61.8706 74.054Z" fill="#7D7A7C"/>
<path d="M61.0619 75.7242C61.401 75.0979 61.8966 74.7326 62.1314 74.8892C62.3661 75.0458 62.2618 75.6198 61.9488 76.22C61.6358 76.8201 61.2184 77.1854 60.9837 77.1072C60.7489 77.0289 60.6968 76.3504 61.0619 75.7242Z" fill="#F9E6CF"/>
<path opacity="0.5" d="M52.1148 102.783L57.3315 92.1109L58.9487 88.8753C59.1389 88.4693 59.3568 88.077 59.6008 87.701C59.5109 88.1418 59.3709 88.5708 59.1835 88.9796C58.8966 89.7885 58.4531 90.9628 57.9054 92.3718C56.7838 95.216 55.297 99.1301 53.5233 103.357C49.376 113.612 46.5329 118.596 46.1938 118.439C45.8548 118.283 47.185 113.56 52.1148 102.783Z" fill="#7D7A7C"/>
<path d="M48.9592 110.69C49.6008 108.8 50.5625 107.034 51.8023 105.471C51.4716 107.443 50.8195 109.347 49.8721 111.107C49.2333 112.993 48.2809 114.757 47.0551 116.326C47.3696 114.354 48.0133 112.448 48.9592 110.69Z" fill="#F9E6CF"/>
<path opacity="0.5" d="M46.898 105.732L53.3146 94.6421C54.1754 93.233 54.8535 92.0327 55.3491 91.276C55.5895 90.8487 55.8597 90.4389 56.1577 90.0496C56.0038 90.5084 55.8119 90.9535 55.5839 91.3803C55.1926 92.2414 54.5927 93.4417 53.8884 94.9291L48.124 106.384C42.6986 117.057 39.2034 122.249 38.8643 122.04C38.5252 121.832 40.5597 116.796 46.898 105.732Z" fill="#7D7A7C"/>
<path d="M42.6988 113.925C43.5593 111.945 44.7402 110.12 46.194 108.524C45.6324 110.612 44.7526 112.601 43.5857 114.421C42.6946 116.385 41.5166 118.205 40.0905 119.823C40.6381 117.73 41.5188 115.738 42.6988 113.925Z" fill="#F9E6CF"/>
<path opacity="0.5" d="M41.4468 107.689C43.7943 104.192 45.9593 100.983 47.6025 98.6865L49.5588 96.0771C50.0283 95.4509 50.2891 95.0856 50.3413 95.1117C50.1864 95.5032 49.9942 95.8789 49.7675 96.2337L48.1242 99.1301C46.6896 101.583 44.7594 104.923 42.6206 108.55C37.4038 117.291 34.352 121.597 33.9347 121.362C33.5174 121.127 35.3171 116.665 41.4468 107.689Z" fill="#7D7A7C"/>
<path d="M37.4037 114.447C38.2513 112.809 39.3816 111.334 40.7424 110.089C40.1887 111.874 39.3038 113.538 38.134 114.995C37.3331 116.65 36.237 118.144 34.8997 119.405C35.4157 117.61 36.2652 115.928 37.4037 114.447Z" fill="#F9E6CF"/>
<path opacity="0.5" d="M44.2897 98.9736L49.1673 92.5284C49.8324 91.6059 50.5648 90.7337 51.3584 89.9191C50.883 90.9541 50.3248 91.9489 49.689 92.8938C48.6196 94.6942 47.0806 97.1209 45.4374 99.7825C41.3944 106.175 38.7078 109.046 38.3687 108.837C38.0296 108.628 39.4121 105.445 44.2897 98.9736Z" fill="#7D7A7C"/>
<path d="M41.0814 103.905C42.3595 102.053 43.5594 100.696 43.6898 100.852C43.8202 101.009 43.0898 102.627 41.8117 104.479C40.5336 106.332 39.3338 107.689 39.2034 107.532C39.073 107.376 39.8294 105.732 41.0814 103.905Z" fill="#F9E6CF"/>
<path opacity="0.5" d="M45.3592 84.8568C47.9675 82.7432 50.289 80.8906 52.0627 79.6381C52.9905 78.8758 53.9759 78.1866 55.0101 77.5767C55.0101 77.5767 54.8015 77.8637 54.358 78.3073L52.48 80.1078L46.2982 85.9788C40.4815 91.4324 37.508 94.1201 37.195 93.807C36.882 93.4938 38.7339 90.2843 45.3592 84.8568Z" fill="#7D7A7C"/>
<path d="M40.9254 89.2144C42.647 87.5966 44.212 86.4746 44.4206 86.605C44.6293 86.7355 43.3251 88.3272 41.6819 90.0755C40.0386 91.8238 38.5518 92.9458 38.3432 92.6849C38.1345 92.4239 39.2039 90.8583 40.9254 89.2144Z" fill="#F9E6CF"/>
<path opacity="0.5" d="M33.1264 99.3128C36.6998 96.051 40.0385 93.1286 42.4904 91.0411L45.4118 88.5621C45.7653 88.2383 46.1497 87.9498 46.5594 87.701C46.2793 88.0931 45.9555 88.452 45.5943 88.7709L42.986 91.5107C40.6906 93.7809 37.5345 96.9121 34.1436 100.33C30.005 104.453 26.8315 107.515 24.6231 109.515C22.4582 111.525 21.3105 112.516 21.1801 112.386C21.0497 112.255 23.8667 107.663 33.1264 99.3128Z" fill="#7D7A7C"/>
<path d="M26.7618 105.732C28.1454 104.133 29.7849 102.775 31.6133 101.713C30.4879 103.496 29.0882 105.09 27.466 106.436C26.0931 108.025 24.5039 109.413 22.7449 110.559C23.7925 108.728 25.1519 107.095 26.7618 105.732Z" fill="#F9E6CF"/>
<path opacity="0.5" d="M37.1952 100.513L44.29 93.1025L46.481 90.9106C46.7433 90.6238 47.0315 90.3618 47.3418 90.1278C47.1611 90.473 46.9424 90.7968 46.6897 91.0933L44.7595 93.52L38.3429 101.348C32.2394 108.654 28.5616 111.916 28.2486 111.786C27.9356 111.655 30.257 107.819 37.1952 100.513Z" fill="#7D7A7C"/>
<path d="M32.474 106.071C34.352 103.957 36.0214 102.392 36.2301 102.601C35.5187 104.157 34.5084 105.557 33.2565 106.723C31.3785 108.837 29.7092 110.377 29.5005 110.194C30.2118 108.638 31.2222 107.237 32.474 106.071Z" fill="#F9E6CF"/>
<path opacity="0.5" d="M34.6127 90.0755C38.2644 87.2052 41.6814 84.8568 44.2897 83.0041L47.2894 80.9688C47.6399 80.6854 48.0257 80.4485 48.437 80.2643C48.1322 80.5953 47.8007 80.9008 47.4459 81.1776L44.681 83.4999L35.5778 91.0671C27.0485 98.1124 22.7447 101.739 22.536 101.505C22.3273 101.27 25.1183 97.0426 34.6127 90.0755Z" fill="#7D7A7C"/>
<path d="M28.0917 95.5293C29.5132 94.1177 31.1734 92.9692 32.9954 92.1371C33.178 92.3719 31.2478 94.1985 28.7438 96.3121C27.3357 97.712 25.7376 98.9066 23.9966 99.8608C25.0772 98.1722 26.4666 96.7027 28.0917 95.5293Z" fill="#F9E6CF"/>
<path opacity="0.5" d="M22.4058 81.6735C26.8922 79.8469 31.0917 78.4117 34.1434 77.3941L37.7952 76.246C38.2435 76.087 38.7066 75.9733 39.1776 75.9067C38.7651 76.1345 38.3382 76.335 37.8995 76.5069L34.3782 77.9942C31.4047 79.2467 27.3356 80.9428 22.9536 82.9521C17.7368 85.3788 13.746 87.3097 11.1899 88.7188C9.94406 89.5265 8.64568 90.2501 7.30339 90.8845C7.14689 90.8845 7.90331 89.5538 10.2769 87.8316C14.0696 85.319 18.1395 83.2526 22.4058 81.6735Z" fill="#7D7A7C"/>
<path d="M14.2937 85.6658C16.087 84.546 18.0799 83.7839 20.1626 83.4218C18.4996 84.6926 16.6861 85.7531 14.7633 86.5791C12.9928 87.6823 11.1136 88.6004 9.15527 89.3189C10.5824 87.7422 12.336 86.4956 14.2937 85.6658Z" fill="#F9E6CF"/>
<path opacity="0.5" d="M24.1793 86.0833C27.7788 84.3611 31.1697 82.926 33.6216 81.9083L36.4647 80.7341C36.8251 80.5744 37.2009 80.452 37.5863 80.3688C37.5863 80.3688 37.2472 80.6297 36.5951 80.995L33.8563 82.4824L24.8053 87.4663C20.6058 89.7886 17.4236 91.5369 15.3369 92.685C14.3224 93.4007 13.2283 93.9961 12.0765 94.4594C11.7113 94.068 14.7892 90.441 24.1793 86.0833Z" fill="#7D7A7C"/>
<path d="M17.6846 89.8408C19.1133 88.8205 20.7391 88.1096 22.4579 87.7533C22.6144 88.0142 20.6582 89.2667 18.2063 90.7019C16.7951 91.705 15.2496 92.5044 13.6156 93.0764C13.433 92.8416 15.2067 91.2759 17.6846 89.8408Z" fill="#F9E6CF"/>
<path opacity="0.5" d="M28.64 86.84C31.5613 85.3265 34.274 84.0218 36.2564 83.1086L38.63 82.0648C38.9215 81.9199 39.2275 81.8061 39.5429 81.7256C39.3109 81.9535 39.0474 82.1468 38.7604 82.2997L36.5433 83.6826L29.3181 88.0664C26.0211 90.3362 22.5296 92.3097 18.8847 93.9636C18.6238 93.6504 21.1279 90.7018 28.64 86.84Z" fill="#7D7A7C"/>
<path d="M23.4229 90.0756C25.4313 88.8231 27.1789 88.0925 27.3354 88.3274C27.492 88.5622 25.9269 89.7103 23.9446 90.9367C22.8162 91.8122 21.5332 92.4673 20.1625 92.8677C20.0581 92.685 21.4927 91.3803 23.4229 90.0756Z" fill="#F9E6CF"/>
<path opacity="0.5" d="M24.4142 63.0948C28.4311 63.0948 32.1089 63.3557 34.8477 63.6166L38.0038 63.9819C38.3918 64.0175 38.7758 64.0874 39.1515 64.1907C38.7612 64.2294 38.368 64.2294 37.9777 64.1907H34.7433C32.135 64.1907 28.405 64.1907 24.4403 64.4516C20.8542 64.6145 17.2821 65.0067 13.746 65.6258C11.3985 66.0955 10.2769 66.6174 10.1465 66.4087C10.0161 66.1999 10.8507 65.3649 13.1722 64.5299C16.8156 63.4383 20.6136 62.9534 24.4142 63.0948Z" fill="#7D7A7C"/>
<path d="M16.928 63.9818C18.6429 63.5736 20.4297 63.5736 22.1447 63.9818C20.5097 64.5699 18.7945 64.9043 17.0584 64.9734C15.386 65.3568 13.6848 65.6012 11.9721 65.704C11.8417 65.3126 14.0327 64.321 16.928 63.9818Z" fill="#F9E6CF"/>
<path opacity="0.5" d="M31.2482 67.609C34.1174 67.322 36.7518 67.2176 38.6559 67.2176C39.7011 67.177 40.7478 67.2206 41.7859 67.348C40.777 67.6055 39.7468 67.7715 38.7081 67.8438C36.83 68.1048 34.2217 68.4701 31.4568 68.992C28.092 69.6443 25.588 70.2445 23.9708 70.7402C22.3536 71.236 21.5711 71.6535 21.3625 71.4969C21.1538 71.3404 21.7015 70.5576 23.2666 69.6965C25.7683 68.4941 28.4783 67.7853 31.2482 67.609Z" fill="#7D7A7C"/>
<path d="M26.0316 68.8876C28.0401 68.3396 29.7355 68.3135 29.7877 68.5745C29.8398 68.8354 28.2227 69.3312 26.2925 69.8791C25.1482 70.3298 23.9444 70.611 22.719 70.7141C22.5364 70.4271 23.9971 69.4356 26.0316 68.8876Z" fill="#F9E6CF"/>
<path opacity="0.5" d="M52.7148 57.7977C54.2012 58.119 55.6651 58.5374 57.0968 59.0502C57.7092 59.2386 58.2961 59.5015 58.8444 59.833C58.8444 59.9896 55.9231 59.4677 52.5061 59.1807C50.4292 59.2018 48.3537 59.0622 46.2982 58.7632C46.2982 58.5544 46.5851 58.163 47.6806 57.7716C49.3372 57.3824 51.0624 57.3914 52.7148 57.7977Z" fill="#7D7A7C"/>
<path d="M49.5066 57.7455C50.7847 57.7455 51.7759 58.1108 51.7498 58.3717C51.7238 58.6327 50.7065 58.737 49.5066 58.7631C48.3068 58.7892 47.3417 58.7631 47.2635 58.4761C47.1852 58.1891 48.072 57.7455 49.5066 57.7455Z" fill="#F9E6CF"/>
<path opacity="0.5" d="M43.4812 49.6565C45.4573 50.3172 47.3764 51.1375 49.2196 52.1093C50.0054 52.4803 50.7487 52.9353 51.4367 53.4662C50.5909 53.2841 49.762 53.0309 48.9587 52.7095C47.0526 52.0156 45.111 51.4233 43.1421 50.9351C40.3722 50.4116 37.5618 50.1322 34.7432 50.1001C34.7432 50.1001 34.7432 49.8392 35.1083 49.5782C35.6008 49.329 36.1161 49.128 36.6473 48.9781C38.9453 48.5995 41.3024 48.8335 43.4812 49.6565Z" fill="#7D7A7C"/>
<path d="M39.0733 49.0823C40.8209 49.2389 42.1511 49.7347 42.099 50.0478C42.0468 50.3609 40.6644 50.2304 39.0211 50.0478C38.2125 50.0478 37.4561 50.0478 36.9083 50.0478C36.3606 50.0478 36.0215 50.0478 35.9954 49.839C35.9693 49.6303 36.2823 49.5259 36.8301 49.3172C37.565 49.1448 38.3186 49.0659 39.0733 49.0823Z" fill="#F9E6CF"/>
<path opacity="0.5" d="M36.126 52.7355C38.5226 53.352 40.8753 54.1279 43.1686 55.0579C44.134 55.4134 45.0676 55.8498 45.9595 56.3626C44.9404 56.219 43.9364 55.9832 42.9599 55.658C41.1341 55.2145 38.6039 54.536 35.8391 54.1185C33.358 53.6786 30.8463 53.4343 28.327 53.3879C27.463 53.5264 26.5826 53.5264 25.7186 53.3879C25.7186 53.153 26.2664 52.6573 28.014 52.1615C30.7274 51.7578 33.4964 51.9538 36.126 52.7355Z" fill="#7D7A7C"/>
<path d="M30.7525 52.2136C32.8392 52.2136 34.4303 52.866 34.3782 53.1269C34.326 53.3879 32.7088 53.3096 30.7265 53.1269C29.7353 53.1269 28.8484 53.1269 28.1181 53.1269C27.3877 53.1269 27.0747 53.1269 27.0226 52.9704C26.9704 52.8138 27.3877 52.605 28.0398 52.3963C28.935 52.2391 29.8444 52.1779 30.7525 52.2136Z" fill="#F9E6CF"/>
<path opacity="0.5" d="M21.0495 55.8668C25.5359 56.5974 29.631 57.4846 32.5524 58.2152C34.0391 58.5544 35.1607 58.8676 36.0476 59.1024C36.4891 59.1885 36.9184 59.3288 37.3257 59.5199C36.8786 59.5059 36.4335 59.4535 35.9954 59.3634L32.448 58.7632C29.4484 58.3196 25.3533 57.6934 20.8669 57.2237C16.7978 56.732 12.7058 56.4533 8.60758 56.3887C7.21747 56.4639 5.82431 56.4639 4.4342 56.3887C4.4342 56.2321 5.50363 55.4754 8.24241 55.1101C12.5258 54.7617 16.8369 55.0164 21.0495 55.8668Z" fill="#7D7A7C"/>
<path d="M12.5462 55.2927C14.5324 55.1705 16.5223 55.4637 18.3889 56.1538C16.4417 56.4206 14.4673 56.4206 12.5201 56.1538C10.5754 56.3022 8.62212 56.3022 6.67737 56.1538C8.51802 55.3349 10.548 55.0371 12.5462 55.2927Z" fill="#F9E6CF"/>
<path opacity="0.5" d="M61.2182 54.249C62.0635 54.7769 62.7772 55.4909 63.3049 56.3365C63.7222 56.9627 63.8787 57.4063 63.8266 57.4324C62.8158 56.6959 61.7423 56.0497 60.6183 55.5015C59.8745 55.2381 59.0823 55.1401 58.2968 55.2145C57.6969 55.2145 57.3317 55.2145 57.2274 55.084C57.1231 54.9535 57.2274 54.4577 57.8273 54.0924C58.3477 53.7895 58.9444 53.6432 59.5458 53.6709C60.1473 53.6987 60.7279 53.8994 61.2182 54.249Z" fill="#7D7A7C"/>
<path d="M58.9748 53.9619C59.8877 53.9619 60.4616 54.4055 60.3572 54.6143C60.2529 54.823 59.6791 54.8752 59.027 54.9535C58.3749 55.0318 57.801 54.9535 57.6706 54.7969C57.5402 54.6404 58.088 54.0141 58.9748 53.9619Z" fill="#F9E6CF"/>
<path opacity="0.5" d="M61.6097 45.5075C62.5937 47.342 63.4058 49.2638 64.0354 51.2481C64.3696 52.0829 64.5805 52.9619 64.6614 53.8575C64.5049 53.8575 63.0182 50.2044 60.4098 46.3425C59.315 44.6059 57.94 43.0628 56.3408 41.7761C55.2713 40.9672 54.541 40.7845 54.5671 40.5758C54.5932 40.367 55.3235 40.08 56.7842 40.5758C58.9051 41.6248 60.6067 43.3638 61.6097 45.5075Z" fill="#7D7A7C"/>
<path d="M58.6358 42.0372C59.9139 43.2636 60.4877 44.6465 60.2791 44.6465C60.0704 44.6465 59.1053 43.7854 57.9315 42.6634C56.7578 41.5414 55.6362 40.9151 55.7144 40.6542C55.7927 40.3933 57.3316 40.7586 58.6358 42.0372Z" fill="#F9E6CF"/>
<path opacity="0.5" d="M86.8582 71.4708C83.3369 69.3833 79.8939 68.3918 79.946 68.2091C80.7211 68.2183 81.4921 68.3235 82.2414 68.5222C84.0385 68.9017 85.7881 69.4793 87.4581 70.2444C89.3779 71.0274 90.9709 72.4459 91.9706 74.2629C92.1771 74.7463 92.3175 75.2553 92.3879 75.7763C92.3879 76.1677 92.3879 76.3504 92.1792 76.3764C91.9706 76.4025 91.7097 75.9068 90.9794 74.9935C89.8209 73.5884 88.4263 72.3963 86.8582 71.4708Z" fill="#7D7A7C"/>
<path d="M90.0145 73.5061C89.4928 73.0103 88.9973 72.5667 88.6843 72.2014C88.3713 71.8361 88.1365 71.6013 88.2148 71.4708C88.293 71.3403 88.6321 71.4708 89.1016 71.6013C89.6791 71.9367 90.221 72.3302 90.7188 72.7755C91.8665 73.9497 92.1534 75.3849 91.8925 75.3849C91.6317 75.3849 91.0057 74.4194 90.0145 73.5061Z" fill="#F9E6CF"/>
<path opacity="0.5" d="M78.7986 74.7064C78.6475 73.5276 78.3038 72.3816 77.7814 71.3142C78.3774 71.6335 78.8993 72.0752 79.3129 72.6103C79.7264 73.1454 80.0223 73.7619 80.1811 74.4194C80.9636 77.0287 79.842 78.3595 79.529 78.2551C79.216 78.1508 78.903 77.0287 78.7986 74.7064Z" fill="#7D7A7C"/>
<path d="M79.1637 76.4286C79.1637 75.7501 79.1637 75.1761 79.581 75.1239C79.9984 75.0717 80.207 75.6719 80.181 76.4286C80.1549 77.1853 79.868 77.7594 79.581 77.7333C79.2941 77.7072 79.1637 77.0287 79.1637 76.4286Z" fill="#F9E6CF"/>
<path opacity="0.5" d="M73.8688 84.5437C73.7721 82.2176 73.4754 79.9041 72.9819 77.6289C73.4145 78.1916 73.7415 78.8282 73.947 79.5077C74.6021 81.1016 75.0322 82.779 75.2251 84.4916C75.4415 86.329 75.2088 88.1915 74.547 89.9191C74.0774 91.0933 73.5558 91.5369 73.3993 91.4847C73.2428 91.4325 73.634 89.3189 73.8688 84.5437Z" fill="#7D7A7C"/>
<path d="M73.8687 88.0403C74.0513 86.7095 74.3122 85.6396 74.573 85.6396C74.8338 85.6396 75.0686 86.7878 74.8599 88.249C74.6512 89.7103 74.0774 90.7279 73.7905 90.6236C73.5036 90.5192 73.5818 89.345 73.8687 88.0403Z" fill="#F9E6CF"/>
<path opacity="0.5" d="M57.0188 98.6083L60.8009 90.2322C61.3226 89.1884 61.7399 88.3012 62.0268 87.6228C62.3138 86.9444 62.4963 86.6834 62.5485 86.7095C62.4872 87.0548 62.4 87.395 62.2877 87.7272L61.4008 90.3366C60.5922 92.6067 59.4967 95.5553 58.323 98.9997C55.3755 107.089 53.1062 110.977 52.7932 110.82C52.4802 110.664 53.2888 106.984 57.0188 98.6083Z" fill="#7D7A7C"/>
<path d="M54.7232 104.819C55.1603 103.323 55.9068 101.936 56.9142 100.748C56.8312 102.309 56.4036 103.833 55.6622 105.21C55.2372 106.71 54.4894 108.1 53.4712 109.281C53.5721 107.722 53.9986 106.202 54.7232 104.819Z" fill="#F9E6CF"/>
<path opacity="0.5" d="M64.5309 100.096C65.0525 97.1471 65.496 94.4072 65.8351 92.398C65.9808 91.3128 66.2075 90.2399 66.5132 89.1885C66.5857 90.2832 66.5857 91.3815 66.5132 92.4763C66.3828 94.4855 66.2524 97.2514 65.9655 100.304C65.3655 107.611 63.8788 111.264 63.4875 111.133C63.0963 111.003 63.2789 107.741 64.5309 100.096Z" fill="#7D7A7C"/>
<path d="M63.957 105.732C64.3221 103.618 64.7134 101.896 65.0003 101.922C65.3541 103.221 65.3541 104.59 65.0003 105.888C64.6612 108.002 64.1656 109.698 63.8526 109.646C63.5956 108.35 63.6312 107.012 63.957 105.732Z" fill="#F9E6CF"/>
<path opacity="0.5" d="M67.5046 111.707C67.8176 106.776 68.1306 102.261 68.3393 98.9475C68.4697 97.3035 68.574 95.9467 68.6262 95.0073C68.63 94.5234 68.6913 94.0416 68.8088 93.5721C68.8352 94.0589 68.8352 94.5467 68.8088 95.0334C68.8088 95.9728 68.8088 97.3035 68.8088 98.9475C68.8088 102.261 68.8088 106.776 68.8088 111.759C68.6262 123.763 67.0612 130.025 66.6438 129.842C66.2265 129.66 66.6699 124.441 67.5046 111.707Z" fill="#7D7A7C"/>
<path d="M67.1656 120.945C67.1502 118.79 67.449 116.646 68.0524 114.578C68.4517 116.695 68.4958 118.865 68.1829 120.997C68.1942 123.165 67.8324 125.319 67.1134 127.364C66.837 125.232 66.8546 123.072 67.1656 120.945Z" fill="#F9E6CF"/>
<path opacity="0.5" d="M70.1908 97.9037C70.5821 95.0073 70.869 92.3196 70.9733 90.3365C71.0065 89.262 71.1023 88.1903 71.2603 87.127C71.3417 87.4079 71.3942 87.6964 71.4168 87.988C71.4168 88.536 71.5472 89.3449 71.5994 90.3365C71.7734 92.9429 71.7734 95.5581 71.5994 98.1646C71.4668 100.944 70.8305 103.676 69.7213 106.228C69.3657 106.85 68.9738 107.451 68.5476 108.028C68.2346 108.393 67.9737 108.498 67.8955 108.446C67.8172 108.393 69.0171 105.445 70.1908 97.9037Z" fill="#7D7A7C"/>
<path d="M69.4348 103.384C69.5972 102.108 70.0046 100.877 70.6346 99.7565C70.9476 99.7565 70.8954 101.531 70.3999 103.644C70.1419 104.54 69.8104 105.413 69.4087 106.254C69.0174 106.88 68.7044 107.219 68.6001 107.141C68.4957 107.063 68.6001 106.645 68.7305 105.993C68.8609 105.341 69.0957 104.375 69.4348 103.384Z" fill="#F9E6CF"/>
<path opacity="0.5" d="M78.9548 84.5699C78.4853 82.2476 77.9637 80.134 77.5724 78.5945L77.0507 76.794C77.0189 76.5602 77.0189 76.3232 77.0507 76.0895C77.5569 76.8029 77.9772 77.5737 78.3028 78.3857C79.1279 80.2911 79.8421 82.2427 80.4416 84.2307C82.0849 89.8148 81.8762 92.9199 81.5371 92.9721C81.198 93.0243 80.0764 90.5715 78.9548 84.5699Z" fill="#7D7A7C"/>
<path d="M80.1025 88.8491C79.7373 87.1791 79.6851 85.7962 79.946 85.7179C80.2068 85.6396 80.7285 86.9704 81.0937 88.6404C81.4588 90.3104 81.4328 91.7455 81.0937 91.7716C80.7546 91.7977 80.4677 90.5191 80.1025 88.8491Z" fill="#F9E6CF"/>
<path opacity="0.5" d="M74.4424 113.56C74.2598 109.803 74.0772 106.306 73.9468 103.749C73.9468 102.496 73.9468 101.453 73.8164 100.748C73.7821 100.375 73.7821 99.9992 73.8164 99.626C73.9601 99.9663 74.0482 100.328 74.0772 100.696C74.0772 101.426 74.3641 102.444 74.5728 103.697C74.964 106.306 75.4596 109.672 75.8509 113.456C76.8942 122.667 75.8509 127.546 75.3553 127.468C74.8597 127.39 74.9119 123.293 74.4424 113.56Z" fill="#7D7A7C"/>
<path d="M75.0165 120.579C74.7973 118.932 74.8947 117.258 75.3034 115.647C75.9079 117.208 76.1574 118.884 76.0338 120.553C76.3007 122.208 76.1482 123.904 75.5903 125.485C75.1368 123.891 74.9431 122.235 75.0165 120.579Z" fill="#F9E6CF"/>
<path opacity="0.5" d="M57.5143 19.6226C58.8707 24.2151 59.9401 28.4683 60.6704 31.5735C61.0356 33.113 61.3225 34.3916 61.5051 35.2788C61.6404 35.7283 61.7192 36.1928 61.7399 36.6618C61.5385 36.2146 61.3728 35.7521 61.2443 35.2788L60.0705 31.704C59.0793 28.651 57.7491 24.5021 56.1841 19.9879C54.2799 14.5604 52.7932 10.4637 51.6977 7.80209C51.0538 6.48279 50.4961 5.12305 50.0283 3.73147C50.1587 3.57491 51.2803 4.46209 52.6367 7.01928C54.7155 11.0306 56.351 15.2567 57.5143 19.6226Z" fill="#7D7A7C"/>
<path d="M54.3582 11.1421C55.2735 13.0232 55.8307 15.0584 56.0014 17.1436C54.8803 15.392 54.0028 13.4959 53.3931 11.5074C52.5186 9.63668 51.8201 7.68865 51.3064 5.68848C52.7324 7.24514 53.7772 9.11214 54.3582 11.1421Z" fill="#F9E6CF"/>
<path opacity="0.5" d="M52.3237 46.1598C53.6433 47.3585 54.8483 48.6776 55.9232 50.1C56.409 50.6723 56.8209 51.3035 57.1491 51.9788C57.0187 51.9788 54.6712 49.5781 51.4629 47.2558C50.0833 46.2042 48.5415 45.3845 46.8983 44.8291C45.8289 44.542 45.2028 44.6464 45.1246 44.4377C45.0463 44.2289 45.4898 43.6548 46.8983 43.6027C48.9623 43.7483 50.8973 44.6603 52.3237 46.1598Z" fill="#7D7A7C"/>
<path d="M48.8806 44.2289C50.3152 44.8291 51.1238 45.7946 50.9673 46.0033C50.8108 46.2121 49.7414 45.6902 48.4894 45.1683C47.2374 44.6464 46.194 44.4899 46.1418 44.2028C46.0897 43.9158 47.446 43.5766 48.8806 44.2289Z" fill="#F9E6CF"/>
<path opacity="0.5" d="M24.3884 47.8037C29.6051 49.6563 34.4305 51.5612 37.8997 53.0224L41.9687 54.7707C42.4784 54.9845 42.9749 55.2284 43.4555 55.5013C42.9132 55.3882 42.3811 55.2312 41.8644 55.0316L37.6649 53.5443C34.1436 52.344 29.266 50.7001 23.9449 49.0823C17.4762 47.1339 12.5812 45.7684 9.25985 44.9855C7.56128 44.7105 5.88034 44.3358 4.22571 43.8635C4.22571 43.6809 5.79073 43.3155 9.15551 43.8635C14.3539 44.6549 19.458 45.9751 24.3884 47.8037Z" fill="#7D7A7C"/>
<path d="M14.2675 44.9856C16.6735 45.4732 18.9825 46.3549 21.1014 47.595C18.6895 47.3231 16.3173 46.7714 14.0328 45.9511C11.6597 45.4859 9.32344 44.8493 7.04236 44.0463C9.48991 43.8504 11.9513 44.1704 14.2675 44.9856Z" fill="#F9E6CF"/>
<path opacity="0.5" d="M24.284 53.1269C29.0834 54.3533 33.4133 55.7363 36.5433 56.7278L40.2733 57.9803C40.7296 58.1193 41.1744 58.2938 41.6036 58.5022C41.1269 58.4597 40.6553 58.3723 40.1951 58.2413L36.4651 57.328C33.2568 56.5713 28.8487 55.5014 24.0493 54.4838C18.2326 53.2573 13.8245 52.3963 10.851 51.8744C9.33156 51.7651 7.82289 51.5383 6.3385 51.1959C6.3385 51.0133 7.66877 50.5436 10.6684 50.6219C15.2833 50.9686 19.8478 51.8084 24.284 53.1269Z" fill="#7D7A7C"/>
<path d="M15.1804 51.4309C17.3334 51.6148 19.4315 52.2082 21.3622 53.1791C19.2273 53.1992 17.0982 52.9538 15.0239 52.4485C12.9028 52.2407 10.8065 51.83 8.76379 51.2221C10.8925 50.8259 13.0819 50.8971 15.1804 51.4309Z" fill="#F9E6CF"/>
<path opacity="0.5" d="M34.326 43.8376C37.7951 45.5337 40.8991 47.2819 43.0901 48.6127C44.1856 49.2651 45.0725 49.813 45.6985 50.2305C46.0214 50.4207 46.3269 50.639 46.6114 50.8829C46.2507 50.7785 45.9012 50.6387 45.568 50.4654L42.8032 49.1607C40.4817 48.0647 37.2734 46.5513 33.7522 45.1162C30.5562 43.7698 27.2912 42.5939 23.9708 41.5935C22.8008 41.407 21.6548 41.0919 20.5538 40.6541C20.5538 40.4976 21.6233 40.0801 23.9708 40.3671C27.5844 40.9685 31.0796 42.1399 34.326 43.8376Z" fill="#7D7A7C"/>
<path d="M27.4921 41.3847C29.1545 41.745 30.7036 42.5064 32.0045 43.6027C30.3409 43.4376 28.713 43.0151 27.1791 42.3502C25.5609 41.9798 23.9869 41.4375 22.484 40.7324C24.1814 40.4715 25.918 40.6977 27.4921 41.3847Z" fill="#F9E6CF"/>
<path opacity="0.5" d="M92.6489 67.4263C88.7364 66.4348 85.2673 66.0433 85.2934 65.8868C86.0297 65.7268 86.7852 65.6741 87.5366 65.7302C89.333 65.6975 91.1293 65.8022 92.9098 66.0434C94.8864 66.231 96.7772 66.9426 98.3873 68.1048C99.4568 69.018 99.5872 69.8269 99.4046 69.9052C97.234 68.8723 94.9724 68.0424 92.6489 67.4263Z" fill="#7D7A7C"/>
<path d="M96.2749 68.2612C94.9707 67.7394 93.8491 67.2697 93.9273 66.9826C94.0056 66.6956 95.2315 66.7478 96.5357 67.3219C97.8399 67.8959 98.8571 68.9136 98.6224 69.1223C98.3876 69.3311 97.579 68.757 96.2749 68.2612Z" fill="#F9E6CF"/>
<path opacity="0.5" d="M78.1985 38.0968C77.2855 41.5934 76.3205 44.7507 75.5901 47.0209L74.6511 49.6302C74.5459 49.9657 74.406 50.2893 74.2338 50.5957C74.2487 50.2432 74.3011 49.8933 74.3903 49.552C74.5207 48.8735 74.7294 47.9341 74.9641 46.7599C75.4858 44.4115 76.19 41.202 76.8682 37.6793C77.6768 33.426 78.2506 30.2426 78.5897 28.1029C78.6715 26.9972 78.8727 25.9036 79.1897 24.8412C79.3983 24.8412 79.8417 25.7806 79.8678 27.9985C79.74 31.4216 79.1791 34.8148 78.1985 38.0968Z" fill="#7D7A7C"/>
<path d="M79.3727 31.443C79.2887 33.0229 78.8329 34.5607 78.0424 35.9311C77.8585 34.3754 77.9736 32.7989 78.3815 31.2864C78.4717 29.7353 78.788 28.2057 79.3205 26.7461C79.7796 28.2756 79.7977 29.9037 79.3727 31.443Z" fill="#F9E6CF"/>
<path opacity="0.5" d="M100.527 36.3747C97.4486 39.1928 94.6316 41.8022 92.571 43.7332C91.5537 44.6464 90.693 45.4032 90.1191 45.9511C89.8206 46.2316 89.4976 46.4848 89.1541 46.7078C89.3639 46.3471 89.618 46.014 89.9105 45.7163L92.1276 43.2635C94.0578 41.2021 96.6661 38.3839 99.5353 35.4353C106.5 28.0769 110.621 24.8152 110.882 24.9979C111.143 25.1805 108.378 28.9641 100.527 36.3747Z" fill="#7D7A7C"/>
<path d="M105.926 30.7124C104.73 32.1167 103.289 33.2925 101.674 34.1828C101.466 33.9741 103.031 32.1214 105.143 30.0078C106.363 28.5864 107.841 27.4089 109.499 26.5374C108.576 28.138 107.365 29.5535 105.926 30.7124Z" fill="#F9E6CF"/>
<path opacity="0.5" d="M105.456 45.2204L95.1791 50.4392L92.023 52.0831C91.6448 52.3101 91.2423 52.4939 90.8231 52.6311C91.1568 52.3403 91.5146 52.0785 91.8925 51.8483L94.8661 49.9173C97.4744 48.2995 100.891 46.1337 104.804 43.8897C108.337 41.7731 112.046 39.9659 115.889 38.4883C118.498 37.5228 120.011 37.4445 120.037 37.6272C120.063 37.8098 118.967 38.3056 116.62 39.4798L105.456 45.2204Z" fill="#7D7A7C"/>
<path d="M112.785 41.2282C111.107 42.2279 109.286 42.967 107.386 43.4201C108.821 42.0735 110.504 41.0189 112.342 40.3149C114.028 39.2974 115.915 38.6566 117.872 38.4362C116.306 39.5859 114.596 40.5247 112.785 41.2282Z" fill="#F9E6CF"/>
<path opacity="0.5" d="M50.5761 41.202C52.3599 43.168 54.0319 45.2327 55.5842 47.3863C56.2452 48.2562 56.83 49.1816 57.3318 50.1522C56.4893 49.4224 55.7044 48.6285 54.9842 47.7777C53.6018 46.3164 51.6716 44.2811 49.4806 42.1936C47.5283 40.2808 45.4641 38.4859 43.2988 36.8183C41.8642 35.7224 41.0034 35.3571 41.0556 35.1483C41.1078 34.9396 42.0468 34.8352 43.664 35.6702C46.2978 37.059 48.6436 38.9363 50.5761 41.202Z" fill="#7D7A7C"/>
<path d="M46.2199 37.4445C47.9414 38.8275 49.037 40.2626 48.8283 40.4453C48.6196 40.6279 47.2372 39.5842 45.5678 38.2273C43.8985 36.8704 42.4639 35.905 42.5682 35.6179C42.6726 35.3309 44.4984 36.0093 46.2199 37.4445Z" fill="#F9E6CF"/>
<path opacity="0.5" d="M26.4225 33.948C30.8046 36.5574 34.6389 39.1667 37.3776 41.1238C38.7601 42.0892 39.986 42.8981 40.612 43.4983C41.0234 43.7744 41.4077 44.0889 41.7597 44.4377C41.3031 44.2355 40.8664 43.9909 40.4555 43.7071L37.0386 41.6456C34.1433 39.8974 30.1786 37.5228 25.7443 35.2788C21.749 33.0362 17.62 31.0407 13.3807 29.3033C11.8779 28.8644 10.4125 28.3059 8.99866 27.6333C8.99866 27.4507 10.4593 27.2941 13.459 28.0508C18.0321 29.407 22.3949 31.3917 26.4225 33.948Z" fill="#7D7A7C"/>
<path d="M17.8672 29.8252C19.9617 30.5579 21.8932 31.6925 23.5534 33.1651C21.4423 32.6008 19.403 31.7953 17.476 30.7645C15.425 30.0389 13.4289 29.1669 11.5028 28.1552C13.7256 28.2062 15.9055 28.7782 17.8672 29.8252Z" fill="#F9E6CF"/>
<path opacity="0.5" d="M57.3318 36.1399C58.6643 38.3827 59.8493 40.7099 60.8791 43.1069C61.3773 44.1043 61.7875 45.1433 62.1051 46.2121C61.4462 45.3171 60.8534 44.3752 60.3314 43.394C59.2619 41.6457 57.723 39.2451 56.0537 36.7923C54.5508 34.5506 52.8009 32.4849 50.8369 30.6341C49.4806 29.486 48.5937 29.199 48.6198 28.9902C48.6459 28.7815 49.6371 28.5988 51.3847 29.5382C53.8859 31.2088 55.9301 33.4781 57.3318 36.1399Z" fill="#7D7A7C"/>
<path d="M53.5235 31.6518C55.0624 33.2957 55.8971 34.9135 55.6624 35.07C55.4276 35.2266 54.2538 33.9219 52.7932 32.4607C51.3325 30.9994 49.9761 29.8513 50.0544 29.6947C50.1326 29.5382 52.115 30.06 53.5235 31.6518Z" fill="#F9E6CF"/>
<path opacity="0.5" d="M33.8563 32.3302C37.9775 35.5398 41.6813 38.7232 44.081 41.0716C45.3591 42.2459 46.3764 43.2374 47.0546 43.9159C47.4441 44.2488 47.7941 44.6252 48.0979 45.0379C47.6765 44.7628 47.2755 44.4576 46.8981 44.1246L43.6637 41.5152C41.0553 39.3755 37.2471 36.427 33.0477 33.4001C29.2627 30.6399 25.3075 28.1212 21.2057 25.859C18.4147 24.3977 16.8497 24.0846 16.8758 23.8498C16.9019 23.6149 18.4408 23.5106 21.4144 24.6326C25.9103 26.5863 30.1008 29.1789 33.8563 32.3302Z" fill="#7D7A7C"/>
<path d="M25.7183 27.0071C27.6987 28.0443 29.468 29.4426 30.935 31.1299C28.9096 30.2541 26.9855 29.1604 25.1966 27.8682C22.0405 25.9372 19.3278 24.8413 19.4061 24.5021C21.6882 24.7892 23.86 25.6511 25.7183 27.0071Z" fill="#F9E6CF"/>
<path opacity="0.5" d="M43.4816 29.3816C46.3508 32.6694 48.6984 35.8006 50.5503 38.0969L52.6109 40.8628C52.8811 41.1895 53.109 41.5489 53.2891 41.9327C52.9633 41.6599 52.6581 41.3634 52.3762 41.0455L50.0808 38.4361C48.1245 36.3225 45.464 33.3739 42.4383 30.2688C38.8127 26.5895 35.9956 23.8497 34.0394 22.2319C32.9759 21.4279 31.9652 20.5563 31.0137 19.6225C31.0137 19.4138 32.3439 19.6225 34.561 21.0838C37.877 23.4568 40.875 26.2455 43.4816 29.3816Z" fill="#7D7A7C"/>
<path d="M37.6386 23.7193C39.1398 24.8904 40.3755 26.3667 41.2642 28.0508C39.6539 27.0776 38.195 25.8731 36.9344 24.476C35.4736 23.3121 34.1284 22.0101 32.9175 20.588C34.7362 21.2041 36.3633 22.2832 37.6386 23.7193Z" fill="#F9E6CF"/>
<path opacity="0.5" d="M66.4874 18.5266C67.2438 23.38 67.7394 27.8421 68.0263 31.1038C68.1828 32.7216 68.2871 34.0524 68.3654 34.9918C68.4053 35.4693 68.4053 35.9494 68.3654 36.4269C68.2324 35.9641 68.1279 35.4935 68.0524 35.0178C67.8959 34.1046 67.6611 32.7999 67.3742 31.2082C66.8525 27.9725 66.07 23.5627 65.1571 18.7875C63.9833 12.9947 62.9661 8.66317 62.1575 5.74067C61.3489 2.81817 60.6446 1.56567 60.8011 1.4352C60.9576 1.30473 62.0531 2.2963 63.2008 5.06223C64.8149 9.40756 65.9178 13.9261 66.4874 18.5266Z" fill="#7D7A7C"/>
<path d="M64.3743 9.57641C65.065 11.607 65.3745 13.7479 65.2873 15.8911C64.3933 13.9663 63.7617 11.9302 63.4093 9.83735C62.7568 7.83462 62.2598 5.78453 61.9225 3.70532C63.2116 5.42994 64.0539 7.44695 64.3743 9.57641Z" fill="#F9E6CF"/>
<path opacity="0.5" d="M52.4017 26.5113C54.0189 29.7991 55.297 32.8781 56.1839 35.2788C56.6273 36.4269 56.9664 37.3402 57.2011 37.8881C57.3477 38.222 57.4528 38.5725 57.5141 38.9319C57.2747 38.617 57.0895 38.2642 56.9664 37.8881L55.61 35.2788C54.4884 33.1391 53.0017 30.06 51.1497 27.0332C49.5653 24.1646 47.8237 21.3857 45.933 18.7093C44.681 16.9349 43.8202 16.2564 43.8985 16.0999C43.9767 15.9433 45.1244 16.0999 46.7155 17.7699C49.0765 20.3526 50.9975 23.3057 52.4017 26.5113Z" fill="#7D7A7C"/>
<path d="M48.7503 20.6923C49.7707 21.9391 50.4693 23.4176 50.7848 24.9978C50.5239 25.1543 49.3502 23.4061 47.8895 21.2664C46.8803 20.0511 46.0057 18.73 45.2811 17.3262C45.542 17.0131 47.2896 18.4744 48.7503 20.6923Z" fill="#F9E6CF"/>
<path opacity="0.5" d="M52.6367 21.4752C54.906 26.9549 56.7057 32.0693 57.8534 35.8007L59.288 40.2627C59.4693 40.8099 59.6174 41.3676 59.7314 41.9327C59.4541 41.4311 59.2185 40.9074 59.0272 40.3671L57.3317 36.0355C55.845 32.3824 53.7844 27.3985 51.3325 22.0493C49.1573 17.171 46.6382 12.4535 43.7943 7.93255C41.838 4.95787 40.4035 3.83584 40.5078 3.67927C40.6121 3.52271 42.2815 4.12287 44.5768 6.9149C47.9227 11.3727 50.6351 16.2727 52.6367 21.4752Z" fill="#7D7A7C"/>
<path d="M47.5502 11.7945C48.9691 13.9476 50.0019 16.3317 50.602 18.8398C49.0968 16.7783 47.7787 14.5864 46.6633 12.2903C44.6288 8.63716 42.5943 5.9495 42.7508 5.76685C44.8089 7.36367 46.4547 9.43059 47.5502 11.7945Z" fill="#F9E6CF"/>
<path opacity="0.5" d="M47.4721 28.103C50.0805 32.6694 52.4019 36.9487 54.0191 40.08C54.7755 41.6456 55.4276 42.9503 55.871 43.8375C56.1063 44.2949 56.3153 44.7653 56.497 45.2465C56.173 44.8465 55.885 44.4187 55.6363 43.968L53.4453 40.4975C51.6194 37.4967 49.1154 33.3478 46.2723 28.938C42.8292 23.4844 40.1426 19.6225 38.2385 17.0131C36.3344 14.4037 35.1606 13.2556 35.265 13.073C35.3693 12.8903 36.7778 13.5427 38.9688 15.9172C42.219 19.6724 45.0688 23.7564 47.4721 28.103Z" fill="#7D7A7C"/>
<path d="M41.8902 19.9096C43.3483 21.6965 44.4947 23.7167 45.2811 25.8851C43.6713 24.2679 42.2614 22.4632 41.0816 20.5098C39.6616 18.7317 38.3798 16.8474 37.2473 14.8735C39.1344 16.2038 40.7171 17.9205 41.8902 19.9096Z" fill="#F9E6CF"/>
<path opacity="0.5" d="M42.334 69.2006C44.6433 68.7251 46.9769 68.3766 49.3244 68.1569C50.3052 68.0753 51.291 68.0753 52.2718 68.1569C51.3654 68.4036 50.4409 68.5781 49.507 68.6787C47.7594 69.0962 45.3336 69.6703 42.7774 70.4531C39.6734 71.3925 37.4042 72.2275 35.9174 72.8277C34.4306 73.4278 33.6481 73.7931 33.5438 73.6887C33.4395 73.5844 33.8307 72.8537 35.1871 71.8361C37.394 70.54 39.8141 69.6475 42.334 69.2006Z" fill="#7D7A7C"/>
<path d="M37.5083 70.8445C39.3602 70.1139 40.9513 69.9312 41.0295 70.1922C41.1078 70.4531 39.6471 71.0794 37.8995 71.7839C36.9866 72.1231 36.2302 72.4884 35.6041 72.645C34.9781 72.8016 34.6651 73.0103 34.5608 72.8798C34.4565 72.7494 34.7434 72.4362 35.2651 72.0187C35.9713 71.5527 36.7229 71.1593 37.5083 70.8445Z" fill="#F9E6CF"/>
<path opacity="0.5" d="M23.9969 73.1669C27.9952 72.1622 32.0438 71.3696 36.1257 70.7924C37.7168 70.5575 38.9949 70.4009 39.8818 70.3227C40.3503 70.2803 40.8218 70.2803 41.2903 70.3227L39.934 70.688L36.2562 71.523C33.1522 72.2275 28.9006 73.2191 24.362 74.602C20.2416 75.8007 16.2421 77.3819 12.4157 79.325C9.80736 80.7341 8.92051 81.8039 8.73793 81.6734C8.55534 81.543 9.15527 80.2383 11.5289 78.4639C15.3183 75.9358 19.547 74.1392 23.9969 73.1669Z" fill="#7D7A7C"/>
<path d="M15.5982 76.2981C17.4591 75.3237 19.5019 74.7461 21.5974 74.6021C19.838 75.6738 17.9661 76.5488 16.0155 77.2114C12.9898 78.5944 10.6162 80.0556 10.3815 79.873C10.1467 79.6903 12.3899 77.7072 15.5982 76.2981Z" fill="#F9E6CF"/>
<path opacity="0.5" d="M22.7712 71.0794C28.1444 70.2183 33.0742 69.6703 36.6738 69.3311L40.9515 68.9397H42.5426C42.0442 69.1109 41.5278 69.2247 41.0037 69.2789L36.7781 70.0095C33.2047 70.6097 28.3009 71.4447 23.006 72.6189C16.6155 73.9236 11.8161 75.0456 8.65996 75.985C5.50384 76.9244 4.01707 77.6289 3.91274 77.4724C3.8084 77.3158 4.93 76.1938 7.9557 74.863C12.7374 73.0521 17.7069 71.783 22.7712 71.0794Z" fill="#7D7A7C"/>
<path d="M12.9898 73.4018C15.2354 72.6617 17.5904 72.3088 19.9542 72.358C17.7713 73.3039 15.4871 73.9956 13.1463 74.4195C10.9185 75.1332 8.6437 75.6912 6.3385 76.0895C8.34013 74.7321 10.6074 73.8159 12.9898 73.4018Z" fill="#F9E6CF"/>
<path opacity="0.5" d="M21.18 59.6504C26.3968 60.2244 30.9614 60.8507 34.2219 61.3725L38.2387 62.0249C38.7428 62.0838 39.2405 62.1886 39.7255 62.338C39.2223 62.384 38.7159 62.384 38.2127 62.338L34.1436 62.051L20.9192 61.1116C14.7374 60.7202 10.0684 60.4332 6.93838 60.3288C5.35067 60.3696 3.7624 60.2735 2.19116 60.0418C2.19116 59.8591 3.54751 59.3111 6.62538 59.1024C11.4837 58.8813 16.352 59.0646 21.18 59.6504Z" fill="#7D7A7C"/>
<path d="M11.5811 59.2329C13.8241 59.1451 16.0654 59.4453 18.2063 60.1201C15.9958 60.4555 13.7509 60.4994 11.5289 60.2505C9.30876 60.294 7.08969 60.1192 4.90369 59.7287C7.07441 59.121 9.34448 58.9524 11.5811 59.2329Z" fill="#F9E6CF"/>
<path opacity="0.5" d="M75.3559 39.9495C74.6777 42.9242 73.9734 45.638 73.4518 47.595C73.1972 48.6783 72.8659 49.7421 72.4606 50.7784C72.4918 49.6743 72.6139 48.5747 72.8257 47.4906C73.1127 45.4553 73.53 42.6894 73.9734 39.6625C74.284 35.9422 75.0012 32.2671 76.1123 28.7031C76.5557 28.6771 77.1295 32.2519 75.3559 39.9495Z" fill="#7D7A7C"/>
<path d="M76.1119 34.2611C75.7989 36.453 75.2512 38.1491 74.9643 38.0969C74.6651 36.7918 74.6651 35.4358 74.9643 34.1307C75.0287 32.7924 75.3567 31.48 75.9294 30.2688C76.3467 30.2949 76.451 32.0954 76.1119 34.2611Z" fill="#F9E6CF"/>
<path opacity="0.5" d="M71.9385 26.8244C71.6255 31.7561 71.2342 36.2703 70.8951 39.5581C70.7125 41.202 70.5821 42.5328 70.4778 43.4461C70.4642 43.9328 70.3853 44.4156 70.243 44.8812C70.1991 44.4039 70.1991 43.9235 70.243 43.4461C70.243 42.5067 70.243 41.1759 70.243 39.532C70.243 36.2181 70.3995 31.7039 70.5039 26.7722C70.6604 20.8228 70.7386 16.3347 70.8169 13.2817C70.7395 11.7536 70.8358 10.2217 71.1038 8.71533C71.5733 8.61095 72.8253 14.0906 71.9385 26.8244Z" fill="#7D7A7C"/>
<path d="M71.9909 17.5872C72.1448 19.7399 71.9242 21.9029 71.3388 23.9801C70.9259 21.8758 70.803 19.7249 70.9736 17.5872C70.8513 15.4482 70.9827 13.3023 71.3649 11.1942C71.9819 13.2652 72.1945 15.4357 71.9909 17.5872Z" fill="#F9E6CF"/>
<path opacity="0.5" d="M75.5906 25.4414C74.8863 30.347 74.156 34.8351 73.556 38.0707C73.3213 39.6885 72.9822 41.0193 72.9822 41.9326C72.8965 42.4084 72.7832 42.8789 72.6431 43.3417C72.5802 42.8654 72.5802 42.3828 72.6431 41.9065C72.6431 40.9671 72.8518 39.6364 73.0083 37.9925C73.3474 34.7046 73.7908 30.1643 74.2864 25.2848C74.8602 19.3354 75.3036 14.8473 75.6166 11.8204C75.6474 10.2791 75.8575 8.74669 76.2427 7.25402C76.6861 7.20184 77.5208 12.7859 75.5906 25.4414Z" fill="#7D7A7C"/>
<path d="M76.3989 16.2043C76.381 18.3657 76.0019 20.5088 75.2773 22.5451C75.0033 20.4107 75.0473 18.2475 75.4077 16.126C75.4438 13.9773 75.7327 11.8403 76.2685 9.75916C76.7134 11.8806 76.7576 14.0666 76.3989 16.2043Z" fill="#F9E6CF"/>
<path opacity="0.5" d="M82.7631 39.5319C81.485 42.3762 80.1548 44.9594 79.294 46.8121C78.817 47.8328 78.2679 48.8182 77.6508 49.7607C77.912 48.6614 78.2699 47.5874 78.7202 46.5512C79.4244 44.568 80.3895 41.9065 81.459 39.0101C82.586 35.3984 83.9362 31.8602 85.5019 28.416C86.0236 28.416 86.0236 32.1996 82.7631 39.5319Z" fill="#7D7A7C"/>
<path d="M84.6152 34.0002C83.8849 36.1138 83.0241 37.7316 82.7633 37.6272C82.7622 36.2642 83.0651 34.9181 83.6502 33.6871C84.3805 31.5996 84.9804 29.9296 85.2673 29.9818C85.4349 31.356 85.2088 32.7496 84.6152 34.0002Z" fill="#F9E6CF"/>
<path opacity="0.5" d="M77.3379 91.4325C76.7902 88.6666 76.1642 86.2138 75.6425 84.2829C75.3147 83.2924 75.0533 82.2812 74.86 81.256C74.86 81.256 75.0426 81.5169 75.3034 82.0127C75.5642 82.5085 75.8512 83.1869 76.2424 84.0741C77.2066 86.3688 78.0255 88.7219 78.6943 91.1194C80.6245 97.956 79.216 101.87 78.6943 101.687C78.1726 101.505 78.5378 101.453 78.5117 101.061C78.4181 100.447 78.3571 99.8288 78.3291 99.2085C78.1576 96.5987 77.8266 94.0019 77.3379 91.4325Z" fill="#7D7A7C"/>
<path d="M78.4074 96.5991C78.13 95.3796 78.13 94.1133 78.4074 92.8938C78.6943 92.8938 79.2421 94.4333 79.4507 96.4947C79.6594 98.5561 79.2681 100.278 78.9812 100.252C78.584 99.076 78.3899 97.8406 78.4074 96.5991Z" fill="#F9E6CF"/>
<path opacity="0.5" d="M78.9813 106.515L75.8773 94.1724C75.4861 92.5806 75.1731 91.276 74.9644 90.3627C74.8352 89.9004 74.7394 89.4296 74.6775 88.9536C74.9033 89.3782 75.0867 89.8239 75.2252 90.2844C75.5122 91.1716 75.9556 92.4502 76.5033 93.9897C77.5467 97.121 78.9291 101.426 80.3116 106.149C83.8068 117.605 84.1198 123.998 83.6242 123.998C83.009 122.698 82.5788 121.319 82.3461 119.901C81.6157 116.978 80.5202 112.673 78.9813 106.515Z" fill="#7D7A7C"/>
<path d="M81.4333 115.387C80.7854 113.342 80.4254 111.216 80.3639 109.072C81.3939 110.965 82.0909 113.022 82.4245 115.152C83.0999 117.203 83.383 119.363 83.2592 121.519C82.4046 119.556 81.7915 117.497 81.4333 115.387Z" fill="#F9E6CF"/>
<path opacity="0.5" d="M83.7281 97.9038C82.2153 94.068 80.7025 90.5975 79.6069 88.0403L78.3288 84.8569C78.1613 84.4941 78.0218 84.119 77.9115 83.7349C77.9115 83.7349 78.1984 84.0741 78.5897 84.7525L80.1808 87.6228C81.511 90.0495 83.2586 93.4156 85.0062 97.1992C86.7011 100.622 88.0216 104.218 88.9449 107.924C89.5187 110.533 89.3361 111.838 89.1535 111.838C88.971 111.838 87.7711 107.637 83.7281 97.9038Z" fill="#7D7A7C"/>
<path d="M86.7541 104.845C85.9886 103.195 85.4953 101.433 85.2935 99.626C86.4339 101.046 87.2606 102.691 87.7192 104.453C88.4903 106.081 88.8572 107.872 88.7887 109.672C87.9182 108.151 87.235 106.53 86.7541 104.845Z" fill="#F9E6CF"/>
<path opacity="0.5" d="M92.8577 89.8929C91.1101 87.2836 89.3103 85.1178 88.0061 83.4739C87.2622 82.6439 86.5655 81.7728 85.9194 80.8645C85.9194 80.8645 86.2064 81.0211 86.6498 81.4125C87.0932 81.8039 87.7192 82.3779 88.4756 83.1086C90.4355 84.9904 92.2737 86.9949 93.9793 89.1101C95.8996 91.3386 97.3542 93.9294 98.257 96.7295C98.7526 98.6865 98.4917 99.7564 98.257 99.7564C96.7484 96.3172 94.9417 93.0168 92.8577 89.8929Z" fill="#7D7A7C"/>
<path d="M96.1181 94.6159C95.1008 92.685 94.214 91.0933 94.4487 90.9367C94.6835 90.7801 95.9355 92.137 97.0571 94.1462C98.1787 96.1555 98.3874 98.0864 98.1004 98.1386C97.8135 98.1908 97.1614 96.5469 96.1181 94.6159Z" fill="#F9E6CF"/>
<path opacity="0.5" d="M89.9624 77.4985C88.2409 76.0112 86.5454 74.7326 85.3195 73.8193C84.6072 73.3662 83.943 72.8416 83.3372 72.2537C84.1462 72.5059 84.9248 72.8472 85.6586 73.2713C87.4732 74.1834 89.217 75.2301 90.8753 76.4026C92.7191 77.6046 94.2556 79.2222 95.3617 81.1255C96.0399 82.5085 95.9356 83.3696 95.753 83.3957C95.5704 83.4218 94.4227 81.3343 89.9624 77.4985Z" fill="#7D7A7C"/>
<path d="M93.1705 80.2122C92.101 79.0119 91.2142 78.0203 91.3968 77.7855C91.5794 77.5507 92.7792 78.2552 94.0051 79.5338C95.2311 80.8124 95.6223 82.1432 95.3615 82.2997C95.1006 82.4563 94.266 81.3864 93.1705 80.2122Z" fill="#F9E6CF"/>
<path opacity="0.5" d="M101.674 64.3473C98.6221 63.9819 95.779 63.8515 93.6923 63.721C92.5668 63.7168 91.4427 63.6384 90.3275 63.4862C91.4348 63.253 92.5611 63.122 93.6923 63.0948C95.779 62.9643 98.6221 62.8338 101.778 62.9382C104.707 62.9177 107.609 63.4948 110.308 64.6343C112.16 65.4954 112.655 66.6435 112.499 66.7218C112.342 66.8001 111.716 66.3043 109.89 65.8346C107.199 65.1039 104.45 64.6063 101.674 64.3473Z" fill="#7D7A7C"/>
<path d="M107.308 64.9213C105.196 64.4516 103.422 64.0863 103.448 63.7992C104.795 63.431 106.222 63.4764 107.543 63.9297C109.786 64.3733 111.377 65.5214 111.221 65.7563C109.895 65.5928 108.586 65.3134 107.308 64.9213Z" fill="#F9E6CF"/>
<path opacity="0.5" d="M85.0588 45.1684C83.5721 47.2298 82.1896 49.1085 81.1463 50.3871C80.6272 51.1499 80.0424 51.8659 79.3987 52.5268C79.7075 51.6135 80.1187 50.7381 80.6246 49.9174C81.4332 48.4301 82.5809 46.3948 83.8851 44.2029C86.989 38.9842 89.1018 36.5835 89.5452 36.7923C89.9886 37.001 88.8931 39.8453 85.0588 45.1684Z" fill="#7D7A7C"/>
<path d="M87.4842 41.0977C86.4931 42.6111 85.5019 43.7071 85.2671 43.5766C85.0324 43.4461 85.6323 42.0632 86.6235 40.5497C87.6147 39.0363 88.6058 37.9404 88.8406 38.0708C89.0754 38.2013 88.4754 39.5843 87.4842 41.0977Z" fill="#F9E6CF"/>
<path opacity="0.5" d="M106.108 48.0647L95.8833 52.5006L92.7272 53.8575C92.3511 54.0496 91.9582 54.2068 91.5535 54.3272C91.5535 54.3272 91.9186 54.0402 92.5968 53.6227L95.5964 51.9266C98.2048 50.5436 101.622 48.6649 105.534 46.7078C109.091 44.8972 112.811 43.4293 116.646 42.3241C119.254 41.6456 120.715 41.7761 120.715 41.9849C120.715 42.1936 119.619 42.4806 117.246 43.42C114.872 44.3594 111.247 45.8989 106.108 48.0647Z" fill="#7D7A7C"/>
<path d="M113.438 44.7508C111.791 45.5613 110.033 46.124 108.221 46.4208C109.695 45.2325 111.387 44.3459 113.203 43.8115C114.909 42.9478 116.795 42.5007 118.707 42.5068C117.047 43.463 115.278 44.2164 113.438 44.7508Z" fill="#F9E6CF"/>
<path opacity="0.5" d="M101.309 95.8423C98.1528 92.1631 95.1271 88.9014 92.9361 86.5269L90.3277 83.6826C89.9978 83.3488 89.6926 82.9912 89.4148 82.6128C89.8163 82.8718 90.1919 83.1689 90.5364 83.5L93.3795 86.1094C95.7792 88.3273 99.0136 91.3281 102.352 94.929C105.508 98.0849 108.3 101.586 110.673 105.367C112.238 107.976 112.499 109.594 112.316 109.646C112.134 109.698 111.508 108.55 109.708 106.28C107.908 104.01 105.404 100.513 101.309 95.8423Z" fill="#7D7A7C"/>
<path d="M107.282 102.601C105.866 101.021 104.656 99.2672 103.682 97.3818C105.426 98.6018 106.922 100.143 108.091 101.922C109.545 103.485 110.625 105.359 111.247 107.402C109.796 105.913 108.47 104.307 107.282 102.601Z" fill="#F9E6CF"/>
<path opacity="0.5" d="M92.7534 102.157C90.8493 98.3212 88.9191 94.9029 87.5367 92.424L85.8151 89.4754C85.5753 89.1242 85.3741 88.748 85.2152 88.3534C85.5227 88.6414 85.7942 88.9656 86.0238 89.3189C86.5194 89.9712 87.2497 90.8845 88.0583 92.0848C90.2164 95.121 92.2187 98.265 94.0576 101.505C96.0837 104.945 97.5952 108.664 98.5439 112.542C98.9874 115.152 98.9091 116.613 98.5439 116.613C97.9801 115.501 97.5761 114.315 97.3441 113.09C96.0319 109.358 94.4989 105.707 92.7534 102.157Z" fill="#7D7A7C"/>
<path d="M96.2485 109.307C95.4401 107.649 94.8442 105.895 94.4749 104.088C95.6968 105.51 96.5878 107.185 97.0832 108.994C97.5315 110.247 97.8975 111.528 98.1787 112.829C98.1787 113.873 98.1787 114.499 98.1787 114.526C98.1787 114.552 97.8136 113.951 97.5006 113.012C97.1876 112.073 96.7963 110.742 96.2485 109.307Z" fill="#F9E6CF"/>
<path opacity="0.5" d="M91.4229 58.2673C87.9016 58.7892 84.9541 59.6242 84.902 59.4676C85.4476 59.0901 86.0338 58.775 86.6496 58.5283C88.1374 57.8683 89.6718 57.3188 91.2403 56.8844C92.9231 56.3198 94.7304 56.2385 96.457 56.6495C97.683 57.0931 98.022 57.7976 97.8916 57.9281C97.7612 58.0586 97.2656 57.9281 96.3266 57.9281C94.6853 57.8983 93.0445 58.0118 91.4229 58.2673Z" fill="#7D7A7C"/>
<path d="M94.6315 57.6672C93.4056 57.6672 92.3362 57.6672 92.284 57.3802C92.2319 57.0931 93.2491 56.6756 94.6055 56.6495C95.9618 56.6234 97.2138 57.1975 96.9269 57.4584C96.64 57.7194 95.8575 57.5889 94.6315 57.6672Z" fill="#F9E6CF"/>
<path opacity="0.5" d="M94.5793 35.5657L88.2149 43.3938L86.2325 45.7162C85.9925 46.0216 85.7215 46.3015 85.424 46.5512C85.5928 46.2517 85.794 45.9717 86.0239 45.7162L87.7454 43.1068L93.4838 34.7568C98.9353 26.9287 102.326 23.4321 102.639 23.667C102.952 23.9018 100.892 27.6593 94.5793 35.5657Z" fill="#7D7A7C"/>
<path d="M98.8049 29.5903C97.1355 31.8344 95.5966 33.5044 95.3618 33.3478C95.9509 31.7369 96.8355 30.2501 97.9702 28.9641C99.6656 26.72 101.205 25.05 101.439 25.2066C100.859 26.8274 99.9635 28.3173 98.8049 29.5903Z" fill="#F9E6CF"/>
<path opacity="0.5" d="M87.276 29.799C85.085 34.1828 83.0505 38.2012 81.5898 41.1498C80.8334 42.585 80.2074 43.7592 79.79 44.5942C79.5728 45.0265 79.3289 45.4448 79.0597 45.8467C79.1856 45.381 79.3515 44.927 79.5553 44.4898C79.8944 43.6287 80.39 42.3762 81.016 40.8889C82.3201 37.8881 84.0677 33.7131 86.024 29.1989C90.7452 18.3178 93.8491 13.0208 94.2404 13.1773C94.6316 13.3339 92.884 18.4483 87.276 29.799Z" fill="#7D7A7C"/>
<path d="M90.9535 21.4229C90.2126 23.4225 89.1559 25.2902 87.8235 26.9548C88.2378 24.8571 88.9864 22.8395 90.0406 20.9794C90.7814 18.9718 91.8381 17.0955 93.1706 15.4214C92.763 17.5293 92.0141 19.5565 90.9535 21.4229Z" fill="#F9E6CF"/>
<path opacity="0.5" d="M98.6221 72.5406C96.5931 71.5383 94.5021 70.6668 92.362 69.9312C91.4697 69.6643 90.598 69.333 89.7537 68.9397C90.0137 68.9106 90.2761 68.9106 90.5362 68.9397C91.2366 69.0081 91.9331 69.1126 92.6229 69.2528C94.8927 69.6865 97.1188 70.324 99.2742 71.1576C101.647 72.0139 103.752 73.481 105.378 75.4109C105.719 75.9644 106.024 76.5397 106.291 77.1331C106.291 77.5767 106.291 77.8115 106.291 77.8637C104.015 75.7159 101.43 73.9216 98.6221 72.5406Z" fill="#7D7A7C"/>
<path d="M102.848 74.7586C102.191 74.3316 101.564 73.8608 100.97 73.3495C100.448 72.9842 100.187 72.6972 100.24 72.5667C100.292 72.4362 100.709 72.5667 101.309 72.7233C102.063 73.0724 102.787 73.4826 103.474 73.9497C104.117 74.4816 104.687 75.0957 105.169 75.7762C105.482 76.3503 105.613 76.7417 105.508 76.82C105.404 76.8983 105.065 76.6634 104.648 76.2459C104.23 75.8284 103.5 75.3848 102.848 74.7586Z" fill="#F9E6CF"/>
<path opacity="0.5" d="M111.012 71.0011C106.577 70.0096 102.456 69.305 99.4826 68.8093L95.9092 68.2091C95.4679 68.1463 95.0319 68.0503 94.605 67.9221C95.0477 67.888 95.4925 67.888 95.9352 67.9221L99.5348 68.183C102.587 68.444 106.76 68.8354 111.272 69.6182C115.461 70.2032 119.54 71.4079 123.375 73.193C125.984 74.4977 126.818 75.8024 126.688 75.985C126.557 76.1677 125.592 75.3327 123.114 74.4194C119.171 72.9806 115.125 71.838 111.012 71.0011Z" fill="#7D7A7C"/>
<path d="M119.228 72.8538C117.307 72.4211 115.449 71.7459 113.698 70.8446C115.695 70.7798 117.684 71.1262 119.541 71.8622C121.496 72.3016 123.297 73.2567 124.758 74.6282C122.884 74.1371 121.038 73.5447 119.228 72.8538Z" fill="#F9E6CF"/>
<path opacity="0.5" d="M85.4759 26.4591C83.65 31.5213 81.9024 36.166 80.5721 39.506C79.894 41.176 79.3462 42.5329 78.981 43.4723C78.8181 43.978 78.5901 44.4604 78.3029 44.9074C78.4135 44.3955 78.5528 43.8902 78.7202 43.394C79.0071 42.4024 79.4505 41.0195 79.9722 39.2973C81.0677 35.8529 82.5806 31.1299 84.1456 26.0155L88.632 11.951C89.0318 10.3233 89.6182 8.74722 90.3796 7.25415C90.823 7.30634 90.2492 13.3601 85.4759 26.4591Z" fill="#7D7A7C"/>
<path d="M88.3974 16.7783C87.8704 19.0746 86.9905 21.2753 85.7891 23.3017C86.0432 20.9706 86.5955 18.6817 87.4323 16.4913C87.9629 14.2138 88.7596 12.0068 89.8059 9.91565C89.7402 12.2679 89.2635 14.5905 88.3974 16.7783Z" fill="#F9E6CF"/>
<path opacity="0.5" d="M99.7179 81.4907C97.1096 79.899 94.8925 78.5421 93.171 77.5766C92.2094 77.0835 91.2775 76.5346 90.38 75.9327C90.6675 75.9732 90.9483 76.0522 91.2147 76.1676C91.7624 76.3502 92.5189 76.6112 93.4318 77.0026C95.8364 77.9621 98.1797 79.0688 100.448 80.3165C102.906 81.615 105.128 83.3174 107.021 85.3526C108.195 86.8921 108.534 87.7793 108.326 87.962C108.117 88.1446 106.03 85.6918 99.7179 81.4907Z" fill="#7D7A7C"/>
<path d="M104.282 84.4655C102.613 83.1608 101.309 82.0388 101.465 81.8561C101.622 81.6734 103.213 82.3519 104.908 83.6827C105.612 84.2811 106.266 84.9356 106.865 85.6397C107.282 86.2659 107.465 86.6834 107.36 86.7617C107.256 86.84 106.865 86.6052 106.369 86.1616C105.873 85.718 105.117 85.1178 104.282 84.4655Z" fill="#F9E6CF"/>
<path opacity="0.5" d="M116.933 58.7632C113.777 58.7632 110.855 59.1546 108.717 59.3633C107.567 59.5286 106.409 59.6244 105.247 59.6504C105.525 59.4996 105.824 59.3939 106.134 59.3372L108.612 58.7371C111.332 58.1303 114.084 57.6773 116.855 57.3802C119.825 56.9402 122.851 57.0641 125.775 57.7455C127.784 58.3457 128.566 59.2068 128.384 59.3372C128.201 59.4677 127.445 59.3372 125.645 58.998C122.752 58.6895 119.839 58.611 116.933 58.7632Z" fill="#7D7A7C"/>
<path d="M122.854 58.476C121.46 58.5609 120.062 58.3839 118.733 57.9542C120.049 57.3965 121.496 57.2245 122.906 57.4584C125.254 57.5888 127.08 58.3717 126.975 58.6587C125.599 58.7574 124.216 58.6961 122.854 58.476Z" fill="#F9E6CF"/>
<path opacity="0.5" d="M113.255 52.7094L104.804 54.9534L102.195 55.6319C101.569 55.7884 101.23 55.8667 101.204 55.8145C101.493 55.6373 101.799 55.4888 102.117 55.3709L104.595 54.3533C106.708 53.5183 109.629 52.4484 112.837 51.3786C115.79 50.3353 118.839 49.5922 121.941 49.1606C124.053 48.9258 125.175 49.1606 125.149 49.3955C121.266 50.7765 117.292 51.8838 113.255 52.7094Z" fill="#7D7A7C"/>
<path d="M119.28 50.9351C117.881 51.455 116.387 51.6685 114.898 51.5613C116.123 50.7003 117.536 50.1455 119.02 49.9435C120.439 49.4288 121.972 49.3115 123.454 49.6043C122.148 50.2801 120.737 50.73 119.28 50.9351Z" fill="#F9E6CF"/>
<path opacity="0.5" d="M104.883 36.6095C101.831 38.8013 99.0659 40.8888 97.0575 42.3762L94.6578 44.1767C94.3734 44.4183 94.0575 44.6202 93.7188 44.7768C93.9415 44.4811 94.1951 44.2099 94.4752 43.9679L96.6662 41.9065C98.5181 40.1843 101.1 37.8881 104.048 35.4874C106.703 33.2288 109.598 31.2687 112.682 29.6424C114.82 28.5987 116.151 28.5465 116.151 28.7292C116.151 28.9118 115.316 29.3554 113.542 30.6079C111.769 31.8604 108.847 33.7913 104.883 36.6095Z" fill="#7D7A7C"/>
<path d="M110.464 32.3563C109.198 33.4124 107.747 34.2262 106.186 34.757C106.03 34.5221 107.647 33.0087 109.89 31.4952C111.175 30.4201 112.724 29.7084 114.377 29.4338C114.507 29.6948 112.681 30.8429 110.464 32.3563Z" fill="#F9E6CF"/>
<path opacity="0.5" d="M112.446 75.8545C109.316 74.602 106.343 73.6887 104.152 73.0364L101.544 72.2797L100.604 71.9404C100.604 71.9404 100.97 71.9404 101.596 71.9404C102.222 71.9404 103.161 72.1492 104.204 72.3318C107.114 72.8595 109.988 73.5653 112.812 74.4454C115.908 75.29 118.777 76.8143 121.211 78.9075C122.802 80.4731 123.089 81.6734 122.88 81.7517C122.671 81.83 122.123 81.0993 120.585 79.9773C118.052 78.2735 115.318 76.8888 112.446 75.8545Z" fill="#7D7A7C"/>
<path d="M118.237 78.2291C116.15 77.0287 114.376 76.1676 114.507 75.8806C116.027 75.9462 117.496 76.454 118.732 77.3419C120.923 78.5683 122.228 80.2644 121.967 80.447C120.676 79.7907 119.43 79.0498 118.237 78.2291Z" fill="#F9E6CF"/>
<path opacity="0.5" d="M100.083 90.7802C97.1355 87.8577 94.2663 85.3266 92.2579 83.5L89.6495 81.3081C89.3241 81.0633 89.0267 80.7833 88.7627 80.4731C89.1322 80.6432 89.4821 80.8532 89.806 81.0994C90.4581 81.543 91.3971 82.1692 92.4144 83.0042C94.6837 84.6481 97.6311 86.9705 100.918 89.7625C103.91 92.2584 106.543 95.1562 108.743 98.3735C110.047 100.644 110.438 101.948 110.23 102.053C110.021 102.157 109.343 101.218 107.882 99.2606C106.421 97.3036 103.917 94.5377 100.083 90.7802Z" fill="#7D7A7C"/>
<path d="M105.639 96.1815C103.683 93.9635 102.092 92.137 102.3 91.9282C102.509 91.7195 104.413 93.259 106.395 95.5292C107.236 96.5154 108.003 97.562 108.691 98.6604C109.16 99.5215 109.343 100.122 109.238 100.2C109.134 100.278 108.717 99.8085 108.117 99.0779C107.517 98.3473 106.604 97.3035 105.639 96.1815Z" fill="#F9E6CF"/>
<path opacity="0.5" d="M92.962 97.0949C91.1362 93.9897 89.3625 91.1716 88.0844 89.1102L86.5976 86.6574C86.3952 86.3654 86.2288 86.05 86.1021 85.718C86.3719 85.9451 86.6089 86.2085 86.8063 86.5008C87.2497 87.0488 87.8757 87.8055 88.6061 88.7449C90.0929 90.6758 92.1013 93.3374 94.1358 96.3382C99.3525 103.54 100.239 108.341 99.822 108.42C99.4047 108.498 97.8136 105.08 92.962 97.0949Z" fill="#7D7A7C"/>
<path d="M96.6137 102.757C95.6972 101.467 95.0334 100.015 94.6575 98.4778C94.8922 98.3213 96.1964 99.9913 97.5006 102.261C98.4269 103.573 99.0017 105.1 99.1699 106.697C98.883 106.802 97.8918 104.975 96.6137 102.757Z" fill="#F9E6CF"/>
<path opacity="0.5" d="M109.499 83.3436C106.891 81.8562 104.465 80.7342 102.691 79.7165C101.696 79.2808 100.736 78.7659 99.8223 78.177C100.891 78.4106 101.938 78.7336 102.952 79.1425C105.403 79.9949 107.807 80.9792 110.151 82.0911C112.723 83.2095 115.066 84.7929 117.064 86.7618C118.394 88.1709 118.576 89.3712 118.42 89.3712C118.263 89.3712 117.716 88.8493 116.359 87.8056C114.17 86.1735 111.879 84.6831 109.499 83.3436Z" fill="#7D7A7C"/>
<path d="M114.403 86.0049C112.655 84.8046 111.246 83.787 111.403 83.3956C111.559 83.0042 113.177 83.787 114.976 85.0395C116.776 86.292 117.846 87.7793 117.585 87.962C117.324 88.1446 116.124 87.1792 114.403 86.0049Z" fill="#F9E6CF"/>
<path opacity="0.5" d="M102.691 41.1759L94.8661 46.5251L92.4664 48.169C92.1849 48.3873 91.8784 48.5712 91.5535 48.717C91.779 48.4395 92.0325 48.1859 92.3099 47.9603L94.4748 46.0293C96.3007 44.4376 98.883 42.2979 101.778 40.0278C104.416 37.9047 107.265 36.0597 110.282 34.522C112.316 33.5044 113.542 33.3478 113.594 33.5305C110.111 36.2879 106.47 38.8407 102.691 41.1759Z" fill="#7D7A7C"/>
<path d="M108.143 37.1574C105.978 38.5665 104.152 39.7668 103.97 39.4015C103.787 39.0362 105.404 37.7315 107.595 36.2964C108.837 35.2627 110.332 34.5782 111.925 34.3132C110.816 35.4476 109.541 36.4066 108.143 37.1574Z" fill="#F9E6CF"/>
<path opacity="0.5" d="M56.6799 112.464L60.1229 101.583L61.1924 98.2429C61.287 97.8213 61.4453 97.4165 61.6619 97.0426C61.6222 97.4731 61.5525 97.9004 61.4532 98.3212C61.2706 99.1301 61.0359 100.304 60.7229 101.739C60.0708 104.61 59.1579 108.576 58.1145 112.855C55.5061 123.293 52.8978 128.277 52.4544 128.068C52.0109 127.859 53.3151 123.345 56.6799 112.464Z" fill="#7D7A7C"/>
<path d="M54.5144 120.423C54.94 118.538 55.662 116.732 56.6533 115.073C56.6037 117.007 56.2061 118.917 55.4795 120.71C55.0459 122.568 54.2864 124.335 53.2363 125.928C53.346 124.034 53.7783 122.172 54.5144 120.423Z" fill="#F9E6CF"/>
<path opacity="0.5" d="M83.624 21.8666C82.3459 25.885 81.0157 29.5121 80.0767 32.1475L78.8768 35.2788C78.7453 35.6668 78.5794 36.0423 78.3812 36.4008C78.424 36.0203 78.5026 35.6446 78.616 35.2788L79.4767 32.0432C80.2071 29.4338 81.1983 25.598 82.2677 21.6057C83.5458 16.7261 84.4848 13.073 85.163 10.5158C85.3625 9.16478 85.7215 7.84216 86.2324 6.57568C86.415 6.57568 86.7019 7.776 86.415 10.281C85.8285 14.2177 84.8945 18.0948 83.624 21.8666Z" fill="#7D7A7C"/>
<path d="M85.4758 14.2211C85.2255 16.0739 84.5854 17.8526 83.5978 19.4399C83.6005 17.6119 83.9001 15.7965 84.4846 14.0646C84.7761 12.2641 85.3023 10.5095 86.0496 8.84583C86.2703 10.6579 86.0741 12.4965 85.4758 14.2211Z" fill="#F9E6CF"/>
<path opacity="0.5" d="M96.4572 37.6795C94.4487 39.7409 92.5968 41.6457 91.2404 42.8982C90.5288 43.6668 89.7616 44.382 88.9451 45.0379C89.4738 44.1148 90.0849 43.2414 90.7709 42.4285C91.9447 40.889 93.614 38.8276 95.4399 36.5835C99.848 31.156 102.691 28.7554 102.978 29.1207C103.265 29.486 101.491 32.3041 96.4572 37.6795Z" fill="#7D7A7C"/>
<path d="M99.77 33.5044C98.3876 35.044 97.1616 36.1138 96.9008 35.9833C96.64 35.8529 97.6311 34.3916 99.0136 32.826C100.396 31.2604 101.622 30.2166 101.857 30.3732C102.091 30.5297 101.126 31.9649 99.77 33.5044Z" fill="#F9E6CF"/>
<path opacity="0.5" d="M93.1968 30.7907L86.8585 39.8713L84.8761 42.6373C84.6364 42.9829 84.3657 43.3061 84.0675 43.6027C84.2224 43.2112 84.4146 42.8355 84.6413 42.4807L86.3368 39.5321C87.8235 37.0793 89.832 33.6871 92.023 30.034C97.4223 21.1882 100.839 16.9871 101.178 17.222C101.517 17.4568 99.4829 21.684 93.1968 30.7907Z" fill="#7D7A7C"/>
<path d="M97.3963 23.9802C96.4927 25.6468 95.2902 27.1328 93.8489 28.3639C94.4161 26.577 95.2996 24.9066 96.4572 23.4322C97.3195 21.7676 98.4876 20.2804 99.9003 19.0485C99.3602 20.8262 98.5127 22.4954 97.3963 23.9802Z" fill="#F9E6CF"/>
</g>
</g>
</g>
<defs>
<clipPath id="clip0_148_3728">
<rect width="129.714" height="132.295" fill="white"/>
</clipPath>
</defs>
</svg>
