<svg width="320" height="259" viewBox="0 0 320 259" fill="none" xmlns="http://www.w3.org/2000/svg">
<g filter="url(#filter0_dddd_148_4064)">
<path d="M89.7212 228.318C89.0987 228.318 88.4512 228.143 87.8785 227.819C86.5836 227.047 85.9112 225.526 86.21 224.055L96.1958 174.601C76.4982 162.96 65.2424 146.483 65.2424 129.059C65.2424 95.1838 107.701 67.6147 159.895 67.6147C212.09 67.6147 254.549 95.1838 254.549 129.059C254.549 158.274 223.919 182.976 180.066 189.108C178.124 189.382 176.306 188.011 176.032 186.067C175.758 184.123 177.128 182.303 179.07 182.029C218.665 176.495 247.426 154.211 247.426 129.059C247.426 99.1222 208.156 74.7687 159.895 74.7687C111.635 74.7687 72.3644 99.1222 72.3644 129.059C72.3644 144.464 83.1222 159.246 101.898 169.615C103.268 170.363 103.99 171.909 103.666 173.454L95.1748 215.58L135.292 182.428C136.089 181.78 137.11 181.505 138.131 181.655C145.228 182.802 152.549 183.375 159.895 183.375C161.863 183.375 163.456 184.97 163.456 186.939C163.456 188.909 161.863 190.504 159.895 190.504C152.724 190.504 145.577 189.981 138.604 188.959L91.9873 227.495C91.3399 228.044 90.5181 228.318 89.7212 228.318Z" fill="#96C8FF"/>
<path d="M89.7211 226.174C89.4721 226.174 89.2231 226.099 88.999 225.975C88.476 225.676 88.227 225.053 88.3266 224.479L98.6112 173.504C78.7393 162.237 67.3839 146.084 67.3839 129.059C67.3839 96.3553 108.896 69.7584 159.895 69.7584C210.92 69.7584 252.407 96.3553 252.407 129.059C252.407 156.728 221.852 181.107 179.767 186.989C178.97 187.089 178.273 186.566 178.149 185.768C178.049 184.995 178.572 184.272 179.369 184.148C220.034 178.464 249.568 155.282 249.568 129.059C249.568 97.9257 209.351 72.625 159.895 72.625C110.44 72.625 70.2228 97.9507 70.2228 129.059C70.2228 145.262 81.4038 160.741 100.877 171.485C101.425 171.784 101.699 172.407 101.575 173.03L91.8876 221.064L136.662 184.048C136.985 183.799 137.384 183.674 137.807 183.749C145.004 184.895 152.45 185.494 159.895 185.494C160.692 185.494 161.315 186.142 161.315 186.914C161.315 187.712 160.667 188.335 159.895 188.335C152.499 188.335 145.128 187.762 137.981 186.665L90.6176 225.85C90.3686 226.05 90.0449 226.174 89.7211 226.174Z" fill="#C0FFFF"/>
<path d="M89.7213 225.277C89.6216 225.277 89.522 225.252 89.4473 225.202C89.2481 225.077 89.1485 224.853 89.1983 224.629L99.6074 173.03C79.6857 161.938 68.2805 145.935 68.2805 129.059C68.2805 96.8537 109.394 70.6556 159.92 70.6556C210.447 70.6556 251.56 96.8537 251.56 129.059C251.56 156.279 221.329 180.284 179.693 186.092C179.394 186.142 179.12 185.917 179.095 185.643C179.045 185.344 179.269 185.07 179.543 185.045C220.657 179.287 250.489 155.756 250.489 129.059C250.489 97.452 209.874 71.7275 159.92 71.7275C109.992 71.7275 69.3513 97.452 69.3513 129.059C69.3513 145.611 80.6818 161.364 100.454 172.282C100.653 172.407 100.778 172.631 100.728 172.856L90.543 223.357L137.259 184.746C137.384 184.646 137.533 184.596 137.683 184.621C144.929 185.793 152.425 186.366 159.92 186.366C160.219 186.366 160.443 186.615 160.443 186.889C160.443 187.164 160.194 187.413 159.92 187.413C152.45 187.413 144.979 186.84 137.757 185.693L90.0699 225.152C89.9703 225.227 89.8458 225.277 89.7213 225.277Z" fill="#E6FFFF"/>
</g>
<g opacity="0.7" filter="url(#filter1_f_148_4064)">
<ellipse cx="159.958" cy="129.365" rx="60.3578" ry="30.1789" fill="#00C6FF"/>
</g>
<defs>
<filter id="filter0_dddd_148_4064" x="45.2424" y="47.6147" width="229.306" height="200.703" filterUnits="userSpaceOnUse" color-interpolation-filters="sRGB">
<feFlood flood-opacity="0" result="BackgroundImageFix"/>
<feColorMatrix in="SourceAlpha" type="matrix" values="0 0 0 0 0 0 0 0 0 0 0 0 0 0 0 0 0 0 127 0" result="hardAlpha"/>
<feOffset/>
<feGaussianBlur stdDeviation="7.5"/>
<feComposite in2="hardAlpha" operator="out"/>
<feColorMatrix type="matrix" values="0 0 0 0 0 0 0 0 0 0.776471 0 0 0 0 1 0 0 0 0.62 0"/>
<feBlend mode="normal" in2="BackgroundImageFix" result="effect1_dropShadow_148_4064"/>
<feColorMatrix in="SourceAlpha" type="matrix" values="0 0 0 0 0 0 0 0 0 0 0 0 0 0 0 0 0 0 127 0" result="hardAlpha"/>
<feOffset/>
<feGaussianBlur stdDeviation="10"/>
<feComposite in2="hardAlpha" operator="out"/>
<feColorMatrix type="matrix" values="0 0 0 0 0 0 0 0 0 0.776471 0 0 0 0 1 0 0 0 0.62 0"/>
<feBlend mode="normal" in2="effect1_dropShadow_148_4064" result="effect2_dropShadow_148_4064"/>
<feColorMatrix in="SourceAlpha" type="matrix" values="0 0 0 0 0 0 0 0 0 0 0 0 0 0 0 0 0 0 127 0" result="hardAlpha"/>
<feOffset/>
<feGaussianBlur stdDeviation="10"/>
<feComposite in2="hardAlpha" operator="out"/>
<feColorMatrix type="matrix" values="0 0 0 0 0 0 0 0 0 0.776471 0 0 0 0 1 0 0 0 0.62 0"/>
<feBlend mode="normal" in2="effect2_dropShadow_148_4064" result="effect3_dropShadow_148_4064"/>
<feColorMatrix in="SourceAlpha" type="matrix" values="0 0 0 0 0 0 0 0 0 0 0 0 0 0 0 0 0 0 127 0" result="hardAlpha"/>
<feOffset/>
<feGaussianBlur stdDeviation="10"/>
<feComposite in2="hardAlpha" operator="out"/>
<feColorMatrix type="matrix" values="0 0 0 0 0 0 0 0 0 0.776471 0 0 0 0 1 0 0 0 0.62 0"/>
<feBlend mode="normal" in2="effect3_dropShadow_148_4064" result="effect4_dropShadow_148_4064"/>
<feBlend mode="normal" in="SourceGraphic" in2="effect4_dropShadow_148_4064" result="shape"/>
</filter>
<filter id="filter1_f_148_4064" x="0.600342" y="0.186279" width="318.716" height="258.358" filterUnits="userSpaceOnUse" color-interpolation-filters="sRGB">
<feFlood flood-opacity="0" result="BackgroundImageFix"/>
<feBlend mode="normal" in="SourceGraphic" in2="BackgroundImageFix" result="shape"/>
<feGaussianBlur stdDeviation="49.5" result="effect1_foregroundBlur_148_4064"/>
</filter>
</defs>
</svg>
