<svg width="28" height="28" viewBox="0 0 28 28" fill="none" xmlns="http://www.w3.org/2000/svg">
<circle cx="14" cy="14" r="13" fill="url(#paint0_linear_423_109)" stroke="white" stroke-width="2"/>
<g filter="url(#filter0_d_423_109)">
<path d="M11.476 14.5924V8.93236C11.476 7.45858 12.6233 6.26364 14.0382 6.26364C15.4532 6.26364 16.6005 7.45858 16.6005 8.93236V14.5924H18.9694V9.13601C18.9694 6.29948 16.7616 4 14.0382 4C11.3149 4 9.10742 6.29948 9.10742 9.13601V14.5924H11.476Z" fill="white"/>
<path d="M7.83693 11.5874C7.35755 12.5042 7.06152 13.5396 7 14.6409C6.99995 19.1275 7.3951 22.3691 14.0114 22.3691C20.6276 22.3691 21 18.9658 21 15.072C21 13.799 20.6869 12.6022 20.1369 11.5605C19.8619 11.0396 19.3374 10.7151 18.7667 10.7151H9.24521C8.65772 10.7154 8.11773 11.0501 7.83693 11.5874Z" fill="white"/>
</g>
<defs>
<filter id="filter0_d_423_109" x="6" y="4" width="16" height="20.3691" filterUnits="userSpaceOnUse" color-interpolation-filters="sRGB">
<feFlood flood-opacity="0" result="BackgroundImageFix"/>
<feColorMatrix in="SourceAlpha" type="matrix" values="0 0 0 0 0 0 0 0 0 0 0 0 0 0 0 0 0 0 127 0" result="hardAlpha"/>
<feOffset dy="1"/>
<feGaussianBlur stdDeviation="0.5"/>
<feComposite in2="hardAlpha" operator="out"/>
<feColorMatrix type="matrix" values="0 0 0 0 0 0 0 0 0 0 0 0 0 0 0 0 0 0 0.21 0"/>
<feBlend mode="normal" in2="BackgroundImageFix" result="effect1_dropShadow_423_109"/>
<feBlend mode="normal" in="SourceGraphic" in2="effect1_dropShadow_423_109" result="shape"/>
</filter>
<linearGradient id="paint0_linear_423_109" x1="13.9999" y1="27.9989" x2="13.9999" y2="0.000380496" gradientUnits="userSpaceOnUse">
<stop stop-color="#067C59"/>
<stop offset="1" stop-color="#05C48A"/>
</linearGradient>
</defs>
</svg>
