<svg width="17" height="16" viewBox="0 0 17 16" fill="none" xmlns="http://www.w3.org/2000/svg">
<path fill-rule="evenodd" clip-rule="evenodd" d="M7.63769 0.567373C7.75466 0.227786 8.06524 0 8.41211 0C8.75898 0 9.06956 0.227786 9.18653 0.567373L10.82 5.28783L15.6157 5.45447C15.9625 5.46501 16.265 5.70342 16.3719 6.04934C16.4788 6.39315 16.3679 6.77281 16.0936 6.99428L12.3063 10.0779L13.6393 14.8997C13.7341 15.2477 13.6111 15.621 13.3308 15.834C13.0504 16.0492 12.6733 16.0555 12.385 15.8509L8.41211 13.0372L4.43927 15.8509C4.15088 16.0555 3.77378 16.0492 3.49346 15.834C3.21314 15.621 3.09012 15.2477 3.1849 14.8997L4.5179 10.0779L0.730574 6.99428C0.456306 6.77281 0.345412 6.39315 0.452296 6.04934C0.55918 5.70342 0.861681 5.46501 1.20855 5.45447L6.00421 5.28783L7.63769 0.567373Z" fill="url(#paint0_linear_148_11934)"/>
<defs>
<linearGradient id="paint0_linear_148_11934" x1="8.41211" y1="7.97864" x2="12.0283" y2="15.9575" gradientUnits="userSpaceOnUse">
<stop stop-color="#FFCB36"/>
<stop offset="1" stop-color="#A8882B"/>
</linearGradient>
</defs>
</svg>
