<svg width="31" height="23" viewBox="0 0 31 23" fill="none" xmlns="http://www.w3.org/2000/svg">
<path d="M31 0.161621L0 1.79596V18.1616L31 15.9818V0.161621Z" fill="#FF267E"/>
<path d="M3.38668 3.93206L7.03567 3.74082C7.51102 3.71591 7.96502 3.7295 8.39767 3.7816C8.82983 3.82437 9.21415 3.93507 9.55063 4.11371C9.88662 4.28302 10.161 4.52566 10.3739 4.84162C10.5862 5.14826 10.7056 5.55324 10.7319 6.05655C10.7573 6.54122 10.6827 6.98907 10.5079 7.40011C10.3332 7.81115 10.0741 8.12848 9.7307 8.35209C10.2261 8.53175 10.6192 8.81022 10.91 9.18752C11.2004 9.55549 11.3619 10.0517 11.3946 10.6762C11.4229 11.2168 11.3539 11.683 11.1875 12.075C11.0207 12.4575 10.7758 12.7788 10.453 13.0387C10.139 13.2888 9.76119 13.4815 9.31967 13.6168C8.88746 13.7516 8.41971 13.8322 7.9164 13.8586L3.91789 14.0681L3.38668 3.93206ZM5.28092 12.7911L7.86737 12.6555C8.59437 12.6174 9.12715 12.44 9.46569 12.1231C9.80376 11.797 9.95764 11.345 9.92736 10.7671C9.8961 10.1706 9.69188 9.75138 9.3147 9.50945C8.93703 9.25821 8.36606 9.15261 7.60177 9.19267L5.09921 9.32382L5.28092 12.7911ZM5.03986 8.19137L7.4865 8.06315C8.07369 8.03238 8.52871 7.88703 8.85155 7.62711C9.18322 7.35738 9.33343 6.92426 9.30216 6.32775C9.27481 5.8058 9.07794 5.4376 8.71154 5.22314C8.35398 4.99888 7.89093 4.90165 7.32237 4.93145L4.87573 5.05967L5.03986 8.19137ZM18.0709 7.63462L14.4817 13.5145L13.2094 13.5812L12.8153 6.05952L14.0875 5.99284L14.385 11.6691L17.9742 5.78915L19.2464 5.72247L19.6406 13.2442L18.3684 13.3108L18.0709 7.63462ZM24.8686 13.1524C24.2628 13.1842 23.7264 13.1141 23.2594 12.9423C22.8013 12.7607 22.4091 12.5009 22.083 12.1628C21.7568 11.8248 21.5021 11.4222 21.3187 10.9552C21.1447 10.4877 21.043 9.97428 21.0137 9.41504C20.9824 8.81853 21.0429 8.27796 21.1951 7.79333C21.3561 7.29889 21.5863 6.8756 21.8856 6.52345C22.1937 6.16149 22.5622 5.88049 22.991 5.68044C23.4193 5.47107 23.8944 5.35271 24.4163 5.32536C24.9942 5.29507 25.5127 5.38005 25.9718 5.5803C26.4402 5.78006 26.8338 6.06785 27.1526 6.44369C27.4714 6.81952 27.7097 7.26499 27.8675 7.7801C28.0347 8.29472 28.1153 8.85127 28.1093 9.44974L22.4191 9.74795C22.4386 10.1208 22.5121 10.4534 22.6396 10.7458C22.7764 11.0377 22.9527 11.2808 23.1685 11.4751C23.3843 11.6694 23.6303 11.8154 23.9064 11.9131C24.1826 12.0108 24.4744 12.0515 24.782 12.0354C25.3692 12.0046 25.8107 11.8694 26.1066 11.6295C26.402 11.3804 26.6191 11.0653 26.758 10.6841L28.0722 10.6153C28.0054 10.9459 27.8864 11.2606 27.7151 11.5593C27.5434 11.8486 27.3233 12.1078 27.0549 12.3369C26.7958 12.5654 26.4833 12.7547 26.1173 12.9047C25.7509 13.0454 25.3346 13.128 24.8686 13.1524ZM24.4735 6.41586C23.8304 6.44957 23.3182 6.66333 22.9369 7.05716C22.5552 7.44166 22.3682 7.97485 22.3759 8.65671L26.7099 8.42958C26.6869 8.16909 26.6222 7.91546 26.5159 7.66869C26.409 7.4126 26.2619 7.19133 26.0745 7.00488C25.8867 6.80911 25.6591 6.65748 25.3918 6.54999C25.1244 6.4425 24.8183 6.39779 24.4735 6.41586Z" fill="white"/>
<path d="M5 22.1597L0 18.6597L5 18.1597V22.1597Z" fill="#7B103C"/>
</svg>
