<svg width="1920" height="2227" viewBox="0 0 1920 2227" fill="none" xmlns="http://www.w3.org/2000/svg">
<g opacity="0.64" filter="url(#filter0_f_407_48)">
<path d="M2017.31 955.682C1577.44 1280.65 1170.4 328.721 1115 240.532C1261.2 346.188 2048.15 793.382 2142.04 691.85C2158.28 722.04 2168.5 843.982 2017.31 955.682Z" fill="#00008E"/>
</g>
<g opacity="0.64" filter="url(#filter1_f_407_48)">
<path d="M-348.401 993.266C-351.598 446.38 657.289 678.753 761.184 685.989C589.657 741.797 -235.482 1113.86 -208.812 1249.55C-242.776 1244.87 -347.302 1181.24 -348.401 993.266Z" fill="#00008E"/>
</g>
<g opacity="0.5">
<g opacity="0.11">
<path d="M63.0005 562L75.2591 583H91.0005L78.719 562H63.0005Z" fill="white"/>
<path d="M103.269 562L91.0005 583H106.732L119 562H103.269Z" fill="white"/>
<path d="M91.0117 540L79.0005 562H103L91.0117 540Z" fill="white"/>
</g>
<g opacity="0.11">
<path d="M229 526L241.259 547H257L244.719 526H229Z" fill="white"/>
<path d="M269.269 526L257 547H272.732L285 526H269.269Z" fill="white"/>
<path d="M257.012 504L245 526H269L257.012 504Z" fill="white"/>
</g>
<g opacity="0.11">
<path d="M264 487L276.259 508H292L279.719 487H264Z" fill="white"/>
<path d="M304.269 487L292 508H307.732L320 487H304.269Z" fill="white"/>
<path d="M292.012 465L280 487H304L292.012 465Z" fill="white"/>
</g>
<g opacity="0.11">
<path d="M458 410L470.259 431H486L473.719 410H458Z" fill="white"/>
<path d="M498.269 410L486 431H501.732L514 410H498.269Z" fill="white"/>
<path d="M486.012 388L474 410H498L486.012 388Z" fill="white"/>
</g>
<g opacity="0.11">
<path d="M493 449L505.259 470H521L508.719 449H493Z" fill="white"/>
<path d="M533.269 449L521 470H536.732L549 449H533.269Z" fill="white"/>
<path d="M521.012 427L509 449H533L521.012 427Z" fill="white"/>
</g>
<g opacity="0.11">
<path d="M493 526L505.259 547H521L508.719 526H493Z" fill="white"/>
<path d="M533.269 526L521 547H536.732L549 526H533.269Z" fill="white"/>
<path d="M521.012 504L509 526H533L521.012 504Z" fill="white"/>
</g>
<g opacity="0.12">
<path d="M726 562L738.259 583H754L741.719 562H726Z" fill="white"/>
<path d="M766.269 562L754 583H769.732L782 562H766.269Z" fill="white"/>
<path d="M754.012 540L742 562H766L754.012 540Z" fill="white"/>
</g>
<g opacity="0.2">
<path d="M1054 487L1066.26 508H1082L1069.72 487H1054Z" fill="white"/>
<path d="M1094.27 487L1082 508H1097.73L1110 487H1094.27Z" fill="white"/>
<path d="M1082.01 465L1070 487H1094L1082.01 465Z" fill="white"/>
</g>
<g opacity="0.2">
<path d="M1516 487L1528.26 508H1544L1531.72 487H1516Z" fill="white"/>
<path d="M1556.27 487L1544 508H1559.73L1572 487H1556.27Z" fill="white"/>
<path d="M1544.01 465L1532 487H1556L1544.01 465Z" fill="white"/>
</g>
<g opacity="0.2">
<path d="M1681 449L1693.26 470H1709L1696.72 449H1681Z" fill="white"/>
<path d="M1721.27 449L1709 470H1724.73L1737 449H1721.27Z" fill="white"/>
<path d="M1709.01 427L1697 449H1721L1709.01 427Z" fill="white"/>
</g>
<g opacity="0.11">
<path d="M1681 367L1693.26 388H1709L1696.72 367H1681Z" fill="white"/>
<path d="M1721.27 367L1709 388H1724.73L1737 367H1721.27Z" fill="white"/>
<path d="M1709.01 345L1697 367H1721L1709.01 345Z" fill="white"/>
</g>
<g opacity="0.11">
<path d="M1681 600L1693.26 621H1709L1696.72 600H1681Z" fill="white"/>
<path d="M1721.27 600L1709 621H1724.73L1737 600H1721.27Z" fill="white"/>
<path d="M1709.01 578L1697 600H1721L1709.01 578Z" fill="white"/>
</g>
<g opacity="0.2">
<path d="M1681 682L1693.26 703H1709L1696.72 682H1681Z" fill="white"/>
<path d="M1721.27 682L1709 703H1724.73L1737 682H1721.27Z" fill="white"/>
<path d="M1709.01 660L1697 682H1721L1709.01 660Z" fill="white"/>
</g>
<g opacity="0.2">
<path d="M1681 758L1693.26 779H1709L1696.72 758H1681Z" fill="white"/>
<path d="M1721.27 758L1709 779H1724.73L1737 758H1721.27Z" fill="white"/>
<path d="M1709.01 736L1697 758H1721L1709.01 736Z" fill="white"/>
</g>
<g opacity="0.11">
<path d="M1615 758L1627.26 779H1643L1630.72 758H1615Z" fill="white"/>
<path d="M1655.27 758L1643 779H1658.73L1671 758H1655.27Z" fill="white"/>
<path d="M1643.01 736L1631 758H1655L1643.01 736Z" fill="white"/>
</g>
<g opacity="0.2">
<path d="M1875 758L1887.26 779H1903L1890.72 758H1875Z" fill="white"/>
<path d="M1915.27 758L1903 779H1918.73L1931 758H1915.27Z" fill="white"/>
<path d="M1903.01 736L1891 758H1915L1903.01 736Z" fill="white"/>
</g>
<g opacity="0.11">
<path d="M1284 677L1296.26 698H1312L1299.72 677H1284Z" fill="white"/>
<path d="M1324.27 677L1312 698H1327.73L1340 677H1324.27Z" fill="white"/>
<path d="M1312.01 655L1300 677H1324L1312.01 655Z" fill="white"/>
</g>
<g opacity="0.11">
<path d="M1447 639L1459.26 660H1475L1462.72 639H1447Z" fill="white"/>
<path d="M1487.27 639L1475 660H1490.73L1503 639H1487.27Z" fill="white"/>
<path d="M1475.01 617L1463 639H1487L1475.01 617Z" fill="white"/>
</g>
<g opacity="0.11">
<path d="M1054 562L1066.26 583H1082L1069.72 562H1054Z" fill="white"/>
<path d="M1094.27 562L1082 583H1097.73L1110 562H1094.27Z" fill="white"/>
<path d="M1082.01 540L1070 562H1094L1082.01 540Z" fill="white"/>
</g>
<g opacity="0.12">
<path d="M792 639L804.259 660H820L807.719 639H792Z" fill="white"/>
<path d="M832.269 639L820 660H835.732L848 639H832.269Z" fill="white"/>
<path d="M820.012 617L808 639H832L820.012 617Z" fill="white"/>
</g>
<g opacity="0.11">
<path d="M887 755L899.259 776H915L902.719 755H887Z" fill="white"/>
<path d="M927.269 755L915 776H930.732L943 755H927.269Z" fill="white"/>
<path d="M915.012 733L903 755H927L915.012 733Z" fill="white"/>
</g>
<g opacity="0.11">
<path d="M1020 832L1032.26 853H1048L1035.72 832H1020Z" fill="white"/>
<path d="M1060.27 832L1048 853H1063.73L1076 832H1060.27Z" fill="white"/>
<path d="M1048.01 810L1036 832H1060L1048.01 810Z" fill="white"/>
</g>
<g opacity="0.11">
<path d="M1020 913L1032.26 934H1048L1035.72 913H1020Z" fill="white"/>
<path d="M1060.27 913L1048 934H1063.73L1076 913H1060.27Z" fill="white"/>
<path d="M1048.01 891L1036 913H1060L1048.01 891Z" fill="white"/>
</g>
<g opacity="0.11">
<path d="M1284 986L1296.26 1007H1312L1299.72 986H1284Z" fill="white"/>
<path d="M1324.27 986L1312 1007H1327.73L1340 986H1324.27Z" fill="white"/>
<path d="M1312.01 964L1300 986H1324L1312.01 964Z" fill="white"/>
</g>
<g opacity="0.2">
<path d="M1516 946L1528.26 967H1544L1531.72 946H1516Z" fill="white"/>
<path d="M1556.27 946L1544 967H1559.73L1572 946H1556.27Z" fill="white"/>
<path d="M1544.01 924L1532 946H1556L1544.01 924Z" fill="white"/>
</g>
<g opacity="0.2">
<path d="M1544 1065L1556.26 1086H1572L1559.72 1065H1544Z" fill="white"/>
<path d="M1584.27 1065L1572 1086H1587.73L1600 1065H1584.27Z" fill="white"/>
<path d="M1572.01 1043L1560 1065H1584L1572.01 1043Z" fill="white"/>
</g>
<g opacity="0.11">
<path d="M1776 1098L1788.26 1119H1804L1791.72 1098H1776Z" fill="white"/>
<path d="M1816.27 1098L1804 1119H1819.73L1832 1098H1816.27Z" fill="white"/>
<path d="M1804.01 1076L1792 1098H1816L1804.01 1076Z" fill="white"/>
</g>
<g opacity="0.2">
<path d="M1381 1333L1393.26 1354H1409L1396.72 1333H1381Z" fill="white"/>
<path d="M1421.27 1333L1409 1354H1424.73L1437 1333H1421.27Z" fill="white"/>
<path d="M1409.01 1311L1397 1333H1421L1409.01 1311Z" fill="white"/>
</g>
<g opacity="0.11">
<path d="M1480 1295L1492.26 1316H1508L1495.72 1295H1480Z" fill="white"/>
<path d="M1520.27 1295L1508 1316H1523.73L1536 1295H1520.27Z" fill="white"/>
<path d="M1508.01 1273L1496 1295H1520L1508.01 1273Z" fill="white"/>
</g>
<g opacity="0.11">
<path d="M1284 1061L1296.26 1082H1312L1299.72 1061H1284Z" fill="white"/>
<path d="M1324.27 1061L1312 1082H1327.73L1340 1061H1324.27Z" fill="white"/>
<path d="M1312.01 1039L1300 1061H1324L1312.01 1039Z" fill="white"/>
</g>
<g opacity="0.11">
<path d="M1151 1376L1163.26 1397H1179L1166.72 1376H1151Z" fill="white"/>
<path d="M1191.27 1376L1179 1397H1194.73L1207 1376H1191.27Z" fill="white"/>
<path d="M1179.01 1354L1167 1376H1191L1179.01 1354Z" fill="white"/>
</g>
<g opacity="0.11">
<path d="M887 1376L899.259 1397H915L902.719 1376H887Z" fill="white"/>
<path d="M927.269 1376L915 1397H930.732L943 1376H927.269Z" fill="white"/>
<path d="M915.012 1354L903 1376H927L915.012 1354Z" fill="white"/>
</g>
<g opacity="0.2">
<path d="M887 1143L899.259 1164H915L902.719 1143H887Z" fill="white"/>
<path d="M927.269 1143L915 1164H930.732L943 1143H927.269Z" fill="white"/>
<path d="M915.012 1121L903 1143H927L915.012 1121Z" fill="white"/>
</g>
<g opacity="0.11">
<path d="M760 986L772.259 1007H788L775.719 986H760Z" fill="white"/>
<path d="M800.269 986L788 1007H803.732L816 986H800.269Z" fill="white"/>
<path d="M788.012 964L776 986H800L788.012 964Z" fill="white"/>
</g>
<g opacity="0.15">
<path d="M626 1061L638.259 1082H654L641.719 1061H626Z" fill="white"/>
<path d="M666.269 1061L654 1082H669.732L682 1061H666.269Z" fill="white"/>
<path d="M654.012 1039L642 1061H666L654.012 1039Z" fill="white"/>
</g>
<g opacity="0.11">
<path d="M694 1143L706.259 1164H722L709.719 1143H694Z" fill="white"/>
<path d="M734.269 1143L722 1164H737.732L750 1143H734.269Z" fill="white"/>
<path d="M722.012 1121L710 1143H734L722.012 1121Z" fill="white"/>
</g>
<g opacity="0.2">
<path d="M591 946L603.259 967H619L606.719 946H591Z" fill="white"/>
<path d="M631.269 946L619 967H634.732L647 946H631.269Z" fill="white"/>
<path d="M619.012 924L607 946H631L619.012 924Z" fill="white"/>
</g>
<g opacity="0.12">
<path d="M558 682L570.259 703H586L573.719 682H558Z" fill="white"/>
<path d="M598.269 682L586 703H601.732L614 682H598.269Z" fill="white"/>
<path d="M586.012 660L574 682H598L586.012 660Z" fill="white"/>
</g>
<g opacity="0.2">
<path d="M313 798L325.259 819H341L328.719 798H313Z" fill="white"/>
<path d="M353.269 798L341 819H356.732L369 798H353.269Z" fill="white"/>
<path d="M341.012 776L329 798H353L341.012 776Z" fill="white"/>
</g>
<g opacity="0.11">
<path d="M365 832L377.259 853H393L380.719 832H365Z" fill="white"/>
<path d="M405.269 832L393 853H408.732L421 832H405.269Z" fill="white"/>
<path d="M393.012 810L381 832H405L393.012 810Z" fill="white"/>
</g>
<g opacity="0.11">
<path d="M493 986L505.259 1007H521L508.719 986H493Z" fill="white"/>
<path d="M533.269 986L521 1007H536.732L549 986H533.269Z" fill="white"/>
<path d="M521.012 964L509 986H533L521.012 964Z" fill="white"/>
</g>
<g opacity="0.11">
<path d="M393 1259L405.259 1280H421L408.719 1259H393Z" fill="white"/>
<path d="M433.269 1259L421 1280H436.732L449 1259H433.269Z" fill="white"/>
<path d="M421.012 1237L409 1259H433L421.012 1237Z" fill="white"/>
</g>
<g opacity="0.11">
<path d="M633 1296L645.259 1317H661L648.719 1296H633Z" fill="white"/>
<path d="M673.269 1296L661 1317H676.732L689 1296H673.269Z" fill="white"/>
<path d="M661.012 1274L649 1296H673L661.012 1274Z" fill="white"/>
</g>
<g opacity="0.2">
<path d="M264 1339L276.259 1360H292L279.719 1339H264Z" fill="white"/>
<path d="M304.269 1339L292 1360H307.732L320 1339H304.269Z" fill="white"/>
<path d="M292.012 1317L280 1339H304L292.012 1317Z" fill="white"/>
</g>
<g opacity="0.11">
<path d="M264 1176L276.259 1197H292L279.719 1176H264Z" fill="white"/>
<path d="M304.269 1176L292 1197H307.732L320 1176H304.269Z" fill="white"/>
<path d="M292.012 1154L280 1176H304L292.012 1154Z" fill="white"/>
</g>
<g opacity="0.11">
<path d="M127 1176L139.259 1197H155L142.719 1176H127Z" fill="white"/>
<path d="M167.269 1176L155 1197H170.732L183 1176H167.269Z" fill="white"/>
<path d="M155.012 1154L143 1176H167L155.012 1154Z" fill="white"/>
</g>
<g opacity="0.11">
<path d="M0.000488281 1344L12.2591 1365H28.0005L15.719 1344H0.000488281Z" fill="white"/>
<path d="M40.2691 1344L28.0005 1365H43.7318L56.0005 1344H40.2691Z" fill="white"/>
<path d="M28.0117 1322L16.0005 1344H40.0005L28.0117 1322Z" fill="white"/>
</g>
<g opacity="0.2">
<path d="M67.0005 870L79.2591 891H95.0005L82.719 870H67.0005Z" fill="white"/>
<path d="M107.269 870L95.0005 891H110.732L123 870H107.269Z" fill="white"/>
<path d="M95.0117 848L83.0005 870H107L95.0117 848Z" fill="white"/>
</g>
</g>
<mask id="mask0_407_48" style="mask-type:alpha" maskUnits="userSpaceOnUse" x="1" y="1353" width="1920" height="874">
<rect x="1920" y="2227" width="1919" height="873" transform="rotate(-180 1920 2227)" fill="url(#paint0_linear_407_48)"/>
</mask>
<g mask="url(#mask0_407_48)">
<g opacity="0.5">
<g opacity="0.11">
<path d="M63.0005 1618L75.2591 1639H91.0005L78.719 1618H63.0005Z" fill="white"/>
<path d="M103.269 1618L91.0005 1639H106.732L119 1618H103.269Z" fill="white"/>
<path d="M91.0117 1596L79.0005 1618H103L91.0117 1596Z" fill="white"/>
</g>
<g opacity="0.11">
<path d="M229 1582L241.259 1603H257L244.719 1582H229Z" fill="white"/>
<path d="M269.269 1582L257 1603H272.732L285 1582H269.269Z" fill="white"/>
<path d="M257.012 1560L245 1582H269L257.012 1560Z" fill="white"/>
</g>
<g opacity="0.11">
<path d="M264 1543L276.259 1564H292L279.719 1543H264Z" fill="white"/>
<path d="M304.269 1543L292 1564H307.732L320 1543H304.269Z" fill="white"/>
<path d="M292.012 1521L280 1543H304L292.012 1521Z" fill="white"/>
</g>
<g opacity="0.11">
<path d="M458 1466L470.259 1487H486L473.719 1466H458Z" fill="white"/>
<path d="M498.269 1466L486 1487H501.732L514 1466H498.269Z" fill="white"/>
<path d="M486.012 1444L474 1466H498L486.012 1444Z" fill="white"/>
</g>
<g opacity="0.11">
<path d="M493 1505L505.259 1526H521L508.719 1505H493Z" fill="white"/>
<path d="M533.269 1505L521 1526H536.732L549 1505H533.269Z" fill="white"/>
<path d="M521.012 1483L509 1505H533L521.012 1483Z" fill="white"/>
</g>
<g opacity="0.11">
<path d="M493 1582L505.259 1603H521L508.719 1582H493Z" fill="white"/>
<path d="M533.269 1582L521 1603H536.732L549 1582H533.269Z" fill="white"/>
<path d="M521.012 1560L509 1582H533L521.012 1560Z" fill="white"/>
</g>
<g opacity="0.12">
<path d="M726 1618L738.259 1639H754L741.719 1618H726Z" fill="white"/>
<path d="M766.269 1618L754 1639H769.732L782 1618H766.269Z" fill="white"/>
<path d="M754.012 1596L742 1618H766L754.012 1596Z" fill="white"/>
</g>
<g opacity="0.2">
<path d="M1054 1543L1066.26 1564H1082L1069.72 1543H1054Z" fill="white"/>
<path d="M1094.27 1543L1082 1564H1097.73L1110 1543H1094.27Z" fill="white"/>
<path d="M1082.01 1521L1070 1543H1094L1082.01 1521Z" fill="white"/>
</g>
<g opacity="0.2">
<path d="M1516 1543L1528.26 1564H1544L1531.72 1543H1516Z" fill="white"/>
<path d="M1556.27 1543L1544 1564H1559.73L1572 1543H1556.27Z" fill="white"/>
<path d="M1544.01 1521L1532 1543H1556L1544.01 1521Z" fill="white"/>
</g>
<g opacity="0.2">
<path d="M1681 1505L1693.26 1526H1709L1696.72 1505H1681Z" fill="white"/>
<path d="M1721.27 1505L1709 1526H1724.73L1737 1505H1721.27Z" fill="white"/>
<path d="M1709.01 1483L1697 1505H1721L1709.01 1483Z" fill="white"/>
</g>
<g opacity="0.11">
<path d="M1681 1423L1693.26 1444H1709L1696.72 1423H1681Z" fill="white"/>
<path d="M1721.27 1423L1709 1444H1724.73L1737 1423H1721.27Z" fill="white"/>
<path d="M1709.01 1401L1697 1423H1721L1709.01 1401Z" fill="white"/>
</g>
<g opacity="0.11">
<path d="M1681 1656L1693.26 1677H1709L1696.72 1656H1681Z" fill="white"/>
<path d="M1721.27 1656L1709 1677H1724.73L1737 1656H1721.27Z" fill="white"/>
<path d="M1709.01 1634L1697 1656H1721L1709.01 1634Z" fill="white"/>
</g>
<g opacity="0.2">
<path d="M1681 1738L1693.26 1759H1709L1696.72 1738H1681Z" fill="white"/>
<path d="M1721.27 1738L1709 1759H1724.73L1737 1738H1721.27Z" fill="white"/>
<path d="M1709.01 1716L1697 1738H1721L1709.01 1716Z" fill="white"/>
</g>
<g opacity="0.2">
<path d="M1681 1814L1693.26 1835H1709L1696.72 1814H1681Z" fill="white"/>
<path d="M1721.27 1814L1709 1835H1724.73L1737 1814H1721.27Z" fill="white"/>
<path d="M1709.01 1792L1697 1814H1721L1709.01 1792Z" fill="white"/>
</g>
<g opacity="0.11">
<path d="M1615 1814L1627.26 1835H1643L1630.72 1814H1615Z" fill="white"/>
<path d="M1655.27 1814L1643 1835H1658.73L1671 1814H1655.27Z" fill="white"/>
<path d="M1643.01 1792L1631 1814H1655L1643.01 1792Z" fill="white"/>
</g>
<g opacity="0.2">
<path d="M1875 1814L1887.26 1835H1903L1890.72 1814H1875Z" fill="white"/>
<path d="M1915.27 1814L1903 1835H1918.73L1931 1814H1915.27Z" fill="white"/>
<path d="M1903.01 1792L1891 1814H1915L1903.01 1792Z" fill="white"/>
</g>
<g opacity="0.11">
<path d="M1284 1733L1296.26 1754H1312L1299.72 1733H1284Z" fill="white"/>
<path d="M1324.27 1733L1312 1754H1327.73L1340 1733H1324.27Z" fill="white"/>
<path d="M1312.01 1711L1300 1733H1324L1312.01 1711Z" fill="white"/>
</g>
<g opacity="0.11">
<path d="M1447 1695L1459.26 1716H1475L1462.72 1695H1447Z" fill="white"/>
<path d="M1487.27 1695L1475 1716H1490.73L1503 1695H1487.27Z" fill="white"/>
<path d="M1475.01 1673L1463 1695H1487L1475.01 1673Z" fill="white"/>
</g>
<g opacity="0.11">
<path d="M1054 1618L1066.26 1639H1082L1069.72 1618H1054Z" fill="white"/>
<path d="M1094.27 1618L1082 1639H1097.73L1110 1618H1094.27Z" fill="white"/>
<path d="M1082.01 1596L1070 1618H1094L1082.01 1596Z" fill="white"/>
</g>
<g opacity="0.12">
<path d="M792 1695L804.259 1716H820L807.719 1695H792Z" fill="white"/>
<path d="M832.269 1695L820 1716H835.732L848 1695H832.269Z" fill="white"/>
<path d="M820.012 1673L808 1695H832L820.012 1673Z" fill="white"/>
</g>
<g opacity="0.11">
<path d="M887 1811L899.259 1832H915L902.719 1811H887Z" fill="white"/>
<path d="M927.269 1811L915 1832H930.732L943 1811H927.269Z" fill="white"/>
<path d="M915.012 1789L903 1811H927L915.012 1789Z" fill="white"/>
</g>
<g opacity="0.11">
<path d="M1020 1888L1032.26 1909H1048L1035.72 1888H1020Z" fill="white"/>
<path d="M1060.27 1888L1048 1909H1063.73L1076 1888H1060.27Z" fill="white"/>
<path d="M1048.01 1866L1036 1888H1060L1048.01 1866Z" fill="white"/>
</g>
<g opacity="0.11">
<path d="M1020 1969L1032.26 1990H1048L1035.72 1969H1020Z" fill="white"/>
<path d="M1060.27 1969L1048 1990H1063.73L1076 1969H1060.27Z" fill="white"/>
<path d="M1048.01 1947L1036 1969H1060L1048.01 1947Z" fill="white"/>
</g>
<g opacity="0.11">
<path d="M1284 2042L1296.26 2063H1312L1299.72 2042H1284Z" fill="white"/>
<path d="M1324.27 2042L1312 2063H1327.73L1340 2042H1324.27Z" fill="white"/>
<path d="M1312.01 2020L1300 2042H1324L1312.01 2020Z" fill="white"/>
</g>
<g opacity="0.2">
<path d="M1516 2002L1528.26 2023H1544L1531.72 2002H1516Z" fill="white"/>
<path d="M1556.27 2002L1544 2023H1559.73L1572 2002H1556.27Z" fill="white"/>
<path d="M1544.01 1980L1532 2002H1556L1544.01 1980Z" fill="white"/>
</g>
<g opacity="0.2">
<path d="M1544 2121L1556.26 2142H1572L1559.72 2121H1544Z" fill="white"/>
<path d="M1584.27 2121L1572 2142H1587.73L1600 2121H1584.27Z" fill="white"/>
<path d="M1572.01 2099L1560 2121H1584L1572.01 2099Z" fill="white"/>
</g>
<g opacity="0.11">
<path d="M1776 2154L1788.26 2175H1804L1791.72 2154H1776Z" fill="white"/>
<path d="M1816.27 2154L1804 2175H1819.73L1832 2154H1816.27Z" fill="white"/>
<path d="M1804.01 2132L1792 2154H1816L1804.01 2132Z" fill="white"/>
</g>
<g opacity="0.11">
<path d="M1284 2117L1296.26 2138H1312L1299.72 2117H1284Z" fill="white"/>
<path d="M1324.27 2117L1312 2138H1327.73L1340 2117H1324.27Z" fill="white"/>
<path d="M1312.01 2095L1300 2117H1324L1312.01 2095Z" fill="white"/>
</g>
<g opacity="0.2">
<path d="M887 2199L899.259 2220H915L902.719 2199H887Z" fill="white"/>
<path d="M927.269 2199L915 2220H930.732L943 2199H927.269Z" fill="white"/>
<path d="M915.012 2177L903 2199H927L915.012 2177Z" fill="white"/>
</g>
<g opacity="0.11">
<path d="M760 2042L772.259 2063H788L775.719 2042H760Z" fill="white"/>
<path d="M800.269 2042L788 2063H803.732L816 2042H800.269Z" fill="white"/>
<path d="M788.012 2020L776 2042H800L788.012 2020Z" fill="white"/>
</g>
<g opacity="0.15">
<path d="M626 2117L638.259 2138H654L641.719 2117H626Z" fill="white"/>
<path d="M666.269 2117L654 2138H669.732L682 2117H666.269Z" fill="white"/>
<path d="M654.012 2095L642 2117H666L654.012 2095Z" fill="white"/>
</g>
<g opacity="0.11">
<path d="M694 2199L706.259 2220H722L709.719 2199H694Z" fill="white"/>
<path d="M734.269 2199L722 2220H737.732L750 2199H734.269Z" fill="white"/>
<path d="M722.012 2177L710 2199H734L722.012 2177Z" fill="white"/>
</g>
<g opacity="0.2">
<path d="M591 2002L603.259 2023H619L606.719 2002H591Z" fill="white"/>
<path d="M631.269 2002L619 2023H634.732L647 2002H631.269Z" fill="white"/>
<path d="M619.012 1980L607 2002H631L619.012 1980Z" fill="white"/>
</g>
<g opacity="0.12">
<path d="M558 1738L570.259 1759H586L573.719 1738H558Z" fill="white"/>
<path d="M598.269 1738L586 1759H601.732L614 1738H598.269Z" fill="white"/>
<path d="M586.012 1716L574 1738H598L586.012 1716Z" fill="white"/>
</g>
<g opacity="0.2">
<path d="M313 1854L325.259 1875H341L328.719 1854H313Z" fill="white"/>
<path d="M353.269 1854L341 1875H356.732L369 1854H353.269Z" fill="white"/>
<path d="M341.012 1832L329 1854H353L341.012 1832Z" fill="white"/>
</g>
<g opacity="0.11">
<path d="M365 1888L377.259 1909H393L380.719 1888H365Z" fill="white"/>
<path d="M405.269 1888L393 1909H408.732L421 1888H405.269Z" fill="white"/>
<path d="M393.012 1866L381 1888H405L393.012 1866Z" fill="white"/>
</g>
<g opacity="0.11">
<path d="M493 2042L505.259 2063H521L508.719 2042H493Z" fill="white"/>
<path d="M533.269 2042L521 2063H536.732L549 2042H533.269Z" fill="white"/>
<path d="M521.012 2020L509 2042H533L521.012 2020Z" fill="white"/>
</g>
<g opacity="0.11">
<path d="M292.012 2210L280 2232H304L292.012 2210Z" fill="white"/>
</g>
<g opacity="0.11">
<path d="M155.012 2210L143 2232H167L155.012 2210Z" fill="white"/>
</g>
<g opacity="0.2">
<path d="M67.0005 1926L79.2591 1947H95.0005L82.719 1926H67.0005Z" fill="white"/>
<path d="M107.269 1926L95.0005 1947H110.732L123 1926H107.269Z" fill="white"/>
<path d="M95.0117 1904L83.0005 1926H107L95.0117 1904Z" fill="white"/>
</g>
</g>
</g>
<defs>
<filter id="filter0_f_407_48" x="875" y="0.531982" width="1515.86" height="1262.5" filterUnits="userSpaceOnUse" color-interpolation-filters="sRGB">
<feFlood flood-opacity="0" result="BackgroundImageFix"/>
<feBlend mode="normal" in="SourceGraphic" in2="BackgroundImageFix" result="shape"/>
<feGaussianBlur stdDeviation="120" result="effect1_foregroundBlur_407_48"/>
</filter>
<filter id="filter1_f_407_48" x="-588.408" y="390.84" width="1589.59" height="1098.71" filterUnits="userSpaceOnUse" color-interpolation-filters="sRGB">
<feFlood flood-opacity="0" result="BackgroundImageFix"/>
<feBlend mode="normal" in="SourceGraphic" in2="BackgroundImageFix" result="shape"/>
<feGaussianBlur stdDeviation="120" result="effect1_foregroundBlur_407_48"/>
</filter>
<linearGradient id="paint0_linear_407_48" x1="2879.5" y1="2227" x2="2879.5" y2="3100" gradientUnits="userSpaceOnUse">
<stop stop-color="#000055" stop-opacity="0"/>
<stop offset="1" stop-color="#000055"/>
</linearGradient>
</defs>
</svg>
