<svg width="255" height="155" viewBox="0 0 255 155" fill="none" xmlns="http://www.w3.org/2000/svg">
<g filter="url(#filter0_ddddd_148_2801)">
<path d="M148.368 56.1739C141.227 57.5863 136.048 63.6284 132.713 74.2215C131.026 79.7143 130.595 82.3037 130.791 86.384C130.987 90.5428 131.85 92.7007 134.4 95.1332C136.401 97.0556 137.892 97.5657 141.384 97.5657C144.954 97.5657 146.681 96.7025 151.114 92.7791C154.41 89.8366 154.841 89.2873 156.803 85.3247C157.98 82.9707 159.314 80.0674 159.745 78.8119C160.138 77.5956 160.883 75.5162 161.354 74.2215C161.942 72.5345 162.217 70.8866 162.256 68.3364C162.296 65.1585 162.178 64.6092 161.236 62.9614C159.51 60.0581 158.372 58.9595 155.744 57.5471C152.683 55.8993 151.075 55.6246 148.368 56.1739ZM155.547 65.5116C155.783 67.3163 154.88 73.3584 153.978 75.7909C153.664 76.654 152.919 78.7726 152.33 80.4989C149.819 87.6003 147.073 91.7198 143.699 93.3676C142.482 93.9562 142.286 93.9954 141.698 93.4461C141.345 93.1322 140.717 91.7983 140.325 90.5036C139.658 88.2672 139.658 87.9141 140.246 84.3046C140.874 80.4597 143.149 73.0053 144.444 70.4943C144.837 69.7488 145.621 68.101 146.249 66.8455C146.916 65.4724 148.25 63.7461 149.662 62.3729L152.016 60.1365L153.664 62.0198C154.88 63.3537 155.39 64.3346 155.547 65.5116Z" fill="white"/>
<path d="M111.212 56.1741C104.072 57.5865 98.8928 63.6285 95.558 74.2217C93.8709 79.7144 93.4393 82.3039 93.6355 86.3842C93.8317 90.543 94.6948 92.7009 97.245 95.1334C99.2459 97.0558 100.737 97.5659 104.229 97.5659C107.799 97.5659 109.525 96.7027 113.959 92.7793C117.254 89.8368 117.686 89.2875 119.648 85.3249C120.825 82.9708 122.159 80.0675 122.59 78.8121C122.982 77.5958 123.728 75.5164 124.199 74.2217C124.787 72.5346 125.062 70.8868 125.101 68.3366C125.14 65.1587 125.023 64.6094 124.081 62.9616C122.355 60.0583 121.217 58.9597 118.588 57.5473C115.528 55.8995 113.919 55.6248 111.212 56.1741ZM118.392 65.5118C118.627 67.3165 117.725 73.3585 116.823 75.791C116.509 76.6542 115.763 78.7728 115.175 80.4991C112.664 87.6004 109.918 91.72 106.543 93.3678C105.327 93.9563 105.131 93.9956 104.543 93.4463C104.189 93.1324 103.562 91.7985 103.169 90.5038C102.502 88.2674 102.502 87.9143 103.091 84.3048C103.719 80.4599 105.994 73.0054 107.289 70.4945C107.681 69.749 108.466 68.1012 109.094 66.8457C109.761 65.4725 111.095 63.7462 112.507 62.3731L114.861 60.1367L116.509 62.02C117.725 63.3539 118.235 64.3348 118.392 65.5118Z" fill="white"/>
<path d="M185.524 56.1741C178.383 57.5865 173.204 63.6285 169.87 74.2217C168.182 79.7144 167.751 82.3039 167.947 86.3842C168.143 90.543 169.006 92.7009 171.557 95.1334C173.558 97.0558 175.048 97.5659 178.54 97.5659C182.111 97.5659 183.837 96.7027 188.27 92.7793C191.566 89.8368 191.997 89.2875 193.959 85.3249C195.136 82.9708 196.47 80.0675 196.902 78.8121C197.294 77.5958 198.039 75.5164 198.51 74.2217C199.099 72.5346 199.373 70.8868 199.413 68.3366C199.452 65.1587 199.334 64.6094 198.393 62.9616C196.666 60.0583 195.529 58.9597 192.9 57.5473C189.84 55.8995 188.231 55.6248 185.524 56.1741ZM192.704 65.5118C192.939 67.3165 192.037 73.3585 191.134 75.791C190.82 76.6542 190.075 78.7728 189.486 80.4991C186.976 87.6004 184.229 91.72 180.855 93.3678C179.639 93.9563 179.443 93.9956 178.854 93.4463C178.501 93.1324 177.873 91.7985 177.481 90.5038C176.814 88.2674 176.814 87.9143 177.402 84.3048C178.03 80.4599 180.306 73.0054 181.6 70.4945C181.993 69.749 182.778 68.1012 183.405 66.8457C184.072 65.4725 185.406 63.7462 186.819 62.3731L189.173 60.1367L190.82 62.02C192.037 63.3539 192.547 64.3348 192.704 65.5118Z" fill="white"/>
<path d="M74.2815 55.5974C74.1779 55.6388 73.2664 55.9082 72.2719 56.1983C71.2775 56.5091 70.3452 56.8614 70.2002 57.0272C70.0345 57.1722 69.7237 57.3587 69.4751 57.4416C68.8743 57.6281 64.9382 61.5233 64.7518 62.1241C64.6689 62.3727 64.3789 62.7871 64.1303 63.0357C63.5917 63.533 60.9401 67.9046 59.7801 70.2043C59.3451 71.0538 58.7858 72.359 58.5165 73.1049C58.2472 73.8508 57.8122 75.0731 57.5222 75.819C56.9629 77.3107 55.6374 83.5676 55.4097 85.7844C55.244 87.4418 55.6379 90.798 56.1559 92.2068C56.6532 93.512 58.3108 95.998 59.1189 96.5988C60.1548 97.386 62.3924 98.546 63.7184 99.0017C65.065 99.4574 67.9448 99.5608 69.8508 99.2085C71.3632 98.9183 75.2787 96.9499 76.6253 95.7896C77.2468 95.2716 77.8476 94.8572 77.9926 94.8572C78.407 94.8572 80.085 92.9718 80.6028 91.9359C80.8514 91.4386 81.1829 90.8792 81.3279 90.7135C81.6801 90.2576 82.2186 88.3101 82.3842 86.8599C82.5085 85.6375 82.4463 85.161 81.5966 80.9761C81.2857 79.4223 80.9749 78.8629 79.9389 77.9721C78.1986 76.4806 75.7331 75.5899 73.2884 75.59C72.3768 75.5901 71.5896 75.7766 69.9943 76.419C68.8342 76.8748 67.8605 77.2064 67.7983 77.1442C67.7569 77.1028 67.9018 76.4191 68.1504 75.6111C68.3782 74.8238 68.5854 74.0573 68.5854 73.8915C68.5853 73.7258 69.0203 72.5241 69.5382 71.2189C70.5532 68.7741 71.8997 66.7022 74.7585 63.2629L76.0844 61.709L75.6078 61.3154L75.152 60.9425L76.0222 60.7974C76.5194 60.7352 77.2652 60.4866 77.721 60.2586C78.1975 60.01 78.9226 59.8442 79.5855 59.8442C80.4557 59.8441 80.7872 59.9477 81.4709 60.4863L82.2789 61.1492L82.9004 60.6934C83.2319 60.4447 83.7291 60.1546 84.0191 60.051C84.8064 59.7402 84.8685 59.0151 84.1847 57.7514C83.4181 56.3426 82.8587 55.9697 81.222 55.7005C79.9789 55.5141 74.758 55.4316 74.2815 55.5974ZM74.511 79.3606C75.8577 80.2514 76.2514 81.1008 76.2515 82.9861C76.2517 85.6587 75.5267 88.1034 73.8695 91.0247C72.668 93.1173 71.5079 94.319 69.9334 95.0649C68.1103 95.9145 66.6601 96.1839 65.8314 95.8111C64.3811 95.1482 63.9667 94.3609 63.5936 91.6262C63.3241 89.4923 63.3862 88.9744 64.4841 85.9909C65.3747 83.5255 65.9341 82.5931 66.4106 82.7588C66.5763 82.8417 67.1357 82.4066 67.7986 81.7021C68.6273 80.8112 69.3523 80.2932 70.7611 79.6095C71.7762 79.1122 72.8328 78.6977 73.0607 78.6977C73.3093 78.6977 73.9723 79.0084 74.511 79.3606Z" fill="white"/>
</g>
<defs>
<filter id="filter0_ddddd_148_2801" x="0.371338" y="0.507996" width="254.048" height="153.911" filterUnits="userSpaceOnUse" color-interpolation-filters="sRGB">
<feFlood flood-opacity="0" result="BackgroundImageFix"/>
<feColorMatrix in="SourceAlpha" type="matrix" values="0 0 0 0 0 0 0 0 0 0 0 0 0 0 0 0 0 0 127 0" result="hardAlpha"/>
<feOffset/>
<feGaussianBlur stdDeviation="27.5"/>
<feComposite in2="hardAlpha" operator="out"/>
<feColorMatrix type="matrix" values="0 0 0 0 0 0 0 0 0 0.776471 0 0 0 0 1 0 0 0 0.62 0"/>
<feBlend mode="normal" in2="BackgroundImageFix" result="effect1_dropShadow_148_2801"/>
<feColorMatrix in="SourceAlpha" type="matrix" values="0 0 0 0 0 0 0 0 0 0 0 0 0 0 0 0 0 0 127 0" result="hardAlpha"/>
<feOffset/>
<feGaussianBlur stdDeviation="7.5"/>
<feComposite in2="hardAlpha" operator="out"/>
<feColorMatrix type="matrix" values="0 0 0 0 0 0 0 0 0 0.776471 0 0 0 0 1 0 0 0 0.62 0"/>
<feBlend mode="normal" in2="effect1_dropShadow_148_2801" result="effect2_dropShadow_148_2801"/>
<feColorMatrix in="SourceAlpha" type="matrix" values="0 0 0 0 0 0 0 0 0 0 0 0 0 0 0 0 0 0 127 0" result="hardAlpha"/>
<feOffset/>
<feGaussianBlur stdDeviation="7.5"/>
<feComposite in2="hardAlpha" operator="out"/>
<feColorMatrix type="matrix" values="0 0 0 0 0 0 0 0 0 0.776471 0 0 0 0 1 0 0 0 0.62 0"/>
<feBlend mode="normal" in2="effect2_dropShadow_148_2801" result="effect3_dropShadow_148_2801"/>
<feColorMatrix in="SourceAlpha" type="matrix" values="0 0 0 0 0 0 0 0 0 0 0 0 0 0 0 0 0 0 127 0" result="hardAlpha"/>
<feOffset/>
<feGaussianBlur stdDeviation="10"/>
<feComposite in2="hardAlpha" operator="out"/>
<feColorMatrix type="matrix" values="0 0 0 0 0 0 0 0 0 0.776471 0 0 0 0 1 0 0 0 0.62 0"/>
<feBlend mode="normal" in2="effect3_dropShadow_148_2801" result="effect4_dropShadow_148_2801"/>
<feColorMatrix in="SourceAlpha" type="matrix" values="0 0 0 0 0 0 0 0 0 0 0 0 0 0 0 0 0 0 127 0" result="hardAlpha"/>
<feOffset/>
<feGaussianBlur stdDeviation="10"/>
<feComposite in2="hardAlpha" operator="out"/>
<feColorMatrix type="matrix" values="0 0 0 0 0 0 0 0 0 0.776471 0 0 0 0 1 0 0 0 0.62 0"/>
<feBlend mode="normal" in2="effect4_dropShadow_148_2801" result="effect5_dropShadow_148_2801"/>
<feBlend mode="normal" in="SourceGraphic" in2="effect5_dropShadow_148_2801" result="shape"/>
</filter>
</defs>
</svg>
