<svg width="16" height="16" viewBox="0 0 16 16" fill="none" xmlns="http://www.w3.org/2000/svg">
<path fill-rule="evenodd" clip-rule="evenodd" d="M7.22558 0.567373C7.34255 0.227786 7.65313 0 8 0C8.34687 0 8.65745 0.227786 8.77442 0.567373L10.4079 5.28783L15.2036 5.45447C15.5504 5.46501 15.8529 5.70342 15.9598 6.04934C16.0667 6.39315 15.9558 6.77281 15.6815 6.99428L11.8942 10.0779L13.2272 14.8997C13.322 15.2477 13.199 15.621 12.9187 15.834C12.6383 16.0492 12.2612 16.0555 11.9728 15.8509L8 13.0372L4.02716 15.8509C3.73877 16.0555 3.36167 16.0492 3.08135 15.834C2.80103 15.621 2.67801 15.2477 2.77279 14.8997L4.10579 10.0779L0.318464 6.99428C0.0441965 6.77281 -0.066697 6.39315 0.0401868 6.04934C0.147071 5.70342 0.449572 5.46501 0.79644 5.45447L5.5921 5.28783L7.22558 0.567373Z" fill="url(#paint0_linear_148_11936)"/>
<defs>
<linearGradient id="paint0_linear_148_11936" x1="7.22581" y1="5.6681" x2="10.5467" y2="11.7537" gradientUnits="userSpaceOnUse">
<stop stop-color="#EFB587"/>
<stop offset="1" stop-color="#D69461"/>
</linearGradient>
</defs>
</svg>
