<svg width="24" height="20" viewBox="0 0 24 20" fill="none" xmlns="http://www.w3.org/2000/svg">
<path d="M24 0.00170898L0 1.49967V16.4997L24 14.5017V0.00170898Z" fill="#FF267E"/>
<path d="M3.44317 4.40841L5.21356 7.23562L6.72366 4.23648L8.0089 4.16913L5.8188 8.2944L5.95069 10.8109L4.80925 10.8708L4.67642 8.33624L2.13996 4.4767L3.44317 4.40841ZM9.22079 7.36808C9.24151 7.76354 9.30782 8.11155 9.4197 8.4121C9.53757 8.71235 9.68889 8.96277 9.87364 9.16338C10.0641 9.35768 10.279 9.50263 10.5183 9.59824C10.7573 9.68785 11.0116 9.72559 11.2813 9.71146C11.5509 9.69733 11.7999 9.63321 12.0282 9.5191C12.2562 9.399 12.4518 9.23254 12.6149 9.01971C12.7836 8.80058 12.9079 8.53571 12.9878 8.22511C13.0736 7.91419 13.1062 7.561 13.0855 7.16554C13.0648 6.77009 12.9956 6.42523 12.8781 6.13098C12.7662 5.83043 12.615 5.583 12.4246 5.3887C12.2398 5.18809 12.0279 5.04298 11.7889 4.95337C11.5496 4.85776 11.2951 4.81703 11.0255 4.83116C10.7559 4.84529 10.507 4.9124 10.279 5.0325C10.0507 5.14661 9.85211 5.31323 9.68335 5.53236C9.52026 5.74519 9.3958 6.00706 9.30995 6.31798C9.22978 6.62259 9.20006 6.97263 9.22079 7.36808ZM14.2629 7.10384C14.2892 7.60715 14.2414 8.06929 14.1192 8.49026C13.9971 8.91123 13.8091 9.27857 13.5551 9.59229C13.3009 9.90002 12.9864 10.1478 12.6117 10.3357C12.2368 10.5176 11.8096 10.6211 11.3302 10.6462C10.8509 10.6713 10.4153 10.613 10.0233 10.4713C9.63103 10.3237 9.29239 10.1101 9.00737 9.83063C8.72204 9.54517 8.49664 9.19949 8.33117 8.7936C8.1657 8.3877 8.06978 7.9331 8.0434 7.42979C8.01703 6.92648 8.0649 6.46434 8.18704 6.04337C8.30918 5.6224 8.49737 5.25805 8.75161 4.95033C9.00554 4.63661 9.32 4.38881 9.695 4.20693C10.07 4.02506 10.4972 3.92156 10.9765 3.89644C11.4558 3.87132 11.8915 3.9296 12.2834 4.07128C12.6754 4.21296 13.014 4.42653 13.2994 4.71199C13.5844 4.99145 13.8096 5.33414 13.9751 5.74003C14.1406 6.14593 14.2365 6.60053 14.2629 7.10384ZM16.1889 3.74043L16.3905 7.58715C16.4062 7.88674 16.4412 8.15227 16.4954 8.38375C16.5552 8.60893 16.6462 8.79643 16.7682 8.94625C16.8962 9.09575 17.0583 9.20742 17.2544 9.28126C17.4562 9.34879 17.7099 9.37455 18.0155 9.35853C18.3151 9.34283 18.5585 9.28802 18.7459 9.19408C18.9392 9.09984 19.0885 8.96884 19.1939 8.8011C19.3053 8.63304 19.3758 8.43107 19.4055 8.19519C19.4412 7.959 19.4512 7.69111 19.4355 7.39152L19.2358 3.58075L20.3772 3.52093L20.5746 7.28676C20.6016 7.80206 20.5737 8.24512 20.491 8.61596C20.414 8.98049 20.2737 9.28525 20.0703 9.53023C19.8665 9.76922 19.5997 9.95144 19.2698 10.0769C18.9396 10.1963 18.5378 10.2684 18.0645 10.2933C17.5971 10.3177 17.1931 10.2908 16.8526 10.2126C16.5117 10.1283 16.2246 9.98111 15.9913 9.77104C15.764 9.56065 15.59 9.27837 15.4693 8.9242C15.3486 8.57003 15.2744 8.12931 15.2468 7.60203L15.0475 3.80025L16.1889 3.74043Z" fill="white"/>
<path d="M5 19.9998L0 16.4998L5 15.9998V19.9998Z" fill="#7B103C"/>
</svg>
